<?xml version="1.0" encoding="utf-8"?>
<svg xmlns="http://www.w3.org/2000/svg"
    xmlns:xlink="http://www.w3.org/1999/xlink">
    <defs>
      <svg id="boost" viewbox="0 0 24 24">
  <g>
    <path d="M4.5 3.88l4.432 4.14-1.364 1.46L5.5 7.55V16c0 1.1.896 2 2 2H13v2H7.5c-2.209 0-4-1.79-4-4V7.55L1.432 9.48.068 8.02 4.5 3.88zM16.5 6H11V4h5.5c2.209 0 4 1.79 4 4v8.45l2.068-1.93 1.364 1.46-4.432 4.14-4.432-4.14 1.364-1.46 2.068 1.93V8c0-1.1-.896-2-2-2z">
    </path>
  </g>
</svg>
<svg id="fire" xmlns="http://www.w3.org/2000/svg" viewbox="0 0 512 512">
  <path d="M0 0h512v512H0z" fill="#ffffff" fill-opacity="0">
  </path>
  <g transform="translate(0,0)">
    <path d="M162.22 21.312c-183.876 106.68 51.994 227.35-10.19 332.47C116.95 413.083 38.11 325.45 43.75 227-6.035 353.376 30.21 443.745 95.22 492.75c1.386.34 17.577.498 41.186.562-28.478-16.9-32.06-75.355 32.813-103.25l15.78-7L182.062 400c-1.356 8.34-.318 13.95 1.188 16.937 1.507 2.987 3.106 3.544 5.844 4.094 5.475 1.1 16.963-2.395 26.28-14.624 18.636-24.457 29.117-80.228-26.874-167l-4.094-6.437-13.906-19.25 23.25 9.905 5.25 1.75c80.85 25.498 135.3 58.46 174.625 112.72 21.544-22.906 38.7-56.835 43.812-91.69l3.5-27.468 13.438 23.97c25.525 45.802 30.267 104.912 11.094 156.5-14.23 38.28-42.036 72.34-84 93.5 13.623-.01 24.05.032 25.25.124 154.76-34.77 139.345-244.952-14.19-394.093.012.726 0 1.46 0 2.188 78.964 185.87-136.465 189.104-119.25 11.47-41.686 100.463-132.86-2.147-91.06-91.283zM269.093 332.25c13.51 15.806 22.35 33.086 22.78 50.812.587 24.03-9.293 47.12-24.53 66.563-14.832 18.926-34.837 34.62-56.625 43.656 33.127-.065 64.926-.16 95.217-.25l-.062-.186c30.95-18.584 47.31-38.83 53.75-57.813 6.44-18.982 3.25-37.246-5.844-53.718-15.44-27.97-49.705-47.71-84.686-49.062z" fill="currentColor" fill-opacity="1">
    </path>
  </g>
</svg>
<svg id="reply" viewBox="0 0 24 24"  >
  <g>
    <path d="M1.751 10c0-4.42 3.584-8 8.005-8h4.366c4.49 0 8.129 3.64 8.129 8.13 0 2.96-1.607 5.68-4.196 7.11l-8.054 4.46v-3.69h-.067c-4.49.1-8.183-3.51-8.183-8.01zm8.005-6c-3.317 0-6.005 2.69-6.005 6 0 3.37 2.77 6.08 6.138 6.01l.351-.01h1.761v2.3l5.087-2.81c1.951-1.08 3.163-3.13 3.163-5.36 0-3.39-2.744-6.13-6.129-6.13H9.756z">
    </path>
  </g>
</svg>
    </defs>
</svg>
