<svg xmlns="http://www.w3.org/2000/svg" viewBox="0 0 512 512"><defs><symbol id="meteoconsCloudDown0" viewBox="0 0 359 231"><path fill="none" stroke="#e2e8f0" stroke-linecap="round" stroke-linejoin="round" stroke-width="15" d="M295.5 223.5a56 56 0 0 0 0-112l-2.5.1a83.9 83.9 0 0 0-153-64.2a56 56 0 0 0-84.6 48.1a56.6 56.6 0 0 0 .8 9a60 60 0 0 0 11.2 119"/></symbol></defs><use width="359" height="231" href="#meteoconsCloudDown0" transform="translate(76.5 140.5)"/><path fill="#374151" d="M372.5 271a4.6 4.6 0 0 0-3.2 1.3L350 290.7l-19.3-18.4a4.6 4.6 0 0 0-6.4 0a4.1 4.1 0 0 0 0 6l22.5 21.4a4.6 4.6 0 0 0 6.4 0l22.5-21.4a4.1 4.1 0 0 0 0-6a4.6 4.6 0 0 0-3.2-1.3Z" opacity="0"><animateTransform attributeName="transform" begin="-1.2s" calcMode="spline" dur="3s" keySplines=".55, 0, .1, 1; .55, 0, .1, 1" repeatCount="indefinite" type="translate" values="0 -30; 0 0; 0 30"/><animate attributeName="opacity" begin="-1.2s" calcMode="spline" dur="3s" keySplines=".55, 0, .1, 1; .55, 0, .1, 1" repeatCount="indefinite" values="0; 1; 0"/></path><path fill="#374151" d="M372.5 244a4.6 4.6 0 0 0-3.2 1.3L350 263.7l-19.3-18.4a4.6 4.6 0 0 0-6.4 0a4.1 4.1 0 0 0 0 6l22.5 21.4a4.6 4.6 0 0 0 6.4 0l22.5-21.4a4.1 4.1 0 0 0 0-6a4.6 4.6 0 0 0-3.2-1.3Z" opacity="0"><animateTransform attributeName="transform" begin="-1.1s" calcMode="spline" dur="3s" keySplines=".55, 0, .1, 1; .55, 0, .1, 1" repeatCount="indefinite" type="translate" values="0 -30; 0 0; 0 30"/><animate attributeName="opacity" begin="-1.1s" calcMode="spline" dur="3s" keySplines=".55, 0, .1, 1; .55, 0, .1, 1" repeatCount="indefinite" values="0; 1; 0"/></path><path fill="#374151" d="M372.5 217a4.6 4.6 0 0 0-3.2 1.3L350 236.7l-19.3-18.4a4.6 4.6 0 0 0-6.4 0a4.1 4.1 0 0 0 0 6l22.5 21.4a4.6 4.6 0 0 0 6.4 0l22.5-21.4a4.1 4.1 0 0 0 0-6a4.6 4.6 0 0 0-3.2-1.3Z" opacity="0"><animateTransform attributeName="transform" begin="-1s" calcMode="spline" dur="3s" keySplines=".55, 0, .1, 1; .55, 0, .1, 1" repeatCount="indefinite" type="translate" values="0 -30; 0 0; 0 30"/><animate attributeName="opacity" begin="-1s" calcMode="spline" dur="3s" keySplines=".55, 0, .1, 1; .55, 0, .1, 1" repeatCount="indefinite" values="0; 1; 0"/></path></svg>