<svg xmlns="http://www.w3.org/2000/svg" viewBox="0 0 512 512"><defs><linearGradient id="meteoconsDust0" x1="6" x2="18" y1="169.6" y2="190.4" gradientUnits="userSpaceOnUse"><stop offset="0" stop-color="#fde68a"/><stop offset=".5" stop-color="#fde68a"/><stop offset="1" stop-color="#fde171"/></linearGradient><linearGradient id="meteoconsDust1" x1="66" x2="78" y1="169.6" y2="190.4" href="#meteoconsDust0"/><linearGradient id="meteoconsDust2" x1="38" x2="50" y1="137.6" y2="158.4" href="#meteoconsDust0"/><linearGradient id="meteoconsDust3" x1="98" x2="110" y1="137.6" y2="158.4" href="#meteoconsDust0"/><linearGradient id="meteoconsDust4" x1="70" x2="82" y1="101.6" y2="122.4" href="#meteoconsDust0"/><linearGradient id="meteoconsDust5" x1="130" x2="142" y1="101.6" y2="122.4" href="#meteoconsDust0"/><linearGradient id="meteoconsDust6" x1="102" x2="114" y1="69.6" y2="90.4" href="#meteoconsDust0"/><linearGradient id="meteoconsDust7" x1="162" x2="174" y1="69.6" y2="90.4" href="#meteoconsDust0"/><linearGradient id="meteoconsDust8" x1="134" x2="146" y1="33.6" y2="54.4" href="#meteoconsDust0"/><linearGradient id="meteoconsDust9" x1="194" x2="206" y1="33.6" y2="54.4" href="#meteoconsDust0"/><linearGradient id="meteoconsDusta" x1="166" x2="178" y1="1.6" y2="22.4" href="#meteoconsDust0"/><linearGradient id="meteoconsDustb" x1="226" x2="238" y1="1.6" y2="22.4" href="#meteoconsDust0"/><symbol id="meteoconsDustc" viewBox="0 0 359 231"><path fill="none" stroke="#e2e8f0" stroke-linecap="round" stroke-linejoin="round" stroke-width="15" d="M295.5 223.5a56 56 0 0 0 0-112l-2.5.1a83.9 83.9 0 0 0-153-64.2a56 56 0 0 0-84.6 48.1a56.6 56.6 0 0 0 .8 9a60 60 0 0 0 11.2 119"/></symbol><symbol id="meteoconsDustd" viewBox="0 0 244 192"><circle cx="12" cy="180" r="12" fill="url(#meteoconsDust0)"><animate attributeName="opacity" begin="-1s" dur=".67s" repeatCount="indefinite" values=".5; 1; .5"/></circle><circle cx="72" cy="180" r="12" fill="url(#meteoconsDust1)"><animate attributeName="opacity" begin="-1.08s" dur=".67s" repeatCount="indefinite" values=".5; 1; .5"/></circle><circle cx="44" cy="148" r="12" fill="url(#meteoconsDust2)"><animate attributeName="opacity" begin="-1.16s" dur=".67s" repeatCount="indefinite" values=".5; 1; .5"/></circle><circle cx="104" cy="148" r="12" fill="url(#meteoconsDust3)"><animate attributeName="opacity" begin="-1.24s" dur=".67s" repeatCount="indefinite" values=".5; 1; .5"/></circle><circle cx="76" cy="112" r="12" fill="url(#meteoconsDust4)"><animate attributeName="opacity" begin="-1.32s" dur=".67s" repeatCount="indefinite" values=".5; 1; .5"/></circle><circle cx="136" cy="112" r="12" fill="url(#meteoconsDust5)"><animate attributeName="opacity" begin="-1.40s" dur=".67s" repeatCount="indefinite" values=".5; 1; .5"/></circle><circle cx="108" cy="80" r="12" fill="url(#meteoconsDust6)"><animate attributeName="opacity" begin="-1.48s" dur=".67s" repeatCount="indefinite" values=".5; 1; .5"/></circle><circle cx="168" cy="80" r="12" fill="url(#meteoconsDust7)"><animate attributeName="opacity" begin="-1.56s" dur=".67s" repeatCount="indefinite" values=".5; 1; .5"/></circle><circle cx="140" cy="44" r="12" fill="url(#meteoconsDust8)"><animate attributeName="opacity" begin="-1.64s" dur=".67s" repeatCount="indefinite" values=".5; 1; .5"/></circle><circle cx="200" cy="44" r="12" fill="url(#meteoconsDust9)"><animate attributeName="opacity" begin="-1.72s" dur=".67s" repeatCount="indefinite" values=".5; 1; .5"/></circle><circle cx="172" cy="12" r="12" fill="url(#meteoconsDusta)"><animate attributeName="opacity" begin="-1.80s" dur=".67s" repeatCount="indefinite" values=".5; 1; .5"/></circle><circle cx="232" cy="12" r="12" fill="url(#meteoconsDustb)"><animate attributeName="opacity" begin="-1.88s" dur=".67s" repeatCount="indefinite" values=".5; 1; .5"/></circle></symbol><clipPath id="meteoconsDuste"><path fill="none" d="M0 0h512L0 512V0z"/></clipPath></defs><g clip-path="url(#meteoconsDuste)"><use width="359" height="231" href="#meteoconsDustc" transform="translate(80.5 140.5)"/></g><use width="244" height="192" href="#meteoconsDustd" transform="translate(192 182)"/></svg>