<svg xmlns="http://www.w3.org/2000/svg" viewBox="0 0 512 512"><defs><linearGradient id="meteoconsDustDay0" x1="6" x2="18" y1="169.6" y2="190.4" gradientUnits="userSpaceOnUse"><stop offset="0" stop-color="#fde68a"/><stop offset=".5" stop-color="#fde68a"/><stop offset="1" stop-color="#fde171"/></linearGradient><linearGradient id="meteoconsDustDay1" x1="66" x2="78" y1="169.6" y2="190.4" href="#meteoconsDustDay0"/><linearGradient id="meteoconsDustDay2" x1="38" x2="50" y1="137.6" y2="158.4" href="#meteoconsDustDay0"/><linearGradient id="meteoconsDustDay3" x1="98" x2="110" y1="137.6" y2="158.4" href="#meteoconsDustDay0"/><linearGradient id="meteoconsDustDay4" x1="70" x2="82" y1="101.6" y2="122.4" href="#meteoconsDustDay0"/><linearGradient id="meteoconsDustDay5" x1="130" x2="142" y1="101.6" y2="122.4" href="#meteoconsDustDay0"/><linearGradient id="meteoconsDustDay6" x1="102" x2="114" y1="69.6" y2="90.4" href="#meteoconsDustDay0"/><linearGradient id="meteoconsDustDay7" x1="162" x2="174" y1="69.6" y2="90.4" href="#meteoconsDustDay0"/><linearGradient id="meteoconsDustDay8" x1="134" x2="146" y1="33.6" y2="54.4" href="#meteoconsDustDay0"/><linearGradient id="meteoconsDustDay9" x1="194" x2="206" y1="33.6" y2="54.4" href="#meteoconsDustDay0"/><linearGradient id="meteoconsDustDaya" x1="166" x2="178" y1="1.6" y2="22.4" href="#meteoconsDustDay0"/><linearGradient id="meteoconsDustDayb" x1="226" x2="238" y1="1.6" y2="22.4" href="#meteoconsDustDay0"/><symbol id="meteoconsDustDayc" viewBox="0 0 375 375"><circle cx="187.5" cy="187.5" r="84" fill="none" stroke="#fbbf24" stroke-miterlimit="10" stroke-width="15"/><path fill="none" stroke="#fbbf24" stroke-linecap="round" stroke-miterlimit="10" stroke-width="15" d="M187.5 57.2V7.5m0 360v-49.7m92.2-222.5l35-35M60.3 314.7l35.1-35.1m0-184.4l-35-35m254.5 254.5l-35.1-35.1M57.2 187.5H7.5m360 0h-49.7"><animateTransform additive="sum" attributeName="transform" dur="6s" repeatCount="indefinite" type="rotate" values="0 187.5 187.5; 45 187.5 187.5"/></path></symbol><symbol id="meteoconsDustDayd" viewBox="0 0 244 192"><circle cx="12" cy="180" r="12" fill="url(#meteoconsDustDay0)"><animate attributeName="opacity" begin="-1s" dur=".67s" repeatCount="indefinite" values=".5; 1; .5"/></circle><circle cx="72" cy="180" r="12" fill="url(#meteoconsDustDay1)"><animate attributeName="opacity" begin="-1.08s" dur=".67s" repeatCount="indefinite" values=".5; 1; .5"/></circle><circle cx="44" cy="148" r="12" fill="url(#meteoconsDustDay2)"><animate attributeName="opacity" begin="-1.16s" dur=".67s" repeatCount="indefinite" values=".5; 1; .5"/></circle><circle cx="104" cy="148" r="12" fill="url(#meteoconsDustDay3)"><animate attributeName="opacity" begin="-1.24s" dur=".67s" repeatCount="indefinite" values=".5; 1; .5"/></circle><circle cx="76" cy="112" r="12" fill="url(#meteoconsDustDay4)"><animate attributeName="opacity" begin="-1.32s" dur=".67s" repeatCount="indefinite" values=".5; 1; .5"/></circle><circle cx="136" cy="112" r="12" fill="url(#meteoconsDustDay5)"><animate attributeName="opacity" begin="-1.40s" dur=".67s" repeatCount="indefinite" values=".5; 1; .5"/></circle><circle cx="108" cy="80" r="12" fill="url(#meteoconsDustDay6)"><animate attributeName="opacity" begin="-1.48s" dur=".67s" repeatCount="indefinite" values=".5; 1; .5"/></circle><circle cx="168" cy="80" r="12" fill="url(#meteoconsDustDay7)"><animate attributeName="opacity" begin="-1.56s" dur=".67s" repeatCount="indefinite" values=".5; 1; .5"/></circle><circle cx="140" cy="44" r="12" fill="url(#meteoconsDustDay8)"><animate attributeName="opacity" begin="-1.64s" dur=".67s" repeatCount="indefinite" values=".5; 1; .5"/></circle><circle cx="200" cy="44" r="12" fill="url(#meteoconsDustDay9)"><animate attributeName="opacity" begin="-1.72s" dur=".67s" repeatCount="indefinite" values=".5; 1; .5"/></circle><circle cx="172" cy="12" r="12" fill="url(#meteoconsDustDaya)"><animate attributeName="opacity" begin="-1.80s" dur=".67s" repeatCount="indefinite" values=".5; 1; .5"/></circle><circle cx="232" cy="12" r="12" fill="url(#meteoconsDustDayb)"><animate attributeName="opacity" begin="-1.88s" dur=".67s" repeatCount="indefinite" values=".5; 1; .5"/></circle></symbol><clipPath id="meteoconsDustDaye"><path fill="none" d="M0 0h512L0 512V0z"/></clipPath></defs><g clip-path="url(#meteoconsDustDaye)"><use width="375" height="375" href="#meteoconsDustDayc" transform="translate(68.5 68.5)"/></g><use width="244" height="192" href="#meteoconsDustDayd" transform="translate(192 182)"/></svg>