<svg xmlns="http://www.w3.org/2000/svg" viewBox="0 0 512 512"><defs><linearGradient id="meteoconsDustNightFill0" x1="6" x2="18" y1="169.6" y2="190.4" gradientUnits="userSpaceOnUse"><stop offset="0" stop-color="#fde68a"/><stop offset=".5" stop-color="#fde68a"/><stop offset="1" stop-color="#fde171"/></linearGradient><linearGradient id="meteoconsDustNightFill1" x1="66" x2="78" y1="169.6" y2="190.4" href="#meteoconsDustNightFill0"/><linearGradient id="meteoconsDustNightFill2" x1="38" x2="50" y1="137.6" y2="158.4" href="#meteoconsDustNightFill0"/><linearGradient id="meteoconsDustNightFill3" x1="98" x2="110" y1="137.6" y2="158.4" href="#meteoconsDustNightFill0"/><linearGradient id="meteoconsDustNightFill4" x1="70" x2="82" y1="101.6" y2="122.4" href="#meteoconsDustNightFill0"/><linearGradient id="meteoconsDustNightFill5" x1="130" x2="142" y1="101.6" y2="122.4" href="#meteoconsDustNightFill0"/><linearGradient id="meteoconsDustNightFill6" x1="102" x2="114" y1="69.6" y2="90.4" href="#meteoconsDustNightFill0"/><linearGradient id="meteoconsDustNightFill7" x1="162" x2="174" y1="69.6" y2="90.4" href="#meteoconsDustNightFill0"/><linearGradient id="meteoconsDustNightFill8" x1="134" x2="146" y1="33.6" y2="54.4" href="#meteoconsDustNightFill0"/><linearGradient id="meteoconsDustNightFill9" x1="194" x2="206" y1="33.6" y2="54.4" href="#meteoconsDustNightFill0"/><linearGradient id="meteoconsDustNightFilla" x1="166" x2="178" y1="1.6" y2="22.4" href="#meteoconsDustNightFill0"/><linearGradient id="meteoconsDustNightFillb" x1="226" x2="238" y1="1.6" y2="22.4" href="#meteoconsDustNightFill0"/><linearGradient id="meteoconsDustNightFillc" x1="54.3" x2="187.2" y1="29" y2="259.1" gradientUnits="userSpaceOnUse"><stop offset="0" stop-color="#86c3db"/><stop offset=".5" stop-color="#86c3db"/><stop offset="1" stop-color="#5eafcf"/></linearGradient><symbol id="meteoconsDustNightFilld" viewBox="0 0 270 270"><path fill="url(#meteoconsDustNightFillc)" stroke="#72b9d5" stroke-linecap="round" stroke-linejoin="round" stroke-width="6" d="M252.3 168.6A133.4 133.4 0 0 1 118 36.2A130.5 130.5 0 0 1 122.5 3A133 133 0 0 0 3 134.6C3 207.7 63 267 137.2 267c62.5 0 114.8-42.2 129.8-99.2a135.6 135.6 0 0 1-14.8.8Z"><animateTransform additive="sum" attributeName="transform" dur="6s" repeatCount="indefinite" type="rotate" values="-15 135 135; 9 135 135; -15 135 135"/></path></symbol><symbol id="meteoconsDustNightFille" viewBox="0 0 244 192"><circle cx="12" cy="180" r="12" fill="url(#meteoconsDustNightFill0)"><animate attributeName="opacity" begin="-1s" dur=".67s" repeatCount="indefinite" values=".5; 1; .5"/></circle><circle cx="72" cy="180" r="12" fill="url(#meteoconsDustNightFill1)"><animate attributeName="opacity" begin="-1.08s" dur=".67s" repeatCount="indefinite" values=".5; 1; .5"/></circle><circle cx="44" cy="148" r="12" fill="url(#meteoconsDustNightFill2)"><animate attributeName="opacity" begin="-1.16s" dur=".67s" repeatCount="indefinite" values=".5; 1; .5"/></circle><circle cx="104" cy="148" r="12" fill="url(#meteoconsDustNightFill3)"><animate attributeName="opacity" begin="-1.24s" dur=".67s" repeatCount="indefinite" values=".5; 1; .5"/></circle><circle cx="76" cy="112" r="12" fill="url(#meteoconsDustNightFill4)"><animate attributeName="opacity" begin="-1.32s" dur=".67s" repeatCount="indefinite" values=".5; 1; .5"/></circle><circle cx="136" cy="112" r="12" fill="url(#meteoconsDustNightFill5)"><animate attributeName="opacity" begin="-1.40s" dur=".67s" repeatCount="indefinite" values=".5; 1; .5"/></circle><circle cx="108" cy="80" r="12" fill="url(#meteoconsDustNightFill6)"><animate attributeName="opacity" begin="-1.48s" dur=".67s" repeatCount="indefinite" values=".5; 1; .5"/></circle><circle cx="168" cy="80" r="12" fill="url(#meteoconsDustNightFill7)"><animate attributeName="opacity" begin="-1.56s" dur=".67s" repeatCount="indefinite" values=".5; 1; .5"/></circle><circle cx="140" cy="44" r="12" fill="url(#meteoconsDustNightFill8)"><animate attributeName="opacity" begin="-1.64s" dur=".67s" repeatCount="indefinite" values=".5; 1; .5"/></circle><circle cx="200" cy="44" r="12" fill="url(#meteoconsDustNightFill9)"><animate attributeName="opacity" begin="-1.72s" dur=".67s" repeatCount="indefinite" values=".5; 1; .5"/></circle><circle cx="172" cy="12" r="12" fill="url(#meteoconsDustNightFilla)"><animate attributeName="opacity" begin="-1.80s" dur=".67s" repeatCount="indefinite" values=".5; 1; .5"/></circle><circle cx="232" cy="12" r="12" fill="url(#meteoconsDustNightFillb)"><animate attributeName="opacity" begin="-1.88s" dur=".67s" repeatCount="indefinite" values=".5; 1; .5"/></circle></symbol><clipPath id="meteoconsDustNightFillf"><path fill="none" d="M0 0h512L0 512V0z"/></clipPath></defs><g clip-path="url(#meteoconsDustNightFillf)"><use width="270" height="270" href="#meteoconsDustNightFilld" transform="translate(121 121)"/></g><use width="244" height="192" href="#meteoconsDustNightFille" transform="translate(192 182)"/></svg>