<svg xmlns="http://www.w3.org/2000/svg" viewBox="0 0 512 512"><defs><linearGradient id="meteoconsExtremeNightHazeFill0" x1="52.7" x2="133.4" y1="9.6" y2="149.3" gradientUnits="userSpaceOnUse"><stop offset="0" stop-color="#9ca3af"/><stop offset=".5" stop-color="#9ca3af"/><stop offset="1" stop-color="#6b7280"/></linearGradient><linearGradient id="meteoconsExtremeNightHazeFill1" x1="99.5" x2="232.6" y1="30.7" y2="261.4" gradientUnits="userSpaceOnUse"><stop offset="0" stop-color="#6b7280"/><stop offset=".5" stop-color="#6b7280"/><stop offset="1" stop-color="#4b5563"/></linearGradient><linearGradient id="meteoconsExtremeNightHazeFill2" x1="17.3" x2="89.3" y1="43.1" y2="167.8" gradientUnits="userSpaceOnUse"><stop offset="0" stop-color="#d4d7dd"/><stop offset=".5" stop-color="#d4d7dd"/><stop offset="1" stop-color="#bec1c6"/></linearGradient><linearGradient id="meteoconsExtremeNightHazeFill3" x1="107.3" x2="179.3" y1="-8.8" y2="115.9" href="#meteoconsExtremeNightHazeFill2"/><linearGradient id="meteoconsExtremeNightHazeFill4" x1="174.8" x2="246.8" y1="-47.8" y2="76.9" href="#meteoconsExtremeNightHazeFill2"/><linearGradient id="meteoconsExtremeNightHazeFill5" x2="89.3" y1="-4.9" y2="119.8" href="#meteoconsExtremeNightHazeFill2"/><linearGradient id="meteoconsExtremeNightHazeFill6" x1="107.3" x2="179.3" y1="-56.9" y2="67.9" href="#meteoconsExtremeNightHazeFill2"/><linearGradient id="meteoconsExtremeNightHazeFill7" x1="174.8" x2="246.8" y1="-95.8" y2="28.9" href="#meteoconsExtremeNightHazeFill2"/><linearGradient id="meteoconsExtremeNightHazeFill8" x1="34.7" x2="119.2" y1="18.6" y2="165" gradientUnits="userSpaceOnUse"><stop offset="0" stop-color="#86c3db"/><stop offset=".5" stop-color="#86c3db"/><stop offset="1" stop-color="#5eafcf"/></linearGradient><symbol id="meteoconsExtremeNightHazeFill9" viewBox="0 0 172 172"><path fill="url(#meteoconsExtremeNightHazeFill8)" stroke="#72b9d5" stroke-linecap="round" stroke-linejoin="round" stroke-width="4" d="M160.6 107.4a84.8 84.8 0 0 1-85.4-84.3A83.3 83.3 0 0 1 78 2A84.7 84.7 0 0 0 2 85.7A84.8 84.8 0 0 0 87.4 170a85.2 85.2 0 0 0 82.6-63.1a88 88 0 0 1-9.4.5Z"><animateTransform additive="sum" attributeName="transform" dur="6s" repeatCount="indefinite" type="rotate" values="-15 86 86; 9 86 86; -15 86 86"/></path></symbol><symbol id="meteoconsExtremeNightHazeFilla" viewBox="0 0 200.3 126.1"><path fill="url(#meteoconsExtremeNightHazeFill0)" stroke="#848b98" stroke-miterlimit="10" d="M.5 93.2a32.4 32.4 0 0 0 32.4 32.4h129.8v-.1l2.3.1a34.8 34.8 0 0 0 6.5-68.9a32.4 32.4 0 0 0-48.5-33a48.6 48.6 0 0 0-88.6 37.1h-1.5A32.4 32.4 0 0 0 .5 93.1Z"/></symbol><symbol id="meteoconsExtremeNightHazeFillb" viewBox="0 0 350 222"><path fill="url(#meteoconsExtremeNightHazeFill1)" stroke="#5b6472" stroke-miterlimit="10" stroke-width="6" d="m291 107l-2.5.1A83.9 83.9 0 0 0 135.6 43A56 56 0 0 0 51 91a56.6 56.6 0 0 0 .8 9A60 60 0 0 0 63 219l4-.2v.2h224a56 56 0 0 0 0-112Z"/></symbol><symbol id="meteoconsExtremeNightHazeFillc" viewBox="0 0 398 222"><use width="200.3" height="126.1" href="#meteoconsExtremeNightHazeFilla" transform="translate(198 27)"><animateTransform additive="sum" attributeName="transform" dur="6s" repeatCount="indefinite" type="translate" values="-9 0; 9 0; -9 0"/></use><use width="350" height="222" href="#meteoconsExtremeNightHazeFillb"><animateTransform additive="sum" attributeName="transform" dur="6s" repeatCount="indefinite" type="translate" values="-18 0; 18 0; -18 0"/></use></symbol><symbol id="meteoconsExtremeNightHazeFilld" viewBox="0 0 398.8 246"><use width="172" height="172" href="#meteoconsExtremeNightHazeFill9"/><use width="398" height="222" href="#meteoconsExtremeNightHazeFillc" transform="translate(.84 24)"/></symbol><symbol id="meteoconsExtremeNightHazeFille" viewBox="0 0 264 72"><g><path fill="none" stroke="url(#meteoconsExtremeNightHazeFill2)" stroke-linecap="round" stroke-miterlimit="10" stroke-width="24" d="M12 60h30"/><path fill="none" stroke="url(#meteoconsExtremeNightHazeFill3)" stroke-dasharray="60 60" stroke-linecap="round" stroke-miterlimit="10" stroke-width="24" d="M102 60h90"/><path fill="none" stroke="url(#meteoconsExtremeNightHazeFill4)" stroke-linecap="round" stroke-miterlimit="10" stroke-width="24" d="M222 60h30"/><animateTransform additive="sum" attributeName="transform" dur="6s" repeatCount="indefinite" type="translate" values="-24 0; 24 0; -24 0"/></g><g><path fill="none" stroke="url(#meteoconsExtremeNightHazeFill5)" stroke-linecap="round" stroke-miterlimit="10" stroke-width="24" d="M12 12h30"/><path fill="none" stroke="url(#meteoconsExtremeNightHazeFill6)" stroke-dasharray="60 60" stroke-linecap="round" stroke-miterlimit="10" stroke-width="24" d="M102 12h90"/><path fill="none" stroke="url(#meteoconsExtremeNightHazeFill7)" stroke-linecap="round" stroke-miterlimit="10" stroke-width="24" d="M222 12h30"/><animateTransform additive="sum" attributeName="transform" dur="6s" repeatCount="indefinite" type="translate" values="24 0; -24 0; 24 0"/></g></symbol></defs><use width="398.8" height="246" href="#meteoconsExtremeNightHazeFilld" transform="translate(68 121)"/><use width="264" height="72" href="#meteoconsExtremeNightHazeFille" transform="translate(124 402)"/></svg>