<svg xmlns="http://www.w3.org/2000/svg" viewBox="0 0 512 512"><defs><linearGradient id="meteoconsExtremeNightSmokeFill0" x1="52.7" x2="133.4" y1="9.6" y2="149.3" gradientUnits="userSpaceOnUse"><stop offset="0" stop-color="#9ca3af"/><stop offset=".5" stop-color="#9ca3af"/><stop offset="1" stop-color="#6b7280"/></linearGradient><linearGradient id="meteoconsExtremeNightSmokeFill1" x1="99.5" x2="232.6" y1="30.7" y2="261.4" gradientUnits="userSpaceOnUse"><stop offset="0" stop-color="#6b7280"/><stop offset=".5" stop-color="#6b7280"/><stop offset="1" stop-color="#4b5563"/></linearGradient><linearGradient id="meteoconsExtremeNightSmokeFill2" x1="34.7" x2="119.2" y1="18.6" y2="165" gradientUnits="userSpaceOnUse"><stop offset="0" stop-color="#86c3db"/><stop offset=".5" stop-color="#86c3db"/><stop offset="1" stop-color="#5eafcf"/></linearGradient><linearGradient id="meteoconsExtremeNightSmokeFill3" x1="74" x2="98" y1="165.2" y2="206.8" gradientUnits="userSpaceOnUse"><stop offset="0" stop-color="#b8bdc6"/><stop offset=".5" stop-color="#b8bdc6"/><stop offset="1" stop-color="#a5aab2"/></linearGradient><linearGradient id="meteoconsExtremeNightSmokeFill4" x1="20" x2="56" y1="90.8" y2="153.2" href="#meteoconsExtremeNightSmokeFill3"/><linearGradient id="meteoconsExtremeNightSmokeFill5" x1="94" x2="142" y1="8.4" y2="91.6" href="#meteoconsExtremeNightSmokeFill3"/><symbol id="meteoconsExtremeNightSmokeFill6" viewBox="0 0 172 172"><path fill="url(#meteoconsExtremeNightSmokeFill2)" stroke="#72b9d5" stroke-linecap="round" stroke-linejoin="round" stroke-width="4" d="M160.6 107.4a84.8 84.8 0 0 1-85.4-84.3A83.3 83.3 0 0 1 78 2A84.7 84.7 0 0 0 2 85.7A84.8 84.8 0 0 0 87.4 170a85.2 85.2 0 0 0 82.6-63.1a88 88 0 0 1-9.4.5Z"><animateTransform additive="sum" attributeName="transform" dur="6s" repeatCount="indefinite" type="rotate" values="-15 86 86; 9 86 86; -15 86 86"/></path></symbol><symbol id="meteoconsExtremeNightSmokeFill7" viewBox="0 0 200.3 126.1"><path fill="url(#meteoconsExtremeNightSmokeFill0)" stroke="#848b98" stroke-miterlimit="10" d="M.5 93.2a32.4 32.4 0 0 0 32.4 32.4h129.8v-.1l2.3.1a34.8 34.8 0 0 0 6.5-68.9a32.4 32.4 0 0 0-48.5-33a48.6 48.6 0 0 0-88.6 37.1h-1.5A32.4 32.4 0 0 0 .5 93.1Z"/></symbol><symbol id="meteoconsExtremeNightSmokeFill8" viewBox="0 0 350 222"><path fill="url(#meteoconsExtremeNightSmokeFill1)" stroke="#5b6472" stroke-miterlimit="10" stroke-width="6" d="m291 107l-2.5.1A83.9 83.9 0 0 0 135.6 43A56 56 0 0 0 51 91a56.6 56.6 0 0 0 .8 9A60 60 0 0 0 63 219l4-.2v.2h224a56 56 0 0 0 0-112Z"/></symbol><symbol id="meteoconsExtremeNightSmokeFill9" viewBox="0 0 398 222"><use width="200.3" height="126.1" href="#meteoconsExtremeNightSmokeFill7" transform="translate(198 27)"><animateTransform additive="sum" attributeName="transform" dur="6s" repeatCount="indefinite" type="translate" values="-9 0; 9 0; -9 0"/></use><use width="350" height="222" href="#meteoconsExtremeNightSmokeFill8"><animateTransform additive="sum" attributeName="transform" dur="6s" repeatCount="indefinite" type="translate" values="-18 0; 18 0; -18 0"/></use></symbol><symbol id="meteoconsExtremeNightSmokeFilla" viewBox="0 0 398.8 246"><use width="172" height="172" href="#meteoconsExtremeNightSmokeFill6"/><use width="398" height="222" href="#meteoconsExtremeNightSmokeFill9" transform="translate(.84 24)"/></symbol><symbol id="meteoconsExtremeNightSmokeFillb" viewBox="0 0 168 212"><circle cx="86" cy="186" r="24" fill="url(#meteoconsExtremeNightSmokeFill3)" stroke="#afb4bc" stroke-miterlimit="10" stroke-width="4" opacity="0"><animateTransform id="meteoconsExtremeNightSmokeFillc" additive="sum" attributeName="transform" begin="0s; x1.end+.75s" dur="2.25s" type="translate" values="0 0; -58 -118"/><animate id="meteoconsExtremeNightSmokeFilld" attributeName="r" begin="0s; y1.end+.75s" dur="2.25s" values="24; 36"/><animate id="meteoconsExtremeNightSmokeFille" attributeName="opacity" begin="0s; y1.end+.75s" dur="2.25s" keyTimes="0; .17; .83; 1" values="0; 1; 1; 0"/></circle><circle cx="86" cy="186" r="24" fill="url(#meteoconsExtremeNightSmokeFill3)" stroke="#afb4bc" stroke-miterlimit="10" stroke-width="4" opacity="0"><animateTransform id="meteoconsExtremeNightSmokeFillf" additive="sum" attributeName="transform" begin=".83s; x2.end+.75s" dur="2.25s" type="translate" values="0 0; 58 -118"/><animate id="meteoconsExtremeNightSmokeFillg" attributeName="r" begin=".83s; y2.end+.75s" dur="2.25s" values="24; 36"/><animate id="meteoconsExtremeNightSmokeFillh" attributeName="opacity" begin=".83s; z2.end+.75s" dur="2.25s" keyTimes="0; .17; .83; 1" values="0; 1; 1; 0"/></circle><circle cx="86" cy="186" r="24" fill="url(#meteoconsExtremeNightSmokeFill3)" stroke="#afb4bc" stroke-miterlimit="10" stroke-width="4" opacity="0"><animateTransform id="meteoconsExtremeNightSmokeFilli" additive="sum" attributeName="transform" begin="1.66s; x3.end+.75s" dur="2.25s" type="translate" values="0 0; 0 -118"/><animate id="meteoconsExtremeNightSmokeFillj" attributeName="r" begin="1.66s; y3.end+.75s" dur="2.25s" values="24; 36"/><animate id="meteoconsExtremeNightSmokeFillk" attributeName="opacity" begin="1.66s; z3.end+.75s" dur="2.25s" keyTimes="0; .17; .83; 1" values="0; 1; 1; 0"/></circle></symbol></defs><use width="398.8" height="246" href="#meteoconsExtremeNightSmokeFilla" transform="translate(68 121)"/><use width="168" height="212" href="#meteoconsExtremeNightSmokeFillb" transform="translate(172 232)"/></svg>