<svg xmlns="http://www.w3.org/2000/svg" viewBox="0 0 512 512"><defs><symbol id="meteoconsExtremeSmoke0" viewBox="0 0 214.3 140.1"><path fill="none" stroke="#94a3b8" stroke-linejoin="round" stroke-width="15" d="M7.5 100.2a32.4 32.4 0 0 0 32.4 32.4h129.8v-.1l2.3.1a34.8 34.8 0 0 0 6.5-68.9a32.4 32.4 0 0 0-48.5-33a48.6 48.6 0 0 0-88.6 37.1h-1.5a32.4 32.4 0 0 0-32.4 32.4Z"/></symbol><symbol id="meteoconsExtremeSmoke1" viewBox="0 0 359 231"><path fill="none" stroke="#475569" stroke-linecap="round" stroke-linejoin="round" stroke-width="15" d="M295.5 223.5a56 56 0 0 0 0-112l-2.5.1a83.9 83.9 0 0 0-153-64.2a56 56 0 0 0-84.6 48.1a56.6 56.6 0 0 0 .8 9a60 60 0 0 0 11.2 119"/></symbol><symbol id="meteoconsExtremeSmoke2" viewBox="0 0 447.7 371.5"><g clip-path="url(#meteoconsExtremeSmoked)"><use width="214.3" height="140.1" href="#meteoconsExtremeSmoke0" transform="translate(195.51 165.01)"><animateTransform additive="sum" attributeName="transform" dur="6s" repeatCount="indefinite" type="translate" values="-9 0; 9 0; -9 0"/></use></g><use width="359" height="231" href="#meteoconsExtremeSmoke1" transform="translate(0 140.5)"><animateTransform additive="sum" attributeName="transform" dur="6s" repeatCount="indefinite" type="translate" values="-18 0; 18 0; -18 0"/></use></symbol><symbol id="meteoconsExtremeSmoke3" viewBox="0 0 173 217"><circle cx="88.5" cy="188.5" r="24" fill="none" stroke="#afb4bc" stroke-miterlimit="10" stroke-width="9" opacity="0"><animateTransform id="meteoconsExtremeSmoke4" additive="sum" attributeName="transform" begin="0s; x1.end+.75s" dur="2.25s" type="translate" values="0 0; -58 -118"/><animate id="meteoconsExtremeSmoke5" attributeName="r" begin="0s; y1.end+.75s" dur="2.25s" values="24; 36"/><animate id="meteoconsExtremeSmoke6" attributeName="opacity" begin="0s; y1.end+.75s" dur="2.25s" keyTimes="0; .17; .83; 1" values="0; 1; 1; 0"/></circle><circle cx="88.5" cy="188.5" r="24" fill="none" stroke="#afb4bc" stroke-miterlimit="10" stroke-width="9" opacity="0"><animateTransform id="meteoconsExtremeSmoke7" additive="sum" attributeName="transform" begin=".83s; x2.end+.75s" dur="2.25s" type="translate" values="0 0; 58 -118"/><animate id="meteoconsExtremeSmoke8" attributeName="r" begin=".83s; y2.end+.75s" dur="2.25s" values="24; 36"/><animate id="meteoconsExtremeSmoke9" attributeName="opacity" begin=".83s; z2.end+.75s" dur="2.25s" keyTimes="0; .17; .83; 1" values="0; 1; 1; 0"/></circle><circle cx="88.5" cy="188.5" r="24" fill="none" stroke="#afb4bc" stroke-miterlimit="10" stroke-width="9" opacity="0"><animateTransform id="meteoconsExtremeSmokea" additive="sum" attributeName="transform" begin="1.66s; x3.end+.75s" dur="2.25s" type="translate" values="0 0; 0 -118"/><animate id="meteoconsExtremeSmokeb" attributeName="r" begin="1.66s; y3.end+.75s" dur="2.25s" values="24; 36"/><animate id="meteoconsExtremeSmokec" attributeName="opacity" begin="1.66s; z3.end+.75s" dur="2.25s" keyTimes="0; .17; .83; 1" values="0; 1; 1; 0"/></circle></symbol><clipPath id="meteoconsExtremeSmoked"><path fill="none" d="M351.5 308a56 56 0 0 0-56-56l-2.5.1A83.7 83.7 0 0 0 211.5 148V0h236.2v308Z"><animateTransform additive="sum" attributeName="transform" dur="6s" repeatCount="indefinite" type="translate" values="-18 0; 18 0; -18 0"/></path></clipPath></defs><use width="447.7" height="371.5" href="#meteoconsExtremeSmoke2" transform="translate(64.34)"/><use width="173" height="217" href="#meteoconsExtremeSmoke3" transform="translate(169.5 229.5)"/></svg>