<svg xmlns="http://www.w3.org/2000/svg" viewBox="0 0 512 512"><defs><linearGradient id="meteoconsExtremeRainFill0" x1="52.7" x2="133.4" y1="9.6" y2="149.3" gradientUnits="userSpaceOnUse"><stop offset="0" stop-color="#9ca3af"/><stop offset=".5" stop-color="#9ca3af"/><stop offset="1" stop-color="#6b7280"/></linearGradient><linearGradient id="meteoconsExtremeRainFill1" x1="99.5" x2="232.6" y1="30.7" y2="261.4" gradientUnits="userSpaceOnUse"><stop offset="0" stop-color="#6b7280"/><stop offset=".5" stop-color="#6b7280"/><stop offset="1" stop-color="#4b5563"/></linearGradient><linearGradient id="meteoconsExtremeRainFill2" x1="1381.3" x2="1399.5" y1="-1144.7" y2="-1097.4" gradientTransform="rotate(-9 8002.567 8233.063)" gradientUnits="userSpaceOnUse"><stop offset="0" stop-color="#0b65ed"/><stop offset=".5" stop-color="#0a5ad4"/><stop offset="1" stop-color="#0950bc"/></linearGradient><linearGradient id="meteoconsExtremeRainFill3" x1="1436.7" x2="1454.9" y1="-1137" y2="-1089.7" gradientTransform="rotate(-9 8009.537 8233.037)" href="#meteoconsExtremeRainFill2"/><linearGradient id="meteoconsExtremeRainFill4" x1="1492.1" x2="1510.3" y1="-1129.3" y2="-1082.1" gradientTransform="rotate(-9 8016.566 8233.078)" href="#meteoconsExtremeRainFill2"/><symbol id="meteoconsExtremeRainFill5" viewBox="0 0 200.3 126.1"><path fill="url(#meteoconsExtremeRainFill0)" stroke="#848b98" stroke-miterlimit="10" d="M.5 93.2a32.4 32.4 0 0 0 32.4 32.4h129.8v-.1l2.3.1a34.8 34.8 0 0 0 6.5-68.9a32.4 32.4 0 0 0-48.5-33a48.6 48.6 0 0 0-88.6 37.1h-1.5A32.4 32.4 0 0 0 .5 93.1Z"/></symbol><symbol id="meteoconsExtremeRainFill6" viewBox="0 0 350 222"><path fill="url(#meteoconsExtremeRainFill1)" stroke="#5b6472" stroke-miterlimit="10" stroke-width="6" d="m291 107l-2.5.1A83.9 83.9 0 0 0 135.6 43A56 56 0 0 0 51 91a56.6 56.6 0 0 0 .8 9A60 60 0 0 0 63 219l4-.2v.2h224a56 56 0 0 0 0-112Z"/></symbol><symbol id="meteoconsExtremeRainFill7" viewBox="0 0 398 222"><use width="200.3" height="126.1" href="#meteoconsExtremeRainFill5" transform="translate(198 27)"><animateTransform additive="sum" attributeName="transform" dur="6s" repeatCount="indefinite" type="translate" values="-9 0; 9 0; -9 0"/></use><use width="350" height="222" href="#meteoconsExtremeRainFill6"><animateTransform additive="sum" attributeName="transform" dur="6s" repeatCount="indefinite" type="translate" values="-18 0; 18 0; -18 0"/></use></symbol><symbol id="meteoconsExtremeRainFill8" viewBox="0 0 129 57"><path fill="url(#meteoconsExtremeRainFill2)" stroke="#0a5ad4" stroke-miterlimit="10" d="M8.5 56.5a8 8 0 0 1-8-8v-40a8 8 0 0 1 16 0v40a8 8 0 0 1-8 8Z" opacity="0"><animateTransform id="meteoconsExtremeRainFill9" additive="sum" attributeName="transform" begin="0s; x1.end+.33s" dur=".67s" type="translate" values="0 -60; 0 60"/><animate id="meteoconsExtremeRainFilla" attributeName="opacity" begin="0s; y1.end+.33s" dur=".67s" keyTimes="0; .25; 1" values="0; 1; 0"/></path><path fill="url(#meteoconsExtremeRainFill3)" stroke="#0a5ad4" stroke-miterlimit="10" d="M64.5 56.5a8 8 0 0 1-8-8v-40a8 8 0 0 1 16 0v40a8 8 0 0 1-8 8Z" opacity="0"><animateTransform id="meteoconsExtremeRainFillb" additive="sum" attributeName="transform" begin=".33s; x2.end+.33s" dur=".67s" type="translate" values="0 -60; 0 60"/><animate id="meteoconsExtremeRainFillc" attributeName="opacity" begin=".33s; y2.end+.33s" dur=".67s" keyTimes="0; .25; 1" values="0; 1; 0"/></path><path fill="url(#meteoconsExtremeRainFill4)" stroke="#0a5ad4" stroke-miterlimit="10" d="M120.5 56.5a8 8 0 0 1-8-8v-40a8 8 0 0 1 16 0v40a8 8 0 0 1-8 8Z" opacity="0"><animateTransform id="meteoconsExtremeRainFilld" additive="sum" attributeName="transform" begin="-.33s; x3.end+.33s" dur=".67s" type="translate" values="0 -60; 0 60"/><animate id="meteoconsExtremeRainFille" attributeName="opacity" begin="-.33s; y3.end+.33s" dur=".67s" keyTimes="0; .25; 1" values="0; 1; 0"/></path></symbol></defs><use width="398" height="222" href="#meteoconsExtremeRainFill7" transform="translate(68.84 145)"/><use width="129" height="57" href="#meteoconsExtremeRainFill8" transform="translate(191.5 343.5)"/></svg>