<svg xmlns="http://www.w3.org/2000/svg" viewBox="0 0 512 512"><defs><linearGradient id="meteoconsExtremeNightDrizzleFill0" x1="52.7" x2="133.4" y1="9.6" y2="149.3" gradientUnits="userSpaceOnUse"><stop offset="0" stop-color="#9ca3af"/><stop offset=".5" stop-color="#9ca3af"/><stop offset="1" stop-color="#6b7280"/></linearGradient><linearGradient id="meteoconsExtremeNightDrizzleFill1" x1="99.5" x2="232.6" y1="30.7" y2="261.4" gradientUnits="userSpaceOnUse"><stop offset="0" stop-color="#6b7280"/><stop offset=".5" stop-color="#6b7280"/><stop offset="1" stop-color="#4b5563"/></linearGradient><linearGradient id="meteoconsExtremeNightDrizzleFill2" x1="34.7" x2="119.2" y1="18.6" y2="165" gradientUnits="userSpaceOnUse"><stop offset="0" stop-color="#86c3db"/><stop offset=".5" stop-color="#86c3db"/><stop offset="1" stop-color="#5eafcf"/></linearGradient><linearGradient id="meteoconsExtremeNightDrizzleFill3" x1="1185.8" x2="1195.2" y1="899.5" y2="924.2" gradientTransform="rotate(-9 -2798.005 6929.56)" gradientUnits="userSpaceOnUse"><stop offset="0" stop-color="#0b65ed"/><stop offset=".5" stop-color="#0a5ad4"/><stop offset="1" stop-color="#0950bc"/></linearGradient><linearGradient id="meteoconsExtremeNightDrizzleFill4" x1="1241.1" x2="1250.5" y1="908.3" y2="932.9" href="#meteoconsExtremeNightDrizzleFill3"/><linearGradient id="meteoconsExtremeNightDrizzleFill5" x1="1296.4" x2="1305.8" y1="917" y2="941.7" href="#meteoconsExtremeNightDrizzleFill3"/><symbol id="meteoconsExtremeNightDrizzleFill6" viewBox="0 0 172 172"><path fill="url(#meteoconsExtremeNightDrizzleFill2)" stroke="#72b9d5" stroke-linecap="round" stroke-linejoin="round" stroke-width="4" d="M160.6 107.4a84.8 84.8 0 0 1-85.4-84.3A83.3 83.3 0 0 1 78 2A84.7 84.7 0 0 0 2 85.7A84.8 84.8 0 0 0 87.4 170a85.2 85.2 0 0 0 82.6-63.1a88 88 0 0 1-9.4.5Z"><animateTransform additive="sum" attributeName="transform" dur="6s" repeatCount="indefinite" type="rotate" values="-15 86 86; 9 86 86; -15 86 86"/></path></symbol><symbol id="meteoconsExtremeNightDrizzleFill7" viewBox="0 0 200.3 126.1"><path fill="url(#meteoconsExtremeNightDrizzleFill0)" stroke="#848b98" stroke-miterlimit="10" d="M.5 93.2a32.4 32.4 0 0 0 32.4 32.4h129.8v-.1l2.3.1a34.8 34.8 0 0 0 6.5-68.9a32.4 32.4 0 0 0-48.5-33a48.6 48.6 0 0 0-88.6 37.1h-1.5A32.4 32.4 0 0 0 .5 93.1Z"/></symbol><symbol id="meteoconsExtremeNightDrizzleFill8" viewBox="0 0 350 222"><path fill="url(#meteoconsExtremeNightDrizzleFill1)" stroke="#5b6472" stroke-miterlimit="10" stroke-width="6" d="m291 107l-2.5.1A83.9 83.9 0 0 0 135.6 43A56 56 0 0 0 51 91a56.6 56.6 0 0 0 .8 9A60 60 0 0 0 63 219l4-.2v.2h224a56 56 0 0 0 0-112Z"/></symbol><symbol id="meteoconsExtremeNightDrizzleFill9" viewBox="0 0 398 222"><use width="200.3" height="126.1" href="#meteoconsExtremeNightDrizzleFill7" transform="translate(198 27)"><animateTransform additive="sum" attributeName="transform" dur="6s" repeatCount="indefinite" type="translate" values="-9 0; 9 0; -9 0"/></use><use width="350" height="222" href="#meteoconsExtremeNightDrizzleFill8"><animateTransform additive="sum" attributeName="transform" dur="6s" repeatCount="indefinite" type="translate" values="-18 0; 18 0; -18 0"/></use></symbol><symbol id="meteoconsExtremeNightDrizzleFilla" viewBox="0 0 398.8 246"><use width="172" height="172" href="#meteoconsExtremeNightDrizzleFill6"/><use width="398" height="222" href="#meteoconsExtremeNightDrizzleFill9" transform="translate(.84 24)"/></symbol></defs><use width="398.8" height="246" href="#meteoconsExtremeNightDrizzleFilla" transform="translate(68 121)"/><path fill="url(#meteoconsExtremeNightDrizzleFill3)" stroke="#0a5ad4" stroke-miterlimit="10" d="M200 376a8 8 0 0 1-8-8v-12a8 8 0 0 1 16 0v12a8 8 0 0 1-8 8Z" opacity="0"><animateTransform id="meteoconsExtremeNightDrizzleFillb" additive="sum" attributeName="transform" begin="0s; x1.end+1s" dur="1s" keyTimes="0; .25; 1" type="translate" values="0 -32; 0 -32; 0 120;"/><animate id="meteoconsExtremeNightDrizzleFillc" attributeName="opacity" begin="0s; y1.end+1s" dur="1s" keyTimes="0; .25; 1" values="0; 1; 0"/></path><path fill="url(#meteoconsExtremeNightDrizzleFill4)" stroke="#0a5ad4" stroke-miterlimit="10" d="M256 376a8 8 0 0 1-8-8v-12a8 8 0 0 1 16 0v12a8 8 0 0 1-8 8Z" opacity="0"><animateTransform id="meteoconsExtremeNightDrizzleFilld" additive="sum" attributeName="transform" begin="1.34s; x2.end+1s" dur="1s" keyTimes="0; .25; 1" type="translate" values="0 -32; 0 -32; 0 120;"/><animate id="meteoconsExtremeNightDrizzleFille" attributeName="opacity" begin="1.34s; y2.end+1s" dur="1s" keyTimes="0; .25; 1" values="0; 1; 0"/></path><path fill="url(#meteoconsExtremeNightDrizzleFill5)" stroke="#0a5ad4" stroke-miterlimit="10" d="M312 376a8 8 0 0 1-8-8v-12a8 8 0 0 1 16 0v12a8 8 0 0 1-8 8Z" opacity="0"><animateTransform id="meteoconsExtremeNightDrizzleFillf" additive="sum" attributeName="transform" begin=".67s; x3.end+1s" dur="1s" keyTimes="0; .25; 1" type="translate" values="0 -32; 0 -32; 0 120;"/><animate id="meteoconsExtremeNightDrizzleFillg" attributeName="opacity" begin=".67s; y3.end+1s" dur="1s" keyTimes="0; .25; 1" values="0; 1; 0"/></path></svg>