<svg xmlns="http://www.w3.org/2000/svg" viewBox="0 0 512 512"><defs><symbol id="meteoconsExtremeDaySleet0" viewBox="0 0 193 193"><circle cx="96.5" cy="96.5" r="40" fill="none" stroke="#fbbf24" stroke-miterlimit="10" stroke-width="9"/><path fill="none" stroke="#fbbf24" stroke-linecap="round" stroke-miterlimit="10" stroke-width="9" d="M96.5 29.9V4.5m0 184v-25.4m47.1-113.7l18-18M31.4 161.6l18-18m0-94.2l-18-18m130.2 130.2l-18-18M4.5 96.5h25.4m158.6 0h-25.4"><animateTransform additive="sum" attributeName="transform" dur="6s" repeatCount="indefinite" type="rotate" values="0 96.5 96.5; 45 96.5 96.5"/></path></symbol><symbol id="meteoconsExtremeDaySleet1" viewBox="0 0 214.3 140.1"><path fill="none" stroke="#94a3b8" stroke-linejoin="round" stroke-width="15" d="M7.5 100.2a32.4 32.4 0 0 0 32.4 32.4h129.8v-.1l2.3.1a34.8 34.8 0 0 0 6.5-68.9a32.4 32.4 0 0 0-48.5-33a48.6 48.6 0 0 0-88.6 37.1h-1.5a32.4 32.4 0 0 0-32.4 32.4Z"/></symbol><symbol id="meteoconsExtremeDaySleet2" viewBox="0 0 359 231"><path fill="none" stroke="#475569" stroke-linecap="round" stroke-linejoin="round" stroke-width="15" d="M295.5 223.5a56 56 0 0 0 0-112l-2.5.1a83.9 83.9 0 0 0-153-64.2a56 56 0 0 0-84.6 48.1a56.6 56.6 0 0 0 .8 9a60 60 0 0 0 11.2 119"/></symbol><symbol id="meteoconsExtremeDaySleet3" viewBox="0 0 447.7 371.5"><g clip-path="url(#meteoconsExtremeDaySleetj)"><use width="214.3" height="140.1" href="#meteoconsExtremeDaySleet1" transform="translate(195.51 165.01)"><animateTransform additive="sum" attributeName="transform" dur="6s" repeatCount="indefinite" type="translate" values="-9 0; 9 0; -9 0"/></use></g><use width="359" height="231" href="#meteoconsExtremeDaySleet2" transform="translate(0 140.5)"><animateTransform additive="sum" attributeName="transform" dur="6s" repeatCount="indefinite" type="translate" values="-18 0; 18 0; -18 0"/></use></symbol><symbol id="meteoconsExtremeDaySleet4" viewBox="0 0 512 371.5"><g clip-path="url(#meteoconsExtremeDaySleetk)"><use width="193" height="193" href="#meteoconsExtremeDaySleet0" transform="translate(57.5 110.5)"/></g><use width="447.7" height="371.5" href="#meteoconsExtremeDaySleet3" transform="translate(64.34)"/></symbol><symbol id="meteoconsExtremeDaySleet5" viewBox="0 0 155.2 48"><g><path fill="#86c3db" d="m41.2 30.5l-5.8-3.3a13.7 13.7 0 0 0 0-6.4l5.8-3.3a4 4 0 0 0 1.5-5.5a4 4 0 0 0-5.6-1.5l-5.8 3.3a13.6 13.6 0 0 0-2.6-2a13.8 13.8 0 0 0-3-1.2V4a4 4 0 0 0-8.1 0v6.6a14.3 14.3 0 0 0-5.7 3.2l-5.8-3.3A4 4 0 0 0 .5 12A4 4 0 0 0 2 17.5l5.8 3.3a13.7 13.7 0 0 0 0 6.4L2 30.5A4 4 0 0 0 .5 36a4 4 0 0 0 3.6 2a4 4 0 0 0 2-.5l5.8-3.3a13.6 13.6 0 0 0 2.6 2a13.8 13.8 0 0 0 3 1.2V44a4 4 0 0 0 8 0v-6.6a14.2 14.2 0 0 0 5.8-3.2l5.8 3.3a4 4 0 0 0 2 .5a4 4 0 0 0 3.5-2a4 4 0 0 0-1.4-5.5Zm-22.6-1.3a6 6 0 0 1-2.3-8.2a6.1 6.1 0 0 1 5.3-3a6.2 6.2 0 0 1 3 .8A6 6 0 0 1 27 27a6.1 6.1 0 0 1-8.3 2.2Z" opacity="0"><animateTransform additive="sum" attributeName="transform" dur="6s" repeatCount="indefinite" type="rotate" values="0 24 24; 360 24 24"/><animate id="meteoconsExtremeDaySleet6" attributeName="opacity" begin="0s; t1.end+1s" dur="2s" keyTimes="0; .17; .83; 1" values="0; 1; 1; 0"/></path><animateTransform id="meteoconsExtremeDaySleet7" additive="sum" attributeName="transform" begin="0s; s1.end+1s" dur="2s" type="translate" values="0 -36; 0 92;"/></g><g><path fill="#86c3db" d="m97.2 30.5l-5.8-3.3a13.7 13.7 0 0 0 0-6.4l5.8-3.3a4 4 0 0 0 1.5-5.5a4 4 0 0 0-5.6-1.5l-5.8 3.3a13.6 13.6 0 0 0-2.6-2a13.8 13.8 0 0 0-3-1.2V4a4 4 0 0 0-8.1 0v6.6a14.3 14.3 0 0 0-5.7 3.2l-5.8-3.3a4 4 0 0 0-5.6 1.5a4 4 0 0 0 1.5 5.5l5.8 3.3a13.7 13.7 0 0 0 0 6.4L58 30.5a4 4 0 0 0-1.5 5.5a4 4 0 0 0 3.6 2a4 4 0 0 0 2-.5l5.8-3.3a13.6 13.6 0 0 0 2.6 2a13.8 13.8 0 0 0 3 1.2V44a4 4 0 0 0 8 0v-6.6a14.2 14.2 0 0 0 5.8-3.2l5.8 3.3a4 4 0 0 0 2 .5a4 4 0 0 0 3.5-2a4 4 0 0 0-1.4-5.5Zm-22.6-1.3a6 6 0 0 1-2.3-8.2a6.1 6.1 0 0 1 5.3-3a6.2 6.2 0 0 1 3 .8A6 6 0 0 1 83 27a6.1 6.1 0 0 1-8.3 2.2Z" opacity="0"><animateTransform additive="sum" attributeName="transform" dur="6s" repeatCount="indefinite" type="rotate" values="0 80 24; 360 80 24"/><animate id="meteoconsExtremeDaySleet8" attributeName="opacity" begin="-.83s; t2.end+1s" dur="2s" keyTimes="0; .17; .83; 1" values="0; 1; 1; 0"/></path><animateTransform id="meteoconsExtremeDaySleet9" additive="sum" attributeName="transform" begin="-.83s; s2.end+1s" dur="2s" type="translate" values="0 -36; 0 92;"/></g><g><path fill="#86c3db" d="m153.2 30.5l-5.8-3.3a13.7 13.7 0 0 0 0-6.4l5.8-3.3a4 4 0 0 0 1.5-5.5a4 4 0 0 0-5.6-1.5l-5.8 3.3a13.6 13.6 0 0 0-2.6-2a13.8 13.8 0 0 0-3-1.2V4a4 4 0 0 0-8.1 0v6.6a14.3 14.3 0 0 0-5.7 3.2l-5.8-3.3a4 4 0 0 0-5.6 1.5a4 4 0 0 0 1.5 5.5l5.8 3.3a13.7 13.7 0 0 0 0 6.4l-5.8 3.3a4 4 0 0 0-1.5 5.5a4 4 0 0 0 3.6 2a4 4 0 0 0 2-.5l5.8-3.3a13.6 13.6 0 0 0 2.6 2a13.8 13.8 0 0 0 3 1.2V44a4 4 0 0 0 8 0v-6.6a14.2 14.2 0 0 0 5.8-3.2l5.8 3.3a4 4 0 0 0 2 .5a4 4 0 0 0 3.5-2a4 4 0 0 0-1.4-5.5Zm-22.6-1.3a6 6 0 0 1-2.3-8.2a6.1 6.1 0 0 1 5.3-3a6.2 6.2 0 0 1 3 .8a6 6 0 0 1 2.2 8.2a6.1 6.1 0 0 1-8.2 2.2Z" opacity="0"><animateTransform additive="sum" attributeName="transform" dur="6s" repeatCount="indefinite" type="rotate" values="0 136 24; 360 136 24"/><animate id="meteoconsExtremeDaySleeta" attributeName="opacity" begin=".83s; t3.end+1s" dur="2s" keyTimes="0; .17; .83; 1" values="0; 1; 1; 0"/></path><animateTransform id="meteoconsExtremeDaySleetb" additive="sum" attributeName="transform" begin=".83s; s3.end+1s" dur="2s" type="translate" values="0 -36; 0 92;"/></g></symbol><symbol id="meteoconsExtremeDaySleetc" viewBox="0 0 155.2 48"><use width="155.2" height="48" href="#meteoconsExtremeDaySleet5"/><path fill="#0a5ad4" d="M21.6 38a8 8 0 0 1-8-8V18a8 8 0 0 1 16 0v12a8 8 0 0 1-8 8Z" opacity="0"><animateTransform id="meteoconsExtremeDaySleetd" additive="sum" attributeName="transform" begin="0s; x1.end+1s" dur="1s" keyTimes="0; .25; 1" type="translate" values="0 -32; 0 -32; 0 120;"/><animate id="meteoconsExtremeDaySleete" attributeName="opacity" begin="0s; y1.end+1s" dur="1s" keyTimes="0; .25; 1" values="0; 1; 0"/></path><path fill="#0a5ad4" d="M77.6 38a8 8 0 0 1-8-8V18a8 8 0 0 1 16 0v12a8 8 0 0 1-8 8Z" opacity="0"><animateTransform id="meteoconsExtremeDaySleetf" additive="sum" attributeName="transform" begin="1.34s; x2.end+1s" dur="1s" keyTimes="0; .25; 1" type="translate" values="0 -32; 0 -32; 0 120;"/><animate id="meteoconsExtremeDaySleetg" attributeName="opacity" begin="1.34s; y2.end+1s" dur="1s" keyTimes="0; .25; 1" values="0; 1; 0"/></path><path fill="#0a5ad4" d="M133.6 38a8 8 0 0 1-8-8V18a8 8 0 0 1 16 0v12a8 8 0 0 1-8 8Z" opacity="0"><animateTransform id="meteoconsExtremeDaySleeth" additive="sum" attributeName="transform" begin=".67s; x3.end+1s" dur="1s" keyTimes="0; .25; 1" type="translate" values="0 -32; 0 -32; 0 120;"/><animate id="meteoconsExtremeDaySleeti" attributeName="opacity" begin=".67s; y3.end+1s" dur="1s" keyTimes="0; .25; 1" values="0; 1; 0"/></path></symbol><clipPath id="meteoconsExtremeDaySleetj"><path fill="none" d="M351.5 308a56 56 0 0 0-56-56l-2.5.1A83.7 83.7 0 0 0 211.5 148V0h236.2v308Z"><animateTransform additive="sum" attributeName="transform" dur="6s" repeatCount="indefinite" type="translate" values="-18 0; 18 0; -18 0"/></path></clipPath><clipPath id="meteoconsExtremeDaySleetk"><path fill="none" d="M276 148a83.8 83.8 0 0 0-71.4 40a56 56 0 0 0-84.6 48a56.6 56.6 0 0 0 .8 9A60 60 0 0 0 72 304H0V0h276Z"><animateTransform additive="sum" attributeName="transform" dur="6s" repeatCount="indefinite" type="translate" values="-18 0; 18 0; -18 0"/></path></clipPath></defs><use width="512" height="371.5" href="#meteoconsExtremeDaySleet4"/><use width="155.2" height="48" href="#meteoconsExtremeDaySleetc" transform="translate(178.4 338)"/></svg>