<svg xmlns="http://www.w3.org/2000/svg" viewBox="0 0 512 512"><defs><linearGradient id="meteoconsFogDayFill0" x1="96" x2="168" y1="-2.4" y2="122.3" gradientUnits="userSpaceOnUse"><stop offset="0" stop-color="#d4d7dd"/><stop offset=".5" stop-color="#d4d7dd"/><stop offset="1" stop-color="#bec1c6"/></linearGradient><linearGradient id="meteoconsFogDayFill1" x2="168" y1="-50.4" y2="74.3" href="#meteoconsFogDayFill0"/><linearGradient id="meteoconsFogDayFill2" x1="150" x2="234" y1="119.2" y2="264.8" gradientUnits="userSpaceOnUse"><stop offset="0" stop-color="#fbbf24"/><stop offset=".5" stop-color="#fbbf24"/><stop offset="1" stop-color="#f59e0b"/></linearGradient><symbol id="meteoconsFogDayFill3" viewBox="0 0 384 384"><circle cx="192" cy="192" r="84" fill="url(#meteoconsFogDayFill2)" stroke="#f8af18" stroke-miterlimit="10" stroke-width="6"/><path fill="none" stroke="#fbbf24" stroke-linecap="round" stroke-miterlimit="10" stroke-width="24" d="M192 61.7V12m0 360v-49.7m92.2-222.5l35-35M64.8 319.2l35.1-35.1m0-184.4l-35-35m254.5 254.5l-35.1-35.1M61.7 192H12m360 0h-49.7"><animateTransform additive="sum" attributeName="transform" dur="6s" repeatCount="indefinite" type="rotate" values="0 192 192; 45 192 192"/></path></symbol><symbol id="meteoconsFogDayFill4" viewBox="0 0 264 72"><path fill="none" stroke="url(#meteoconsFogDayFill0)" stroke-linecap="round" stroke-miterlimit="10" stroke-width="24" d="M12 60h240"><animateTransform additive="sum" attributeName="transform" dur="6s" repeatCount="indefinite" type="translate" values="-24 0; 24 0; -24 0"/></path><path fill="none" stroke="url(#meteoconsFogDayFill1)" stroke-linecap="round" stroke-miterlimit="10" stroke-width="24" d="M12 12h240"><animateTransform additive="sum" attributeName="transform" dur="6s" repeatCount="indefinite" type="translate" values="24 0; -24 0; 24 0"/></path></symbol><clipPath id="meteoconsFogDayFill5"><path fill="none" d="M0 0h512v306H0z"/></clipPath></defs><g clip-path="url(#meteoconsFogDayFill5)"><use width="384" height="384" href="#meteoconsFogDayFill3" transform="translate(64 100)"/></g><use width="264" height="72" href="#meteoconsFogDayFill4" transform="translate(124 336)"/></svg>