<svg xmlns="http://www.w3.org/2000/svg" viewBox="0 0 512 512"><defs><linearGradient id="meteoconsHailFill0" x1="99.5" x2="232.6" y1="30.7" y2="261.4" gradientUnits="userSpaceOnUse"><stop offset="0" stop-color="#f3f7fe"/><stop offset=".5" stop-color="#f3f7fe"/><stop offset="1" stop-color="#deeafb"/></linearGradient><linearGradient id="meteoconsHailFill1" x1="6.5" x2="18.5" y1="2.1" y2="22.9" gradientUnits="userSpaceOnUse"><stop offset="0" stop-color="#86c3db"/><stop offset=".5" stop-color="#86c3db"/><stop offset="1" stop-color="#5eafcf"/></linearGradient><linearGradient id="meteoconsHailFill2" x1="62.5" x2="74.5" y1="2.1" y2="22.9" href="#meteoconsHailFill1"/><linearGradient id="meteoconsHailFill3" x1="118.5" x2="130.5" y1="2.1" y2="22.9" href="#meteoconsHailFill1"/><symbol id="meteoconsHailFill4" viewBox="0 0 350 222"><path fill="url(#meteoconsHailFill0)" stroke="#e6effc" stroke-miterlimit="10" stroke-width="6" d="m291 107l-2.5.1A83.9 83.9 0 0 0 135.6 43A56 56 0 0 0 51 91a56.6 56.6 0 0 0 .8 9A60 60 0 0 0 63 219l4-.2v.2h224a56 56 0 0 0 0-112Z"/></symbol><symbol id="meteoconsHailFill5" viewBox="0 0 137 25"><path fill="url(#meteoconsHailFill1)" stroke="#86c3db" stroke-miterlimit="10" d="M12.5.5a12 12 0 1 0 12 12a12 12 0 0 0-12-12Z" opacity="0"><animateTransform id="meteoconsHailFill6" additive="sum" attributeName="transform" begin="0s; x1.end+.42s" dur=".58s" keyTimes="0; .71; 1" type="translate" values="0 -46; 0 86; -18 74"/><animate id="meteoconsHailFill7" attributeName="opacity" begin="0s; y1.end+.42s" dur=".58s" keyTimes="0; .14; .71; 1" values="0; 1; 1; 0"/></path><path fill="url(#meteoconsHailFill2)" stroke="#86c3db" stroke-miterlimit="10" d="M68.5.5a12 12 0 1 0 12 12a12 12 0 0 0-12-12Z" opacity="0"><animateTransform id="meteoconsHailFill8" additive="sum" attributeName="transform" begin=".67s; x2.end+.42s" dur=".58s" keyTimes="0; .71; 1" type="translate" values="0 -46; 0 86; 0 74"/><animate id="meteoconsHailFill9" attributeName="opacity" begin=".67s; y2.end+.42s" dur=".58s" keyTimes="0; .14; .71; 1" values="0; 1; 1; 0"/></path><path fill="url(#meteoconsHailFill3)" stroke="#86c3db" stroke-miterlimit="10" d="M124.5.5a12 12 0 1 0 12 12a12 12 0 0 0-12-12Z" opacity="0"><animateTransform id="meteoconsHailFilla" additive="sum" attributeName="transform" begin=".33s; x3.end+.42s" dur=".58s" keyTimes="0; .71; 1" type="translate" values="0 -46; 0 86; 18 74"/><animate id="meteoconsHailFillb" attributeName="opacity" begin=".33s; y3.end+.42s" dur=".58s" keyTimes="0; .14; .71; 1" values="0; 1; 1; 0"/></path></symbol></defs><use width="350" height="222" href="#meteoconsHailFill4" transform="translate(81 145)"/><use width="137" height="25" href="#meteoconsHailFill5" transform="translate(187.5 349.5)"/></svg>