<svg xmlns="http://www.w3.org/2000/svg" viewBox="0 0 512 512"><defs><symbol id="meteoconsHazeDay0" viewBox="0 0 375 375"><circle cx="187.5" cy="187.5" r="84" fill="none" stroke="#fbbf24" stroke-miterlimit="10" stroke-width="15"/><path fill="none" stroke="#fbbf24" stroke-linecap="round" stroke-miterlimit="10" stroke-width="15" d="M187.5 57.2V7.5m0 360v-49.7m92.2-222.5l35-35M60.3 314.7l35.1-35.1m0-184.4l-35-35m254.5 254.5l-35.1-35.1M57.2 187.5H7.5m360 0h-49.7"><animateTransform additive="sum" attributeName="transform" dur="6s" repeatCount="indefinite" type="rotate" values="0 187.5 187.5; 45 187.5 187.5"/></path></symbol><symbol id="meteoconsHazeDay1" viewBox="0 0 258 66"><g><path fill="none" stroke="#e2e8f0" stroke-linecap="round" stroke-miterlimit="10" stroke-width="18" d="M9 57h30"/><path fill="none" stroke="#e2e8f0" stroke-dasharray="60 60" stroke-linecap="round" stroke-miterlimit="10" stroke-width="18" d="M99 57h90"/><path fill="none" stroke="#e2e8f0" stroke-linecap="round" stroke-miterlimit="10" stroke-width="18" d="M219 57h30"/><animateTransform additive="sum" attributeName="transform" dur="6s" repeatCount="indefinite" type="translate" values="-24 0; 24 0; -24 0"/></g><g><path fill="none" stroke="#e2e8f0" stroke-linecap="round" stroke-miterlimit="10" stroke-width="18" d="M9 9h30"/><path fill="none" stroke="#e2e8f0" stroke-dasharray="60 60" stroke-linecap="round" stroke-miterlimit="10" stroke-width="18" d="M99 9h90"/><path fill="none" stroke="#e2e8f0" stroke-linecap="round" stroke-miterlimit="10" stroke-width="18" d="M219 9h30"/><animateTransform additive="sum" attributeName="transform" dur="6s" repeatCount="indefinite" type="translate" values="24 0; -24 0; 24 0"/></g></symbol><clipPath id="meteoconsHazeDay2"><path fill="none" d="M0 0h512v306H0z"/></clipPath></defs><g clip-path="url(#meteoconsHazeDay2)"><use width="375" height="375" href="#meteoconsHazeDay0" transform="translate(68.5 104.5)"/></g><use width="258" height="66" href="#meteoconsHazeDay1" transform="translate(127 339)"/></svg>