<svg xmlns="http://www.w3.org/2000/svg" viewBox="0 0 512 512"><defs><linearGradient id="meteoconsMoonriseFill0" x1="54.3" x2="187.2" y1="29" y2="259.1" gradientUnits="userSpaceOnUse"><stop offset="0" stop-color="#86c3db"/><stop offset=".5" stop-color="#86c3db"/><stop offset="1" stop-color="#5eafcf"/></linearGradient><clipPath id="meteoconsMoonriseFill1"><path fill="none" d="M512 306H304l-35.9-31.4a18.4 18.4 0 0 0-24.2 0L208 306H0V0h512Z"/></clipPath><symbol id="meteoconsMoonriseFill2" viewBox="0 0 270 270"><path fill="url(#meteoconsMoonriseFill0)" stroke="#72b9d5" stroke-linecap="round" stroke-linejoin="round" stroke-width="6" d="M252.3 168.6A133.4 133.4 0 0 1 118 36.2A130.5 130.5 0 0 1 122.5 3A133 133 0 0 0 3 134.6C3 207.7 63 267 137.2 267c62.5 0 114.8-42.2 129.8-99.2a135.6 135.6 0 0 1-14.8.8Z"><animateTransform additive="sum" attributeName="transform" dur="6s" repeatCount="indefinite" type="rotate" values="-15 135 135; 9 135 135; -15 135 135"/></path></symbol></defs><path fill="none" stroke="#374151" stroke-linecap="round" stroke-linejoin="round" stroke-width="18" d="M128 332h88l40-36l40 36h88"/><g clip-path="url(#meteoconsMoonriseFill1)"><use width="270" height="270" href="#meteoconsMoonriseFill2" transform="translate(121 121)"/></g></svg>