<svg xmlns="http://www.w3.org/2000/svg" viewBox="0 0 512 512"><defs><linearGradient id="meteoconsOvercastNightDrizzleFill0" x1="99.5" x2="232.6" y1="30.7" y2="261.4" gradientUnits="userSpaceOnUse"><stop offset="0" stop-color="#f3f7fe"/><stop offset=".5" stop-color="#f3f7fe"/><stop offset="1" stop-color="#deeafb"/></linearGradient><linearGradient id="meteoconsOvercastNightDrizzleFill1" x1="52.7" x2="133.4" y1="9.6" y2="149.3" gradientUnits="userSpaceOnUse"><stop offset="0" stop-color="#9ca3af"/><stop offset=".5" stop-color="#9ca3af"/><stop offset="1" stop-color="#6b7280"/></linearGradient><linearGradient id="meteoconsOvercastNightDrizzleFill2" x1="34.7" x2="119.2" y1="18.6" y2="165" gradientUnits="userSpaceOnUse"><stop offset="0" stop-color="#86c3db"/><stop offset=".5" stop-color="#86c3db"/><stop offset="1" stop-color="#5eafcf"/></linearGradient><linearGradient id="meteoconsOvercastNightDrizzleFill3" x1="1243.8" x2="1253.3" y1="161.8" y2="186.4" gradientTransform="rotate(-9 1918.027 6929.573)" gradientUnits="userSpaceOnUse"><stop offset="0" stop-color="#0b65ed"/><stop offset=".5" stop-color="#0a5ad4"/><stop offset="1" stop-color="#0950bc"/></linearGradient><linearGradient id="meteoconsOvercastNightDrizzleFill4" x1="1299.1" x2="1308.6" y1="170.5" y2="195.2" href="#meteoconsOvercastNightDrizzleFill3"/><linearGradient id="meteoconsOvercastNightDrizzleFill5" x1="1354.4" x2="1363.9" y1="179.3" y2="203.9" href="#meteoconsOvercastNightDrizzleFill3"/><symbol id="meteoconsOvercastNightDrizzleFill6" viewBox="0 0 172 172"><path fill="url(#meteoconsOvercastNightDrizzleFill2)" stroke="#72b9d5" stroke-linecap="round" stroke-linejoin="round" stroke-width="4" d="M160.6 107.4a84.8 84.8 0 0 1-85.4-84.3A83.3 83.3 0 0 1 78 2A84.7 84.7 0 0 0 2 85.7A84.8 84.8 0 0 0 87.4 170a85.2 85.2 0 0 0 82.6-63.1a88 88 0 0 1-9.4.5Z"><animateTransform additive="sum" attributeName="transform" dur="6s" repeatCount="indefinite" type="rotate" values="-15 86 86; 9 86 86; -15 86 86"/></path></symbol><symbol id="meteoconsOvercastNightDrizzleFill7" viewBox="0 0 200.3 126.1"><path fill="url(#meteoconsOvercastNightDrizzleFill1)" stroke="#848b98" stroke-miterlimit="10" d="M.5 93.2a32.4 32.4 0 0 0 32.4 32.4h129.8v-.1l2.3.1a34.8 34.8 0 0 0 6.5-68.9a32.4 32.4 0 0 0-48.5-33a48.6 48.6 0 0 0-88.6 37.1h-1.5A32.4 32.4 0 0 0 .5 93.1Z"/></symbol><symbol id="meteoconsOvercastNightDrizzleFill8" viewBox="0 0 350 222"><path fill="url(#meteoconsOvercastNightDrizzleFill0)" stroke="#e6effc" stroke-miterlimit="10" stroke-width="6" d="m291 107l-2.5.1A83.9 83.9 0 0 0 135.6 43A56 56 0 0 0 51 91a56.6 56.6 0 0 0 .8 9A60 60 0 0 0 63 219l4-.2v.2h224a56 56 0 0 0 0-112Z"/></symbol><symbol id="meteoconsOvercastNightDrizzleFill9" viewBox="0 0 398 222"><use width="200.3" height="126.1" href="#meteoconsOvercastNightDrizzleFill7" transform="translate(198 27)"><animateTransform additive="sum" attributeName="transform" dur="6s" repeatCount="indefinite" type="translate" values="-9 0; 9 0; -9 0"/></use><use width="350" height="222" href="#meteoconsOvercastNightDrizzleFill8"><animateTransform additive="sum" attributeName="transform" dur="6s" repeatCount="indefinite" type="translate" values="-18 0; 18 0; -18 0"/></use></symbol><symbol id="meteoconsOvercastNightDrizzleFilla" viewBox="0 0 398.8 246"><use width="172" height="172" href="#meteoconsOvercastNightDrizzleFill6"/><use width="398" height="222" href="#meteoconsOvercastNightDrizzleFill9" transform="translate(.84 24)"/></symbol></defs><use width="398.8" height="246" href="#meteoconsOvercastNightDrizzleFilla" transform="translate(68 121)"/><path fill="url(#meteoconsOvercastNightDrizzleFill3)" stroke="#0a5ad4" stroke-miterlimit="10" d="M200 376a8 8 0 0 1-8-8v-12a8 8 0 0 1 16 0v12a8 8 0 0 1-8 8Z" opacity="0"><animateTransform id="meteoconsOvercastNightDrizzleFillb" additive="sum" attributeName="transform" begin="0s; x1.end+1s" dur="1s" keyTimes="0; .25; 1" type="translate" values="0 -32; 0 -32; 0 120;"/><animate id="meteoconsOvercastNightDrizzleFillc" attributeName="opacity" begin="0s; y1.end+1s" dur="1s" keyTimes="0; .25; 1" values="0; 1; 0"/></path><path fill="url(#meteoconsOvercastNightDrizzleFill4)" stroke="#0a5ad4" stroke-miterlimit="10" d="M256 376a8 8 0 0 1-8-8v-12a8 8 0 0 1 16 0v12a8 8 0 0 1-8 8Z" opacity="0"><animateTransform id="meteoconsOvercastNightDrizzleFilld" additive="sum" attributeName="transform" begin="1.34s; x2.end+1s" dur="1s" keyTimes="0; .25; 1" type="translate" values="0 -32; 0 -32; 0 120;"/><animate id="meteoconsOvercastNightDrizzleFille" attributeName="opacity" begin="1.34s; y2.end+1s" dur="1s" keyTimes="0; .25; 1" values="0; 1; 0"/></path><path fill="url(#meteoconsOvercastNightDrizzleFill5)" stroke="#0a5ad4" stroke-miterlimit="10" d="M312 376a8 8 0 0 1-8-8v-12a8 8 0 0 1 16 0v12a8 8 0 0 1-8 8Z" opacity="0"><animateTransform id="meteoconsOvercastNightDrizzleFillf" additive="sum" attributeName="transform" begin=".67s; x3.end+1s" dur="1s" keyTimes="0; .25; 1" type="translate" values="0 -32; 0 -32; 0 120;"/><animate id="meteoconsOvercastNightDrizzleFillg" attributeName="opacity" begin=".67s; y3.end+1s" dur="1s" keyTimes="0; .25; 1" values="0; 1; 0"/></path></svg>