<svg xmlns="http://www.w3.org/2000/svg" viewBox="0 0 512 512"><defs><symbol id="meteoconsOvercastDayHail0" viewBox="0 0 193 193"><circle cx="96.5" cy="96.5" r="40" fill="none" stroke="#fbbf24" stroke-miterlimit="10" stroke-width="9"/><path fill="none" stroke="#fbbf24" stroke-linecap="round" stroke-miterlimit="10" stroke-width="9" d="M96.5 29.9V4.5m0 184v-25.4m47.1-113.7l18-18M31.4 161.6l18-18m0-94.2l-18-18m130.2 130.2l-18-18M4.5 96.5h25.4m158.6 0h-25.4"><animateTransform additive="sum" attributeName="transform" dur="6s" repeatCount="indefinite" type="rotate" values="0 96.5 96.5; 45 96.5 96.5"/></path></symbol><symbol id="meteoconsOvercastDayHail1" viewBox="0 0 214.3 140.1"><path fill="none" stroke="#94a3b8" stroke-linejoin="round" stroke-width="15" d="M7.5 100.2a32.4 32.4 0 0 0 32.4 32.4h129.8v-.1l2.3.1a34.8 34.8 0 0 0 6.5-68.9a32.4 32.4 0 0 0-48.5-33a48.6 48.6 0 0 0-88.6 37.1h-1.5a32.4 32.4 0 0 0-32.4 32.4Z"/></symbol><symbol id="meteoconsOvercastDayHail2" viewBox="0 0 359 231"><path fill="none" stroke="#e2e8f0" stroke-linecap="round" stroke-linejoin="round" stroke-width="15" d="M295.5 223.5a56 56 0 0 0 0-112l-2.5.1a83.9 83.9 0 0 0-153-64.2a56 56 0 0 0-84.6 48.1a56.6 56.6 0 0 0 .8 9a60 60 0 0 0 11.2 119"/></symbol><symbol id="meteoconsOvercastDayHail3" viewBox="0 0 447.7 371.5"><g clip-path="url(#meteoconsOvercastDayHailc)"><use width="214.3" height="140.1" href="#meteoconsOvercastDayHail1" transform="translate(195.51 165.01)"><animateTransform additive="sum" attributeName="transform" dur="6s" repeatCount="indefinite" type="translate" values="-9 0; 9 0; -9 0"/></use></g><use width="359" height="231" href="#meteoconsOvercastDayHail2" transform="translate(0 140.5)"><animateTransform additive="sum" attributeName="transform" dur="6s" repeatCount="indefinite" type="translate" values="-18 0; 18 0; -18 0"/></use></symbol><symbol id="meteoconsOvercastDayHail4" viewBox="0 0 512 371.5"><g clip-path="url(#meteoconsOvercastDayHaild)"><use width="193" height="193" href="#meteoconsOvercastDayHail0" transform="translate(57.5 110.5)"/></g><use width="447.7" height="371.5" href="#meteoconsOvercastDayHail3" transform="translate(64.34)"/></symbol><symbol id="meteoconsOvercastDayHail5" viewBox="0 0 136 24"><path fill="#86c3db" d="M12 0a12 12 0 1 0 12 12A12 12 0 0 0 12 0Z" opacity="0"><animateTransform id="meteoconsOvercastDayHail6" additive="sum" attributeName="transform" begin="0s; x1.end+.42s" dur=".58s" keyTimes="0; .71; 1" type="translate" values="0 -46; 0 86; -18 74"/><animate id="meteoconsOvercastDayHail7" attributeName="opacity" begin="0s; y1.end+.42s" dur=".58s" keyTimes="0; .14; .71; 1" values="0; 1; 1; 0"/></path><path fill="#86c3db" d="M68 0a12 12 0 1 0 12 12A12 12 0 0 0 68 0Z" opacity="0"><animateTransform id="meteoconsOvercastDayHail8" additive="sum" attributeName="transform" begin=".67s; x2.end+.42s" dur=".58s" keyTimes="0; .71; 1" type="translate" values="0 -46; 0 86; 0 74"/><animate id="meteoconsOvercastDayHail9" attributeName="opacity" begin=".67s; y2.end+.42s" dur=".58s" keyTimes="0; .14; .71; 1" values="0; 1; 1; 0"/></path><path fill="#86c3db" d="M124 0a12 12 0 1 0 12 12a12 12 0 0 0-12-12Z" opacity="0"><animateTransform id="meteoconsOvercastDayHaila" additive="sum" attributeName="transform" begin=".33s; x3.end+.42s" dur=".58s" keyTimes="0; .71; 1" type="translate" values="0 -46; 0 86; 18 74"/><animate id="meteoconsOvercastDayHailb" attributeName="opacity" begin=".33s; y3.end+.42s" dur=".58s" keyTimes="0; .14; .71; 1" values="0; 1; 1; 0"/></path></symbol><clipPath id="meteoconsOvercastDayHailc"><path fill="none" d="M351.5 308a56 56 0 0 0-56-56l-2.5.1A83.7 83.7 0 0 0 211.5 148V0h236.2v308Z"><animateTransform additive="sum" attributeName="transform" dur="6s" repeatCount="indefinite" type="translate" values="-18 0; 18 0; -18 0"/></path></clipPath><clipPath id="meteoconsOvercastDayHaild"><path fill="none" d="M276 148a83.8 83.8 0 0 0-71.4 40a56 56 0 0 0-84.6 48a56.6 56.6 0 0 0 .8 9A60 60 0 0 0 72 304H0V0h276Z"><animateTransform additive="sum" attributeName="transform" dur="6s" repeatCount="indefinite" type="translate" values="-18 0; 18 0; -18 0"/></path></clipPath></defs><use width="512" height="371.5" href="#meteoconsOvercastDayHail4"/><use width="136" height="24" href="#meteoconsOvercastDayHail5" transform="translate(188 350)"/></svg>