<svg xmlns="http://www.w3.org/2000/svg" viewBox="0 0 512 512"><defs><linearGradient id="meteoconsOvercastDayHazeFill0" x1="99.5" x2="232.6" y1="30.7" y2="261.4" gradientUnits="userSpaceOnUse"><stop offset="0" stop-color="#f3f7fe"/><stop offset=".5" stop-color="#f3f7fe"/><stop offset="1" stop-color="#deeafb"/></linearGradient><linearGradient id="meteoconsOvercastDayHazeFill1" x1="52.7" x2="133.4" y1="9.6" y2="149.3" gradientUnits="userSpaceOnUse"><stop offset="0" stop-color="#9ca3af"/><stop offset=".5" stop-color="#9ca3af"/><stop offset="1" stop-color="#6b7280"/></linearGradient><linearGradient id="meteoconsOvercastDayHazeFill2" x1="17.3" x2="89.3" y1="43.1" y2="167.8" gradientUnits="userSpaceOnUse"><stop offset="0" stop-color="#d4d7dd"/><stop offset=".5" stop-color="#d4d7dd"/><stop offset="1" stop-color="#bec1c6"/></linearGradient><linearGradient id="meteoconsOvercastDayHazeFill3" x1="107.3" x2="179.3" y1="-8.8" y2="115.9" href="#meteoconsOvercastDayHazeFill2"/><linearGradient id="meteoconsOvercastDayHazeFill4" x1="174.8" x2="246.8" y1="-47.8" y2="76.9" href="#meteoconsOvercastDayHazeFill2"/><linearGradient id="meteoconsOvercastDayHazeFill5" x2="89.3" y1="-4.9" y2="119.8" href="#meteoconsOvercastDayHazeFill2"/><linearGradient id="meteoconsOvercastDayHazeFill6" x1="107.3" x2="179.3" y1="-56.9" y2="67.9" href="#meteoconsOvercastDayHazeFill2"/><linearGradient id="meteoconsOvercastDayHazeFill7" x1="174.8" x2="246.8" y1="-95.8" y2="28.9" href="#meteoconsOvercastDayHazeFill2"/><linearGradient id="meteoconsOvercastDayHazeFill8" x1="78" x2="118" y1="63.4" y2="132.7" gradientUnits="userSpaceOnUse"><stop offset="0" stop-color="#fbbf24"/><stop offset=".5" stop-color="#fbbf24"/><stop offset="1" stop-color="#f59e0b"/></linearGradient><symbol id="meteoconsOvercastDayHazeFill9" viewBox="0 0 196 196"><circle cx="98" cy="98" r="40" fill="url(#meteoconsOvercastDayHazeFill8)" stroke="#f8af18" stroke-miterlimit="10" stroke-width="4"/><path fill="none" stroke="#fbbf24" stroke-linecap="round" stroke-miterlimit="10" stroke-width="12" d="M98 31.4V6m0 184v-25.4M145.1 51l18-17.9M33 163l18-17.9M51 51L33 33m130.1 130.1l-18-18M6 98h25.4M190 98h-25.4"><animateTransform additive="sum" attributeName="transform" dur="6s" repeatCount="indefinite" type="rotate" values="0 98 98; 45 98 98"/></path></symbol><symbol id="meteoconsOvercastDayHazeFilla" viewBox="0 0 200.3 126.1"><path fill="url(#meteoconsOvercastDayHazeFill1)" stroke="#848b98" stroke-miterlimit="10" d="M.5 93.2a32.4 32.4 0 0 0 32.4 32.4h129.8v-.1l2.3.1a34.8 34.8 0 0 0 6.5-68.9a32.4 32.4 0 0 0-48.5-33a48.6 48.6 0 0 0-88.6 37.1h-1.5A32.4 32.4 0 0 0 .5 93.1Z"/></symbol><symbol id="meteoconsOvercastDayHazeFillb" viewBox="0 0 350 222"><path fill="url(#meteoconsOvercastDayHazeFill0)" stroke="#e6effc" stroke-miterlimit="10" stroke-width="6" d="m291 107l-2.5.1A83.9 83.9 0 0 0 135.6 43A56 56 0 0 0 51 91a56.6 56.6 0 0 0 .8 9A60 60 0 0 0 63 219l4-.2v.2h224a56 56 0 0 0 0-112Z"/></symbol><symbol id="meteoconsOvercastDayHazeFillc" viewBox="0 0 398 222"><use width="200.3" height="126.1" href="#meteoconsOvercastDayHazeFilla" transform="translate(198 27)"><animateTransform additive="sum" attributeName="transform" dur="6s" repeatCount="indefinite" type="translate" values="-9 0; 9 0; -9 0"/></use><use width="350" height="222" href="#meteoconsOvercastDayHazeFillb"><animateTransform additive="sum" attributeName="transform" dur="6s" repeatCount="indefinite" type="translate" values="-18 0; 18 0; -18 0"/></use></symbol><symbol id="meteoconsOvercastDayHazeFilld" viewBox="0 0 410.8 258"><use width="196" height="196" href="#meteoconsOvercastDayHazeFill9"/><use width="398" height="222" href="#meteoconsOvercastDayHazeFillc" transform="translate(12.84 36)"/></symbol><symbol id="meteoconsOvercastDayHazeFille" viewBox="0 0 264 72"><g><path fill="none" stroke="url(#meteoconsOvercastDayHazeFill2)" stroke-linecap="round" stroke-miterlimit="10" stroke-width="24" d="M12 60h30"/><path fill="none" stroke="url(#meteoconsOvercastDayHazeFill3)" stroke-dasharray="60 60" stroke-linecap="round" stroke-miterlimit="10" stroke-width="24" d="M102 60h90"/><path fill="none" stroke="url(#meteoconsOvercastDayHazeFill4)" stroke-linecap="round" stroke-miterlimit="10" stroke-width="24" d="M222 60h30"/><animateTransform additive="sum" attributeName="transform" dur="6s" repeatCount="indefinite" type="translate" values="-24 0; 24 0; -24 0"/></g><g><path fill="none" stroke="url(#meteoconsOvercastDayHazeFill5)" stroke-linecap="round" stroke-miterlimit="10" stroke-width="24" d="M12 12h30"/><path fill="none" stroke="url(#meteoconsOvercastDayHazeFill6)" stroke-dasharray="60 60" stroke-linecap="round" stroke-miterlimit="10" stroke-width="24" d="M102 12h90"/><path fill="none" stroke="url(#meteoconsOvercastDayHazeFill7)" stroke-linecap="round" stroke-miterlimit="10" stroke-width="24" d="M222 12h30"/><animateTransform additive="sum" attributeName="transform" dur="6s" repeatCount="indefinite" type="translate" values="24 0; -24 0; 24 0"/></g></symbol></defs><use width="410.8" height="258" href="#meteoconsOvercastDayHazeFilld" transform="translate(56 109)"/><use width="264" height="72" href="#meteoconsOvercastDayHazeFille" transform="translate(124 402)"/></svg>