<svg xmlns="http://www.w3.org/2000/svg" viewBox="0 0 512 512"><defs><symbol id="meteoconsOvercastNight0" viewBox="0 0 178 178"><path fill="none" stroke="#72b9d5" stroke-linecap="round" stroke-linejoin="round" stroke-width="10" d="M163.6 110.4a84.8 84.8 0 0 1-85.4-84.3A83.3 83.3 0 0 1 81 5A84.7 84.7 0 0 0 5 88.7A84.8 84.8 0 0 0 90.4 173a85.2 85.2 0 0 0 82.6-63.1a88 88 0 0 1-9.4.5Z"><animateTransform additive="sum" attributeName="transform" dur="6s" repeatCount="indefinite" type="rotate" values="-15 86 86; 9 86 86; -15 86 86"/></path></symbol><symbol id="meteoconsOvercastNight1" viewBox="0 0 214.3 140.1"><path fill="none" stroke="#94a3b8" stroke-linejoin="round" stroke-width="15" d="M7.5 100.2a32.4 32.4 0 0 0 32.4 32.4h129.8v-.1l2.3.1a34.8 34.8 0 0 0 6.5-68.9a32.4 32.4 0 0 0-48.5-33a48.6 48.6 0 0 0-88.6 37.1h-1.5a32.4 32.4 0 0 0-32.4 32.4Z"/></symbol><symbol id="meteoconsOvercastNight2" viewBox="0 0 359 231"><path fill="none" stroke="#e2e8f0" stroke-linecap="round" stroke-linejoin="round" stroke-width="15" d="M295.5 223.5a56 56 0 0 0 0-112l-2.5.1a83.9 83.9 0 0 0-153-64.2a56 56 0 0 0-84.6 48.1a56.6 56.6 0 0 0 .8 9a60 60 0 0 0 11.2 119"/></symbol><symbol id="meteoconsOvercastNight3" viewBox="0 0 447.7 371.5"><g clip-path="url(#meteoconsOvercastNight5)"><use width="214.3" height="140.1" href="#meteoconsOvercastNight1" transform="translate(195.51 165.01)"><animateTransform additive="sum" attributeName="transform" dur="6s" repeatCount="indefinite" type="translate" values="-9 0; 9 0; -9 0"/></use></g><use width="359" height="231" href="#meteoconsOvercastNight2" transform="translate(0 140.5)"><animateTransform additive="sum" attributeName="transform" dur="6s" repeatCount="indefinite" type="translate" values="-18 0; 18 0; -18 0"/></use></symbol><symbol id="meteoconsOvercastNight4" viewBox="0 0 512 371.5"><g clip-path="url(#meteoconsOvercastNight6)"><use width="178" height="178" href="#meteoconsOvercastNight0" transform="translate(65 118)"/></g><use width="447.7" height="371.5" href="#meteoconsOvercastNight3" transform="translate(64.34)"/></symbol><clipPath id="meteoconsOvercastNight5"><path fill="none" d="M351.5 308a56 56 0 0 0-56-56l-2.5.1A83.7 83.7 0 0 0 211.5 148V0h236.2v308Z"><animateTransform additive="sum" attributeName="transform" dur="6s" repeatCount="indefinite" type="translate" values="-18 0; 18 0; -18 0"/></path></clipPath><clipPath id="meteoconsOvercastNight6"><path fill="none" d="M276 148a83.8 83.8 0 0 0-71.4 40a56 56 0 0 0-84.6 48a56.6 56.6 0 0 0 .8 9A60 60 0 0 0 72 304H0V0h276Z"><animateTransform additive="sum" attributeName="transform" dur="6s" repeatCount="indefinite" type="translate" values="-18 0; 18 0; -18 0"/></path></clipPath></defs><use width="512" height="371.5" href="#meteoconsOvercastNight4"/></svg>