<svg xmlns="http://www.w3.org/2000/svg" viewBox="0 0 512 512"><defs><linearGradient id="meteoconsOvercastFogFill0" x1="99.5" x2="232.6" y1="30.7" y2="261.4" gradientUnits="userSpaceOnUse"><stop offset="0" stop-color="#f3f7fe"/><stop offset=".5" stop-color="#f3f7fe"/><stop offset="1" stop-color="#deeafb"/></linearGradient><linearGradient id="meteoconsOvercastFogFill1" x1="52.7" x2="133.4" y1="9.6" y2="149.3" gradientUnits="userSpaceOnUse"><stop offset="0" stop-color="#9ca3af"/><stop offset=".5" stop-color="#9ca3af"/><stop offset="1" stop-color="#6b7280"/></linearGradient><linearGradient id="meteoconsOvercastFogFill2" x1="96" x2="168" y1="-2.4" y2="122.3" gradientUnits="userSpaceOnUse"><stop offset="0" stop-color="#d4d7dd"/><stop offset=".5" stop-color="#d4d7dd"/><stop offset="1" stop-color="#bec1c6"/></linearGradient><linearGradient id="meteoconsOvercastFogFill3" x2="168" y1="-50.4" y2="74.3" href="#meteoconsOvercastFogFill2"/><symbol id="meteoconsOvercastFogFill4" viewBox="0 0 200.3 126.1"><path fill="url(#meteoconsOvercastFogFill1)" stroke="#848b98" stroke-miterlimit="10" d="M.5 93.2a32.4 32.4 0 0 0 32.4 32.4h129.8v-.1l2.3.1a34.8 34.8 0 0 0 6.5-68.9a32.4 32.4 0 0 0-48.5-33a48.6 48.6 0 0 0-88.6 37.1h-1.5A32.4 32.4 0 0 0 .5 93.1Z"/></symbol><symbol id="meteoconsOvercastFogFill5" viewBox="0 0 350 222"><path fill="url(#meteoconsOvercastFogFill0)" stroke="#e6effc" stroke-miterlimit="10" stroke-width="6" d="m291 107l-2.5.1A83.9 83.9 0 0 0 135.6 43A56 56 0 0 0 51 91a56.6 56.6 0 0 0 .8 9A60 60 0 0 0 63 219l4-.2v.2h224a56 56 0 0 0 0-112Z"/></symbol><symbol id="meteoconsOvercastFogFill6" viewBox="0 0 398 222"><use width="200.3" height="126.1" href="#meteoconsOvercastFogFill4" transform="translate(198 27)"><animateTransform additive="sum" attributeName="transform" dur="6s" repeatCount="indefinite" type="translate" values="-9 0; 9 0; -9 0"/></use><use width="350" height="222" href="#meteoconsOvercastFogFill5"><animateTransform additive="sum" attributeName="transform" dur="6s" repeatCount="indefinite" type="translate" values="-18 0; 18 0; -18 0"/></use></symbol><symbol id="meteoconsOvercastFogFill7" viewBox="0 0 264 72"><path fill="none" stroke="url(#meteoconsOvercastFogFill2)" stroke-linecap="round" stroke-miterlimit="10" stroke-width="24" d="M12 60h240"><animateTransform additive="sum" attributeName="transform" dur="6s" repeatCount="indefinite" type="translate" values="-24 0; 24 0; -24 0"/></path><path fill="none" stroke="url(#meteoconsOvercastFogFill3)" stroke-linecap="round" stroke-miterlimit="10" stroke-width="24" d="M12 12h240"><animateTransform additive="sum" attributeName="transform" dur="6s" repeatCount="indefinite" type="translate" values="24 0; -24 0; 24 0"/></path></symbol></defs><use width="398" height="222" href="#meteoconsOvercastFogFill6" transform="translate(68.84 145)"/><use width="264" height="72" href="#meteoconsOvercastFogFill7" transform="translate(124 402)"/></svg>