<svg xmlns="http://www.w3.org/2000/svg" viewBox="0 0 512 512"><defs><linearGradient id="meteoconsOvercastHailFill0" x1="99.5" x2="232.6" y1="30.7" y2="261.4" gradientUnits="userSpaceOnUse"><stop offset="0" stop-color="#f3f7fe"/><stop offset=".5" stop-color="#f3f7fe"/><stop offset="1" stop-color="#deeafb"/></linearGradient><linearGradient id="meteoconsOvercastHailFill1" x1="52.7" x2="133.4" y1="9.6" y2="149.3" gradientUnits="userSpaceOnUse"><stop offset="0" stop-color="#9ca3af"/><stop offset=".5" stop-color="#9ca3af"/><stop offset="1" stop-color="#6b7280"/></linearGradient><linearGradient id="meteoconsOvercastHailFill2" x1="6.5" x2="18.5" y1="2.1" y2="22.9" gradientUnits="userSpaceOnUse"><stop offset="0" stop-color="#86c3db"/><stop offset=".5" stop-color="#86c3db"/><stop offset="1" stop-color="#5eafcf"/></linearGradient><linearGradient id="meteoconsOvercastHailFill3" x1="62.5" x2="74.5" y1="2.1" y2="22.9" href="#meteoconsOvercastHailFill2"/><linearGradient id="meteoconsOvercastHailFill4" x1="118.5" x2="130.5" y1="2.1" y2="22.9" href="#meteoconsOvercastHailFill2"/><symbol id="meteoconsOvercastHailFill5" viewBox="0 0 200.3 126.1"><path fill="url(#meteoconsOvercastHailFill1)" stroke="#848b98" stroke-miterlimit="10" d="M.5 93.2a32.4 32.4 0 0 0 32.4 32.4h129.8v-.1l2.3.1a34.8 34.8 0 0 0 6.5-68.9a32.4 32.4 0 0 0-48.5-33a48.6 48.6 0 0 0-88.6 37.1h-1.5A32.4 32.4 0 0 0 .5 93.1Z"/></symbol><symbol id="meteoconsOvercastHailFill6" viewBox="0 0 350 222"><path fill="url(#meteoconsOvercastHailFill0)" stroke="#e6effc" stroke-miterlimit="10" stroke-width="6" d="m291 107l-2.5.1A83.9 83.9 0 0 0 135.6 43A56 56 0 0 0 51 91a56.6 56.6 0 0 0 .8 9A60 60 0 0 0 63 219l4-.2v.2h224a56 56 0 0 0 0-112Z"/></symbol><symbol id="meteoconsOvercastHailFill7" viewBox="0 0 398 222"><use width="200.3" height="126.1" href="#meteoconsOvercastHailFill5" transform="translate(198 27)"><animateTransform additive="sum" attributeName="transform" dur="6s" repeatCount="indefinite" type="translate" values="-9 0; 9 0; -9 0"/></use><use width="350" height="222" href="#meteoconsOvercastHailFill6"><animateTransform additive="sum" attributeName="transform" dur="6s" repeatCount="indefinite" type="translate" values="-18 0; 18 0; -18 0"/></use></symbol><symbol id="meteoconsOvercastHailFill8" viewBox="0 0 137 25"><path fill="url(#meteoconsOvercastHailFill2)" stroke="#86c3db" stroke-miterlimit="10" d="M12.5.5a12 12 0 1 0 12 12a12 12 0 0 0-12-12Z" opacity="0"><animateTransform id="meteoconsOvercastHailFill9" additive="sum" attributeName="transform" begin="0s; x1.end+.42s" dur=".58s" keyTimes="0; .71; 1" type="translate" values="0 -46; 0 86; -18 74"/><animate id="meteoconsOvercastHailFilla" attributeName="opacity" begin="0s; y1.end+.42s" dur=".58s" keyTimes="0; .14; .71; 1" values="0; 1; 1; 0"/></path><path fill="url(#meteoconsOvercastHailFill3)" stroke="#86c3db" stroke-miterlimit="10" d="M68.5.5a12 12 0 1 0 12 12a12 12 0 0 0-12-12Z" opacity="0"><animateTransform id="meteoconsOvercastHailFillb" additive="sum" attributeName="transform" begin=".67s; x2.end+.42s" dur=".58s" keyTimes="0; .71; 1" type="translate" values="0 -46; 0 86; 0 74"/><animate id="meteoconsOvercastHailFillc" attributeName="opacity" begin=".67s; y2.end+.42s" dur=".58s" keyTimes="0; .14; .71; 1" values="0; 1; 1; 0"/></path><path fill="url(#meteoconsOvercastHailFill4)" stroke="#86c3db" stroke-miterlimit="10" d="M124.5.5a12 12 0 1 0 12 12a12 12 0 0 0-12-12Z" opacity="0"><animateTransform id="meteoconsOvercastHailFilld" additive="sum" attributeName="transform" begin=".33s; x3.end+.42s" dur=".58s" keyTimes="0; .71; 1" type="translate" values="0 -46; 0 86; 18 74"/><animate id="meteoconsOvercastHailFille" attributeName="opacity" begin=".33s; y3.end+.42s" dur=".58s" keyTimes="0; .14; .71; 1" values="0; 1; 1; 0"/></path></symbol></defs><use width="398" height="222" href="#meteoconsOvercastHailFill7" transform="translate(68.84 145)"/><use width="137" height="25" href="#meteoconsOvercastHailFill8" transform="translate(187.5 349.5)"/></svg>