<svg xmlns="http://www.w3.org/2000/svg" viewBox="0 0 512 512"><defs><symbol id="meteoconsPartlyCloudyNightDrizzle0" viewBox="0 0 178 178"><path fill="none" stroke="#72b9d5" stroke-linecap="round" stroke-linejoin="round" stroke-width="10" d="M163.6 110.4a84.8 84.8 0 0 1-85.4-84.3A83.3 83.3 0 0 1 81 5A84.7 84.7 0 0 0 5 88.7A84.8 84.8 0 0 0 90.4 173a85.2 85.2 0 0 0 82.6-63.1a88 88 0 0 1-9.4.5Z"/></symbol><symbol id="meteoconsPartlyCloudyNightDrizzle1" viewBox="0 0 359 231"><path fill="none" stroke="#e2e8f0" stroke-linecap="round" stroke-linejoin="round" stroke-width="15" d="M295.5 223.5a56 56 0 0 0 0-112l-2.5.1a83.9 83.9 0 0 0-153-64.2a56 56 0 0 0-84.6 48.1a56.6 56.6 0 0 0 .8 9a60 60 0 0 0 11.2 119"/></symbol><symbol id="meteoconsPartlyCloudyNightDrizzle2" viewBox="0 0 435.5 371.5"><g clip-path="url(#meteoconsPartlyCloudyNightDrizzle3)"><use width="178" height="178" href="#meteoconsPartlyCloudyNightDrizzle0" transform="translate(77 118)"><animateTransform additive="sum" attributeName="transform" dur="6s" repeatCount="indefinite" type="rotate" values="-15 86 86; 9 86 86; -15 86 86"/></use></g><use width="359" height="231" href="#meteoconsPartlyCloudyNightDrizzle1" transform="translate(76.5 140.5)"/></symbol><clipPath id="meteoconsPartlyCloudyNightDrizzle3"><path fill="none" d="M288 148a83.8 83.8 0 0 0-71.4 40a56 56 0 0 0-84.6 48a56.6 56.6 0 0 0 .8 9A60 60 0 0 0 84 304H0V0h288Z"/></clipPath></defs><use width="435.5" height="371.5" href="#meteoconsPartlyCloudyNightDrizzle2"/><path fill="#0a5ad4" d="M200 376a8 8 0 0 1-8-8v-12a8 8 0 0 1 16 0v12a8 8 0 0 1-8 8Z" opacity="0"><animateTransform id="meteoconsPartlyCloudyNightDrizzle4" additive="sum" attributeName="transform" begin="0s; x1.end+1s" dur="1s" keyTimes="0; .25; 1" type="translate" values="0 -32; 0 -32; 0 120;"/><animate id="meteoconsPartlyCloudyNightDrizzle5" attributeName="opacity" begin="0s; y1.end+1s" dur="1s" keyTimes="0; .25; 1" values="0; 1; 0"/></path><path fill="#0a5ad4" d="M256 376a8 8 0 0 1-8-8v-12a8 8 0 0 1 16 0v12a8 8 0 0 1-8 8Z" opacity="0"><animateTransform id="meteoconsPartlyCloudyNightDrizzle6" additive="sum" attributeName="transform" begin="1.34s; x2.end+1s" dur="1s" keyTimes="0; .25; 1" type="translate" values="0 -32; 0 -32; 0 120;"/><animate id="meteoconsPartlyCloudyNightDrizzle7" attributeName="opacity" begin="1.34s; y2.end+1s" dur="1s" keyTimes="0; .25; 1" values="0; 1; 0"/></path><path fill="#0a5ad4" d="M312 376a8 8 0 0 1-8-8v-12a8 8 0 0 1 16 0v12a8 8 0 0 1-8 8Z" opacity="0"><animateTransform id="meteoconsPartlyCloudyNightDrizzle8" additive="sum" attributeName="transform" begin=".67s; x3.end+1s" dur="1s" keyTimes="0; .25; 1" type="translate" values="0 -32; 0 -32; 0 120;"/><animate id="meteoconsPartlyCloudyNightDrizzle9" attributeName="opacity" begin=".67s; y3.end+1s" dur="1s" keyTimes="0; .25; 1" values="0; 1; 0"/></path></svg>