<svg xmlns="http://www.w3.org/2000/svg" viewBox="0 0 512 512"><defs><linearGradient id="meteoconsPartlyCloudyDayDrizzleFill0" x1="99.5" x2="232.6" y1="30.7" y2="261.4" gradientUnits="userSpaceOnUse"><stop offset="0" stop-color="#f3f7fe"/><stop offset=".5" stop-color="#f3f7fe"/><stop offset="1" stop-color="#deeafb"/></linearGradient><linearGradient id="meteoconsPartlyCloudyDayDrizzleFill1" x1="78" x2="118" y1="63.4" y2="132.7" gradientUnits="userSpaceOnUse"><stop offset="0" stop-color="#fbbf24"/><stop offset=".5" stop-color="#fbbf24"/><stop offset="1" stop-color="#f59e0b"/></linearGradient><linearGradient id="meteoconsPartlyCloudyDayDrizzleFill2" x1="1308.3" x2="1317.8" y1="-657.9" y2="-633.3" gradientTransform="rotate(-9 7158.052 6929.531)" gradientUnits="userSpaceOnUse"><stop offset="0" stop-color="#0b65ed"/><stop offset=".5" stop-color="#0a5ad4"/><stop offset="1" stop-color="#0950bc"/></linearGradient><linearGradient id="meteoconsPartlyCloudyDayDrizzleFill3" x1="1363.6" x2="1373.1" y1="-649.2" y2="-624.5" href="#meteoconsPartlyCloudyDayDrizzleFill2"/><linearGradient id="meteoconsPartlyCloudyDayDrizzleFill4" x1="1419" x2="1428.4" y1="-640.4" y2="-615.8" href="#meteoconsPartlyCloudyDayDrizzleFill2"/><symbol id="meteoconsPartlyCloudyDayDrizzleFill5" viewBox="0 0 196 196"><circle cx="98" cy="98" r="40" fill="url(#meteoconsPartlyCloudyDayDrizzleFill1)" stroke="#f8af18" stroke-miterlimit="10" stroke-width="4"/><path fill="none" stroke="#fbbf24" stroke-linecap="round" stroke-miterlimit="10" stroke-width="12" d="M98 31.4V6m0 184v-25.4M145.1 51l18-17.9M33 163l18-17.9M51 51L33 33m130.1 130.1l-18-18M6 98h25.4M190 98h-25.4"><animateTransform additive="sum" attributeName="transform" dur="6s" repeatCount="indefinite" type="rotate" values="0 98 98; 45 98 98"/></path></symbol><symbol id="meteoconsPartlyCloudyDayDrizzleFill6" viewBox="0 0 350 222"><path fill="url(#meteoconsPartlyCloudyDayDrizzleFill0)" stroke="#e6effc" stroke-miterlimit="10" stroke-width="6" d="m291 107l-2.5.1A83.9 83.9 0 0 0 135.6 43A56 56 0 0 0 51 91a56.6 56.6 0 0 0 .8 9A60 60 0 0 0 63 219l4-.2v.2h224a56 56 0 0 0 0-112Z"/></symbol><symbol id="meteoconsPartlyCloudyDayDrizzleFill7" viewBox="0 0 363 258"><use width="196" height="196" href="#meteoconsPartlyCloudyDayDrizzleFill5"/><use width="350" height="222" href="#meteoconsPartlyCloudyDayDrizzleFill6" transform="translate(13 36)"/></symbol></defs><use width="363" height="258" href="#meteoconsPartlyCloudyDayDrizzleFill7" transform="translate(68 109)"/><path fill="url(#meteoconsPartlyCloudyDayDrizzleFill2)" stroke="#0a5ad4" stroke-miterlimit="10" d="M200 376a8 8 0 0 1-8-8v-12a8 8 0 0 1 16 0v12a8 8 0 0 1-8 8Z" opacity="0"><animateTransform id="meteoconsPartlyCloudyDayDrizzleFill8" additive="sum" attributeName="transform" begin="0s; x1.end+1s" dur="1s" keyTimes="0; .25; 1" type="translate" values="0 -32; 0 -32; 0 120;"/><animate id="meteoconsPartlyCloudyDayDrizzleFill9" attributeName="opacity" begin="0s; y1.end+1s" dur="1s" keyTimes="0; .25; 1" values="0; 1; 0"/></path><path fill="url(#meteoconsPartlyCloudyDayDrizzleFill3)" stroke="#0a5ad4" stroke-miterlimit="10" d="M256 376a8 8 0 0 1-8-8v-12a8 8 0 0 1 16 0v12a8 8 0 0 1-8 8Z" opacity="0"><animateTransform id="meteoconsPartlyCloudyDayDrizzleFilla" additive="sum" attributeName="transform" begin="1.34s; x2.end+1s" dur="1s" keyTimes="0; .25; 1" type="translate" values="0 -32; 0 -32; 0 120;"/><animate id="meteoconsPartlyCloudyDayDrizzleFillb" attributeName="opacity" begin="1.34s; y2.end+1s" dur="1s" keyTimes="0; .25; 1" values="0; 1; 0"/></path><path fill="url(#meteoconsPartlyCloudyDayDrizzleFill4)" stroke="#0a5ad4" stroke-miterlimit="10" d="M312 376a8 8 0 0 1-8-8v-12a8 8 0 0 1 16 0v12a8 8 0 0 1-8 8Z" opacity="0"><animateTransform id="meteoconsPartlyCloudyDayDrizzleFillc" additive="sum" attributeName="transform" begin=".67s; x3.end+1s" dur="1s" keyTimes="0; .25; 1" type="translate" values="0 -32; 0 -32; 0 120;"/><animate id="meteoconsPartlyCloudyDayDrizzleFilld" attributeName="opacity" begin=".67s; y3.end+1s" dur="1s" keyTimes="0; .25; 1" values="0; 1; 0"/></path></svg>