<svg xmlns="http://www.w3.org/2000/svg" viewBox="0 0 512 512"><defs><symbol id="meteoconsPartlyCloudyDaySmoke0" viewBox="0 0 193 193"><circle cx="96.5" cy="96.5" r="40" fill="none" stroke="#fbbf24" stroke-miterlimit="10" stroke-width="9"/><path fill="none" stroke="#fbbf24" stroke-linecap="round" stroke-miterlimit="10" stroke-width="9" d="M96.5 29.9V4.5m0 184v-25.4m47.1-113.7l18-18M31.4 161.6l18-18m0-94.2l-18-18m130.2 130.2l-18-18M4.5 96.5h25.4m158.6 0h-25.4"><animateTransform additive="sum" attributeName="transform" dur="6s" repeatCount="indefinite" type="rotate" values="0 96.5 96.5; 45 96.5 96.5"/></path></symbol><symbol id="meteoconsPartlyCloudyDaySmoke1" viewBox="0 0 359 231"><path fill="none" stroke="#e2e8f0" stroke-linecap="round" stroke-linejoin="round" stroke-width="15" d="M295.5 223.5a56 56 0 0 0 0-112l-2.5.1a83.9 83.9 0 0 0-153-64.2a56 56 0 0 0-84.6 48.1a56.6 56.6 0 0 0 .8 9a60 60 0 0 0 11.2 119"/></symbol><symbol id="meteoconsPartlyCloudyDaySmoke2" viewBox="0 0 435.5 371.5"><g clip-path="url(#meteoconsPartlyCloudyDaySmoked)"><use width="193" height="193" href="#meteoconsPartlyCloudyDaySmoke0" transform="translate(69.5 110.5)"/></g><use width="359" height="231" href="#meteoconsPartlyCloudyDaySmoke1" transform="translate(76.5 140.5)"/></symbol><symbol id="meteoconsPartlyCloudyDaySmoke3" viewBox="0 0 173 217"><circle cx="88.5" cy="188.5" r="24" fill="none" stroke="#afb4bc" stroke-miterlimit="10" stroke-width="9" opacity="0"><animateTransform id="meteoconsPartlyCloudyDaySmoke4" additive="sum" attributeName="transform" begin="0s; x1.end+.75s" dur="2.25s" type="translate" values="0 0; -58 -118"/><animate id="meteoconsPartlyCloudyDaySmoke5" attributeName="r" begin="0s; y1.end+.75s" dur="2.25s" values="24; 36"/><animate id="meteoconsPartlyCloudyDaySmoke6" attributeName="opacity" begin="0s; y1.end+.75s" dur="2.25s" keyTimes="0; .17; .83; 1" values="0; 1; 1; 0"/></circle><circle cx="88.5" cy="188.5" r="24" fill="none" stroke="#afb4bc" stroke-miterlimit="10" stroke-width="9" opacity="0"><animateTransform id="meteoconsPartlyCloudyDaySmoke7" additive="sum" attributeName="transform" begin=".83s; x2.end+.75s" dur="2.25s" type="translate" values="0 0; 58 -118"/><animate id="meteoconsPartlyCloudyDaySmoke8" attributeName="r" begin=".83s; y2.end+.75s" dur="2.25s" values="24; 36"/><animate id="meteoconsPartlyCloudyDaySmoke9" attributeName="opacity" begin=".83s; z2.end+.75s" dur="2.25s" keyTimes="0; .17; .83; 1" values="0; 1; 1; 0"/></circle><circle cx="88.5" cy="188.5" r="24" fill="none" stroke="#afb4bc" stroke-miterlimit="10" stroke-width="9" opacity="0"><animateTransform id="meteoconsPartlyCloudyDaySmokea" additive="sum" attributeName="transform" begin="1.66s; x3.end+.75s" dur="2.25s" type="translate" values="0 0; 0 -118"/><animate id="meteoconsPartlyCloudyDaySmokeb" attributeName="r" begin="1.66s; y3.end+.75s" dur="2.25s" values="24; 36"/><animate id="meteoconsPartlyCloudyDaySmokec" attributeName="opacity" begin="1.66s; z3.end+.75s" dur="2.25s" keyTimes="0; .17; .83; 1" values="0; 1; 1; 0"/></circle></symbol><clipPath id="meteoconsPartlyCloudyDaySmoked"><path fill="none" d="M288 148a83.8 83.8 0 0 0-71.4 40a56 56 0 0 0-84.6 48a56.6 56.6 0 0 0 .8 9A60 60 0 0 0 84 304H0V0h288Z"/></clipPath></defs><use width="435.5" height="371.5" href="#meteoconsPartlyCloudyDaySmoke2"/><use width="173" height="217" href="#meteoconsPartlyCloudyDaySmoke3" transform="translate(169.5 229.5)"/></svg>