<svg xmlns="http://www.w3.org/2000/svg" viewBox="0 0 512 512"><defs><symbol id="meteoconsPartlyCloudyNightHaze0" viewBox="0 0 178 178"><path fill="none" stroke="#72b9d5" stroke-linecap="round" stroke-linejoin="round" stroke-width="10" d="M163.6 110.4a84.8 84.8 0 0 1-85.4-84.3A83.3 83.3 0 0 1 81 5A84.7 84.7 0 0 0 5 88.7A84.8 84.8 0 0 0 90.4 173a85.2 85.2 0 0 0 82.6-63.1a88 88 0 0 1-9.4.5Z"/></symbol><symbol id="meteoconsPartlyCloudyNightHaze1" viewBox="0 0 359 231"><path fill="none" stroke="#e2e8f0" stroke-linecap="round" stroke-linejoin="round" stroke-width="15" d="M295.5 223.5a56 56 0 0 0 0-112l-2.5.1a83.9 83.9 0 0 0-153-64.2a56 56 0 0 0-84.6 48.1a56.6 56.6 0 0 0 .8 9a60 60 0 0 0 11.2 119"/></symbol><symbol id="meteoconsPartlyCloudyNightHaze2" viewBox="0 0 435.5 371.5"><g clip-path="url(#meteoconsPartlyCloudyNightHaze4)"><use width="178" height="178" href="#meteoconsPartlyCloudyNightHaze0" transform="translate(77 118)"><animateTransform additive="sum" attributeName="transform" dur="6s" repeatCount="indefinite" type="rotate" values="-15 86 86; 9 86 86; -15 86 86"/></use></g><use width="359" height="231" href="#meteoconsPartlyCloudyNightHaze1" transform="translate(76.5 140.5)"/></symbol><symbol id="meteoconsPartlyCloudyNightHaze3" viewBox="0 0 258 66"><g><path fill="none" stroke="#e2e8f0" stroke-linecap="round" stroke-miterlimit="10" stroke-width="18" d="M9 57h30"/><path fill="none" stroke="#e2e8f0" stroke-dasharray="60 60" stroke-linecap="round" stroke-miterlimit="10" stroke-width="18" d="M99 57h90"/><path fill="none" stroke="#e2e8f0" stroke-linecap="round" stroke-miterlimit="10" stroke-width="18" d="M219 57h30"/><animateTransform additive="sum" attributeName="transform" dur="6s" repeatCount="indefinite" type="translate" values="-24 0; 24 0; -24 0"/></g><g><path fill="none" stroke="#e2e8f0" stroke-linecap="round" stroke-miterlimit="10" stroke-width="18" d="M9 9h30"/><path fill="none" stroke="#e2e8f0" stroke-dasharray="60 60" stroke-linecap="round" stroke-miterlimit="10" stroke-width="18" d="M99 9h90"/><path fill="none" stroke="#e2e8f0" stroke-linecap="round" stroke-miterlimit="10" stroke-width="18" d="M219 9h30"/><animateTransform additive="sum" attributeName="transform" dur="6s" repeatCount="indefinite" type="translate" values="24 0; -24 0; 24 0"/></g></symbol><clipPath id="meteoconsPartlyCloudyNightHaze4"><path fill="none" d="M288 148a83.8 83.8 0 0 0-71.4 40a56 56 0 0 0-84.6 48a56.6 56.6 0 0 0 .8 9A60 60 0 0 0 84 304H0V0h288Z"/></clipPath></defs><use width="435.5" height="371.5" href="#meteoconsPartlyCloudyNightHaze2"/><use width="258" height="66" href="#meteoconsPartlyCloudyNightHaze3" transform="translate(127 405)"/></svg>