<svg xmlns="http://www.w3.org/2000/svg" viewBox="0 0 512 512"><defs><linearGradient id="meteoconsPartlyCloudyNightSleetFill0" x1="99.5" x2="232.6" y1="30.7" y2="261.4" gradientUnits="userSpaceOnUse"><stop offset="0" stop-color="#f3f7fe"/><stop offset=".5" stop-color="#f3f7fe"/><stop offset="1" stop-color="#deeafb"/></linearGradient><linearGradient id="meteoconsPartlyCloudyNightSleetFill1" x1="34.7" x2="119.2" y1="18.6" y2="165" gradientUnits="userSpaceOnUse"><stop offset="0" stop-color="#86c3db"/><stop offset=".5" stop-color="#86c3db"/><stop offset="1" stop-color="#5eafcf"/></linearGradient><linearGradient id="meteoconsPartlyCloudyNightSleetFill2" x1="1399.3" x2="1408.7" y1="-1137.3" y2="-1112.7" gradientTransform="rotate(-9 8016.182 8229.021)" gradientUnits="userSpaceOnUse"><stop offset="0" stop-color="#0b65ed"/><stop offset=".5" stop-color="#0a5ad4"/><stop offset="1" stop-color="#0950bc"/></linearGradient><linearGradient id="meteoconsPartlyCloudyNightSleetFill3" x1="1454.6" x2="1464" y1="-1128.6" y2="-1104" href="#meteoconsPartlyCloudyNightSleetFill2"/><linearGradient id="meteoconsPartlyCloudyNightSleetFill4" x1="1509.9" x2="1519.3" y1="-1119.8" y2="-1095.2" href="#meteoconsPartlyCloudyNightSleetFill2"/><linearGradient id="meteoconsPartlyCloudyNightSleetFill5" x1="11.4" x2="32.8" y1="5.9" y2="43.1" href="#meteoconsPartlyCloudyNightSleetFill1"/><linearGradient id="meteoconsPartlyCloudyNightSleetFill6" x1="67.4" x2="88.8" y1="5.9" y2="43.1" href="#meteoconsPartlyCloudyNightSleetFill1"/><linearGradient id="meteoconsPartlyCloudyNightSleetFill7" x1="123.4" x2="144.8" y1="5.9" y2="43.1" href="#meteoconsPartlyCloudyNightSleetFill1"/><symbol id="meteoconsPartlyCloudyNightSleetFill8" viewBox="0 0 172 172"><path fill="url(#meteoconsPartlyCloudyNightSleetFill1)" stroke="#72b9d5" stroke-linecap="round" stroke-linejoin="round" stroke-width="4" d="M160.6 107.4a84.8 84.8 0 0 1-85.4-84.3A83.3 83.3 0 0 1 78 2A84.7 84.7 0 0 0 2 85.7A84.8 84.8 0 0 0 87.4 170a85.2 85.2 0 0 0 82.6-63.1a88 88 0 0 1-9.4.5Z"><animateTransform additive="sum" attributeName="transform" dur="6s" repeatCount="indefinite" type="rotate" values="-15 86 86; 9 86 86; -15 86 86"/></path></symbol><symbol id="meteoconsPartlyCloudyNightSleetFill9" viewBox="0 0 350 222"><path fill="url(#meteoconsPartlyCloudyNightSleetFill0)" stroke="#e6effc" stroke-miterlimit="10" stroke-width="6" d="m291 107l-2.5.1A83.9 83.9 0 0 0 135.6 43A56 56 0 0 0 51 91a56.6 56.6 0 0 0 .8 9A60 60 0 0 0 63 219l4-.2v.2h224a56 56 0 0 0 0-112Z"/></symbol><symbol id="meteoconsPartlyCloudyNightSleetFilla" viewBox="0 0 351 246"><use width="172" height="172" href="#meteoconsPartlyCloudyNightSleetFill8"/><use width="350" height="222" href="#meteoconsPartlyCloudyNightSleetFill9" transform="translate(1 24)"/></symbol><symbol id="meteoconsPartlyCloudyNightSleetFillb" viewBox="0 0 156.2 49"><g><path fill="url(#meteoconsPartlyCloudyNightSleetFill5)" stroke="#86c3db" stroke-miterlimit="10" d="m41.7 31l-5.8-3.3a13.7 13.7 0 0 0 0-6.5l5.8-3.2a4 4 0 0 0 1.5-5.5a4 4 0 0 0-5.6-1.5l-5.8 3.3a13.6 13.6 0 0 0-2.6-2a13.8 13.8 0 0 0-3-1.3V4.5a4 4 0 0 0-8.1 0v6.6a14.3 14.3 0 0 0-5.7 3.2L6.6 11A4 4 0 0 0 1 12.5A4 4 0 0 0 2.5 18l5.8 3.3a13.7 13.7 0 0 0 0 6.5L2.5 31A4 4 0 0 0 1 36.5a4 4 0 0 0 3.5 2a4 4 0 0 0 2-.5l5.8-3.3a13.6 13.6 0 0 0 2.6 2a13.8 13.8 0 0 0 3 1.2v6.6a4 4 0 0 0 8.2 0v-6.6a14.2 14.2 0 0 0 5.6-3.2l6 3.3a4 4 0 0 0 2 .5a4 4 0 0 0 3.4-2a4 4 0 0 0-1.4-5.5ZM19 29.7a6 6 0 0 1-2.3-8.2a6.1 6.1 0 0 1 5.3-3a6.2 6.2 0 0 1 3 .8a6 6 0 0 1 2.2 8.2a6.1 6.1 0 0 1-8.2 2.2Z" opacity="0"><animateTransform additive="sum" attributeName="transform" dur="6s" repeatCount="indefinite" type="rotate" values="0 24 24; 360 24 24"/><animate id="meteoconsPartlyCloudyNightSleetFillc" attributeName="opacity" begin="0s; t1.end+1s" dur="2s" keyTimes="0; .17; .83; 1" values="0; 1; 1; 0"/></path><animateTransform id="meteoconsPartlyCloudyNightSleetFilld" additive="sum" attributeName="transform" begin="0s; s1.end+1s" dur="2s" type="translate" values="0 -36; 0 92;"/></g><g><path fill="url(#meteoconsPartlyCloudyNightSleetFill6)" stroke="#86c3db" stroke-miterlimit="10" d="m97.7 31l-5.8-3.3a13.7 13.7 0 0 0 0-6.5l5.8-3.2a4 4 0 0 0 1.5-5.5a4 4 0 0 0-5.6-1.5l-5.8 3.3a13.6 13.6 0 0 0-2.6-2a13.8 13.8 0 0 0-3-1.3V4.5a4 4 0 0 0-8.1 0v6.6a14.3 14.3 0 0 0-5.7 3.2L62.6 11a4 4 0 0 0-5.6 1.5a4 4 0 0 0 1.5 5.5l5.8 3.3a13.7 13.7 0 0 0 0 6.5L58.5 31a4 4 0 0 0-1.5 5.5a4 4 0 0 0 3.5 2a4 4 0 0 0 2-.5l5.8-3.3a13.6 13.6 0 0 0 2.7 2a13.8 13.8 0 0 0 3 1.2v6.6a4 4 0 0 0 8 0v-6.6a14.2 14.2 0 0 0 5.7-3.2l6 3.3a4 4 0 0 0 2 .5a4 4 0 0 0 3.4-2a4 4 0 0 0-1.4-5.5ZM75 29.7a6 6 0 0 1-2.3-8.2a6.1 6.1 0 0 1 5.3-3a6.2 6.2 0 0 1 3 .8a6 6 0 0 1 2.2 8.2a6.1 6.1 0 0 1-8.2 2.2Z" opacity="0"><animateTransform additive="sum" attributeName="transform" dur="6s" repeatCount="indefinite" type="rotate" values="0 80 24; 360 80 24"/><animate id="meteoconsPartlyCloudyNightSleetFille" attributeName="opacity" begin="-.83s; t2.end+1s" dur="2s" keyTimes="0; .17; .83; 1" values="0; 1; 1; 0"/></path><animateTransform id="meteoconsPartlyCloudyNightSleetFillf" additive="sum" attributeName="transform" begin="-.83s; s2.end+1s" dur="2s" type="translate" values="0 -36; 0 92;"/></g><g><path fill="url(#meteoconsPartlyCloudyNightSleetFill7)" stroke="#86c3db" stroke-miterlimit="10" d="m153.7 31l-5.8-3.3a13.7 13.7 0 0 0 0-6.5l5.8-3.2a4 4 0 0 0 1.5-5.5a4 4 0 0 0-5.6-1.5l-5.8 3.3a13.6 13.6 0 0 0-2.6-2a13.8 13.8 0 0 0-3-1.3V4.5a4 4 0 0 0-8.1 0v6.6a14.3 14.3 0 0 0-5.7 3.2l-5.8-3.3a4 4 0 0 0-5.6 1.5a4 4 0 0 0 1.5 5.5l5.8 3.3a13.7 13.7 0 0 0 0 6.5l-5.8 3.2a4 4 0 0 0-1.5 5.5a4 4 0 0 0 3.5 2a4 4 0 0 0 2-.5l5.8-3.3a13.6 13.6 0 0 0 2.7 2a13.8 13.8 0 0 0 3 1.2v6.6a4 4 0 0 0 8 0v-6.6a14.2 14.2 0 0 0 5.7-3.2l5.8 3.3a4 4 0 0 0 2 .5a4 4 0 0 0 3.5-2a4 4 0 0 0-1.3-5.5ZM131 29.7a6 6 0 0 1-2.3-8.2a6.1 6.1 0 0 1 5.3-3a6.2 6.2 0 0 1 3 .8a6 6 0 0 1 2.2 8.2a6.1 6.1 0 0 1-8.2 2.2Z" opacity="0"><animateTransform additive="sum" attributeName="transform" dur="6s" repeatCount="indefinite" type="rotate" values="0 136 24; 360 136 24"/><animate id="meteoconsPartlyCloudyNightSleetFillg" attributeName="opacity" begin=".83s; t3.end+1s" dur="2s" keyTimes="0; .17; .83; 1" values="0; 1; 1; 0"/></path><animateTransform id="meteoconsPartlyCloudyNightSleetFillh" additive="sum" attributeName="transform" begin=".83s; s3.end+1s" dur="2s" type="translate" values="0 -36; 0 92;"/></g></symbol><symbol id="meteoconsPartlyCloudyNightSleetFilli" viewBox="0 0 156.2 49"><use width="156.2" height="49" href="#meteoconsPartlyCloudyNightSleetFillb"/><path fill="url(#meteoconsPartlyCloudyNightSleetFill2)" stroke="#0a5ad4" stroke-miterlimit="10" d="M22.1 38.5a8 8 0 0 1-8-8v-12a8 8 0 0 1 16 0v12a8 8 0 0 1-8 8Z" opacity="0"><animateTransform id="meteoconsPartlyCloudyNightSleetFillj" additive="sum" attributeName="transform" begin="0s; x1.end+1s" dur="1s" keyTimes="0; .25; 1" type="translate" values="0 -32; 0 -32; 0 120;"/><animate id="meteoconsPartlyCloudyNightSleetFillk" attributeName="opacity" begin="0s; y1.end+1s" dur="1s" keyTimes="0; .25; 1" values="0; 1; 0"/></path><path fill="url(#meteoconsPartlyCloudyNightSleetFill3)" stroke="#0a5ad4" stroke-miterlimit="10" d="M78.1 38.5a8 8 0 0 1-8-8v-12a8 8 0 0 1 16 0v12a8 8 0 0 1-8 8Z" opacity="0"><animateTransform id="meteoconsPartlyCloudyNightSleetFilll" additive="sum" attributeName="transform" begin="1.34s; x2.end+1s" dur="1s" keyTimes="0; .25; 1" type="translate" values="0 -32; 0 -32; 0 120;"/><animate id="meteoconsPartlyCloudyNightSleetFillm" attributeName="opacity" begin="1.34s; y2.end+1s" dur="1s" keyTimes="0; .25; 1" values="0; 1; 0"/></path><path fill="url(#meteoconsPartlyCloudyNightSleetFill4)" stroke="#0a5ad4" stroke-miterlimit="10" d="M134.1 38.5a8 8 0 0 1-8-8v-12a8 8 0 0 1 16 0v12a8 8 0 0 1-8 8Z" opacity="0"><animateTransform id="meteoconsPartlyCloudyNightSleetFilln" additive="sum" attributeName="transform" begin=".67s; x3.end+1s" dur="1s" keyTimes="0; .25; 1" type="translate" values="0 -32; 0 -32; 0 120;"/><animate id="meteoconsPartlyCloudyNightSleetFillo" attributeName="opacity" begin=".67s; y3.end+1s" dur="1s" keyTimes="0; .25; 1" values="0; 1; 0"/></path></symbol></defs><use width="351" height="246" href="#meteoconsPartlyCloudyNightSleetFilla" transform="translate(80 121)"/><use width="156.2" height="49" href="#meteoconsPartlyCloudyNightSleetFilli" transform="translate(177.9 337.5)"/></svg>