<svg xmlns="http://www.w3.org/2000/svg" viewBox="0 0 512 512"><defs><linearGradient id="meteoconsPartlyCloudyDayFogFill0" x1="99.5" x2="232.6" y1="30.7" y2="261.4" gradientUnits="userSpaceOnUse"><stop offset="0" stop-color="#f3f7fe"/><stop offset=".5" stop-color="#f3f7fe"/><stop offset="1" stop-color="#deeafb"/></linearGradient><linearGradient id="meteoconsPartlyCloudyDayFogFill1" x1="96" x2="168" y1="-2.4" y2="122.3" gradientUnits="userSpaceOnUse"><stop offset="0" stop-color="#d4d7dd"/><stop offset=".5" stop-color="#d4d7dd"/><stop offset="1" stop-color="#bec1c6"/></linearGradient><linearGradient id="meteoconsPartlyCloudyDayFogFill2" x2="168" y1="-50.4" y2="74.3" href="#meteoconsPartlyCloudyDayFogFill1"/><linearGradient id="meteoconsPartlyCloudyDayFogFill3" x1="78" x2="118" y1="63.4" y2="132.7" gradientUnits="userSpaceOnUse"><stop offset="0" stop-color="#fbbf24"/><stop offset=".5" stop-color="#fbbf24"/><stop offset="1" stop-color="#f59e0b"/></linearGradient><symbol id="meteoconsPartlyCloudyDayFogFill4" viewBox="0 0 196 196"><circle cx="98" cy="98" r="40" fill="url(#meteoconsPartlyCloudyDayFogFill3)" stroke="#f8af18" stroke-miterlimit="10" stroke-width="4"/><path fill="none" stroke="#fbbf24" stroke-linecap="round" stroke-miterlimit="10" stroke-width="12" d="M98 31.4V6m0 184v-25.4M145.1 51l18-17.9M33 163l18-17.9M51 51L33 33m130.1 130.1l-18-18M6 98h25.4M190 98h-25.4"><animateTransform additive="sum" attributeName="transform" dur="6s" repeatCount="indefinite" type="rotate" values="0 98 98; 45 98 98"/></path></symbol><symbol id="meteoconsPartlyCloudyDayFogFill5" viewBox="0 0 350 222"><path fill="url(#meteoconsPartlyCloudyDayFogFill0)" stroke="#e6effc" stroke-miterlimit="10" stroke-width="6" d="m291 107l-2.5.1A83.9 83.9 0 0 0 135.6 43A56 56 0 0 0 51 91a56.6 56.6 0 0 0 .8 9A60 60 0 0 0 63 219l4-.2v.2h224a56 56 0 0 0 0-112Z"/></symbol><symbol id="meteoconsPartlyCloudyDayFogFill6" viewBox="0 0 363 258"><use width="196" height="196" href="#meteoconsPartlyCloudyDayFogFill4"/><use width="350" height="222" href="#meteoconsPartlyCloudyDayFogFill5" transform="translate(13 36)"/></symbol><symbol id="meteoconsPartlyCloudyDayFogFill7" viewBox="0 0 264 72"><path fill="none" stroke="url(#meteoconsPartlyCloudyDayFogFill1)" stroke-linecap="round" stroke-miterlimit="10" stroke-width="24" d="M12 60h240"><animateTransform additive="sum" attributeName="transform" dur="6s" repeatCount="indefinite" type="translate" values="-24 0; 24 0; -24 0"/></path><path fill="none" stroke="url(#meteoconsPartlyCloudyDayFogFill2)" stroke-linecap="round" stroke-miterlimit="10" stroke-width="24" d="M12 12h240"><animateTransform additive="sum" attributeName="transform" dur="6s" repeatCount="indefinite" type="translate" values="24 0; -24 0; 24 0"/></path></symbol></defs><use width="363" height="258" href="#meteoconsPartlyCloudyDayFogFill6" transform="translate(68 109)"/><use width="264" height="72" href="#meteoconsPartlyCloudyDayFogFill7" transform="translate(124 402)"/></svg>