<svg xmlns="http://www.w3.org/2000/svg" viewBox="0 0 512 512"><defs><linearGradient id="meteoconsPartlyCloudyNightHazeFill0" x1="99.5" x2="232.6" y1="30.7" y2="261.4" gradientUnits="userSpaceOnUse"><stop offset="0" stop-color="#f3f7fe"/><stop offset=".5" stop-color="#f3f7fe"/><stop offset="1" stop-color="#deeafb"/></linearGradient><linearGradient id="meteoconsPartlyCloudyNightHazeFill1" x1="17.3" x2="89.3" y1="43.1" y2="167.8" gradientUnits="userSpaceOnUse"><stop offset="0" stop-color="#d4d7dd"/><stop offset=".5" stop-color="#d4d7dd"/><stop offset="1" stop-color="#bec1c6"/></linearGradient><linearGradient id="meteoconsPartlyCloudyNightHazeFill2" x1="107.3" x2="179.3" y1="-8.8" y2="115.9" href="#meteoconsPartlyCloudyNightHazeFill1"/><linearGradient id="meteoconsPartlyCloudyNightHazeFill3" x1="174.8" x2="246.8" y1="-47.8" y2="76.9" href="#meteoconsPartlyCloudyNightHazeFill1"/><linearGradient id="meteoconsPartlyCloudyNightHazeFill4" x2="89.3" y1="-4.9" y2="119.8" href="#meteoconsPartlyCloudyNightHazeFill1"/><linearGradient id="meteoconsPartlyCloudyNightHazeFill5" x1="107.3" x2="179.3" y1="-56.9" y2="67.9" href="#meteoconsPartlyCloudyNightHazeFill1"/><linearGradient id="meteoconsPartlyCloudyNightHazeFill6" x1="174.8" x2="246.8" y1="-95.8" y2="28.9" href="#meteoconsPartlyCloudyNightHazeFill1"/><linearGradient id="meteoconsPartlyCloudyNightHazeFill7" x1="34.7" x2="119.2" y1="18.6" y2="165" gradientUnits="userSpaceOnUse"><stop offset="0" stop-color="#86c3db"/><stop offset=".5" stop-color="#86c3db"/><stop offset="1" stop-color="#5eafcf"/></linearGradient><symbol id="meteoconsPartlyCloudyNightHazeFill8" viewBox="0 0 172 172"><path fill="url(#meteoconsPartlyCloudyNightHazeFill7)" stroke="#72b9d5" stroke-linecap="round" stroke-linejoin="round" stroke-width="4" d="M160.6 107.4a84.8 84.8 0 0 1-85.4-84.3A83.3 83.3 0 0 1 78 2A84.7 84.7 0 0 0 2 85.7A84.8 84.8 0 0 0 87.4 170a85.2 85.2 0 0 0 82.6-63.1a88 88 0 0 1-9.4.5Z"><animateTransform additive="sum" attributeName="transform" dur="6s" repeatCount="indefinite" type="rotate" values="-15 86 86; 9 86 86; -15 86 86"/></path></symbol><symbol id="meteoconsPartlyCloudyNightHazeFill9" viewBox="0 0 350 222"><path fill="url(#meteoconsPartlyCloudyNightHazeFill0)" stroke="#e6effc" stroke-miterlimit="10" stroke-width="6" d="m291 107l-2.5.1A83.9 83.9 0 0 0 135.6 43A56 56 0 0 0 51 91a56.6 56.6 0 0 0 .8 9A60 60 0 0 0 63 219l4-.2v.2h224a56 56 0 0 0 0-112Z"/></symbol><symbol id="meteoconsPartlyCloudyNightHazeFilla" viewBox="0 0 351 246"><use width="172" height="172" href="#meteoconsPartlyCloudyNightHazeFill8"/><use width="350" height="222" href="#meteoconsPartlyCloudyNightHazeFill9" transform="translate(1 24)"/></symbol><symbol id="meteoconsPartlyCloudyNightHazeFillb" viewBox="0 0 264 72"><g><path fill="none" stroke="url(#meteoconsPartlyCloudyNightHazeFill1)" stroke-linecap="round" stroke-miterlimit="10" stroke-width="24" d="M12 60h30"/><path fill="none" stroke="url(#meteoconsPartlyCloudyNightHazeFill2)" stroke-dasharray="60 60" stroke-linecap="round" stroke-miterlimit="10" stroke-width="24" d="M102 60h90"/><path fill="none" stroke="url(#meteoconsPartlyCloudyNightHazeFill3)" stroke-linecap="round" stroke-miterlimit="10" stroke-width="24" d="M222 60h30"/><animateTransform additive="sum" attributeName="transform" dur="6s" repeatCount="indefinite" type="translate" values="-24 0; 24 0; -24 0"/></g><g><path fill="none" stroke="url(#meteoconsPartlyCloudyNightHazeFill4)" stroke-linecap="round" stroke-miterlimit="10" stroke-width="24" d="M12 12h30"/><path fill="none" stroke="url(#meteoconsPartlyCloudyNightHazeFill5)" stroke-dasharray="60 60" stroke-linecap="round" stroke-miterlimit="10" stroke-width="24" d="M102 12h90"/><path fill="none" stroke="url(#meteoconsPartlyCloudyNightHazeFill6)" stroke-linecap="round" stroke-miterlimit="10" stroke-width="24" d="M222 12h30"/><animateTransform additive="sum" attributeName="transform" dur="6s" repeatCount="indefinite" type="translate" values="24 0; -24 0; 24 0"/></g></symbol></defs><use width="351" height="246" href="#meteoconsPartlyCloudyNightHazeFilla" transform="translate(80 121)"/><use width="264" height="72" href="#meteoconsPartlyCloudyNightHazeFillb" transform="translate(124 402)"/></svg>