<svg xmlns="http://www.w3.org/2000/svg" viewBox="0 0 512 512"><defs><symbol id="meteoconsPartlyCloudyNightSnow0" viewBox="0 0 178 178"><path fill="none" stroke="#72b9d5" stroke-linecap="round" stroke-linejoin="round" stroke-width="10" d="M163.6 110.4a84.8 84.8 0 0 1-85.4-84.3A83.3 83.3 0 0 1 81 5A84.7 84.7 0 0 0 5 88.7A84.8 84.8 0 0 0 90.4 173a85.2 85.2 0 0 0 82.6-63.1a88 88 0 0 1-9.4.5Z"/></symbol><symbol id="meteoconsPartlyCloudyNightSnow1" viewBox="0 0 359 231"><path fill="none" stroke="#e2e8f0" stroke-linecap="round" stroke-linejoin="round" stroke-width="15" d="M295.5 223.5a56 56 0 0 0 0-112l-2.5.1a83.9 83.9 0 0 0-153-64.2a56 56 0 0 0-84.6 48.1a56.6 56.6 0 0 0 .8 9a60 60 0 0 0 11.2 119"/></symbol><symbol id="meteoconsPartlyCloudyNightSnow2" viewBox="0 0 435.5 371.5"><g clip-path="url(#meteoconsPartlyCloudyNightSnowa)"><use width="178" height="178" href="#meteoconsPartlyCloudyNightSnow0" transform="translate(77 118)"><animateTransform additive="sum" attributeName="transform" dur="6s" repeatCount="indefinite" type="rotate" values="-15 86 86; 9 86 86; -15 86 86"/></use></g><use width="359" height="231" href="#meteoconsPartlyCloudyNightSnow1" transform="translate(76.5 140.5)"/></symbol><symbol id="meteoconsPartlyCloudyNightSnow3" viewBox="0 0 155.2 48"><g><path fill="#86c3db" d="m41.2 30.5l-5.8-3.3a13.7 13.7 0 0 0 0-6.4l5.8-3.3a4 4 0 0 0 1.5-5.5a4 4 0 0 0-5.6-1.5l-5.8 3.3a13.6 13.6 0 0 0-2.6-2a13.8 13.8 0 0 0-3-1.2V4a4 4 0 0 0-8.1 0v6.6a14.3 14.3 0 0 0-5.7 3.2l-5.8-3.3A4 4 0 0 0 .5 12A4 4 0 0 0 2 17.5l5.8 3.3a13.7 13.7 0 0 0 0 6.4L2 30.5A4 4 0 0 0 .5 36a4 4 0 0 0 3.6 2a4 4 0 0 0 2-.5l5.8-3.3a13.6 13.6 0 0 0 2.6 2a13.8 13.8 0 0 0 3 1.2V44a4 4 0 0 0 8 0v-6.6a14.2 14.2 0 0 0 5.8-3.2l5.8 3.3a4 4 0 0 0 2 .5a4 4 0 0 0 3.5-2a4 4 0 0 0-1.4-5.5Zm-22.6-1.3a6 6 0 0 1-2.3-8.2a6.1 6.1 0 0 1 5.3-3a6.2 6.2 0 0 1 3 .8A6 6 0 0 1 27 27a6.1 6.1 0 0 1-8.3 2.2Z" opacity="0"><animateTransform additive="sum" attributeName="transform" dur="6s" repeatCount="indefinite" type="rotate" values="0 24 24; 360 24 24"/><animate id="meteoconsPartlyCloudyNightSnow4" attributeName="opacity" begin="0s; t1.end+1s" dur="2s" keyTimes="0; .17; .83; 1" values="0; 1; 1; 0"/></path><animateTransform id="meteoconsPartlyCloudyNightSnow5" additive="sum" attributeName="transform" begin="0s; s1.end+1s" dur="2s" type="translate" values="0 -36; 0 92;"/></g><g><path fill="#86c3db" d="m97.2 30.5l-5.8-3.3a13.7 13.7 0 0 0 0-6.4l5.8-3.3a4 4 0 0 0 1.5-5.5a4 4 0 0 0-5.6-1.5l-5.8 3.3a13.6 13.6 0 0 0-2.6-2a13.8 13.8 0 0 0-3-1.2V4a4 4 0 0 0-8.1 0v6.6a14.3 14.3 0 0 0-5.7 3.2l-5.8-3.3a4 4 0 0 0-5.6 1.5a4 4 0 0 0 1.5 5.5l5.8 3.3a13.7 13.7 0 0 0 0 6.4L58 30.5a4 4 0 0 0-1.5 5.5a4 4 0 0 0 3.6 2a4 4 0 0 0 2-.5l5.8-3.3a13.6 13.6 0 0 0 2.6 2a13.8 13.8 0 0 0 3 1.2V44a4 4 0 0 0 8 0v-6.6a14.2 14.2 0 0 0 5.8-3.2l5.8 3.3a4 4 0 0 0 2 .5a4 4 0 0 0 3.5-2a4 4 0 0 0-1.4-5.5Zm-22.6-1.3a6 6 0 0 1-2.3-8.2a6.1 6.1 0 0 1 5.3-3a6.2 6.2 0 0 1 3 .8A6 6 0 0 1 83 27a6.1 6.1 0 0 1-8.3 2.2Z" opacity="0"><animateTransform additive="sum" attributeName="transform" dur="6s" repeatCount="indefinite" type="rotate" values="0 80 24; 360 80 24"/><animate id="meteoconsPartlyCloudyNightSnow6" attributeName="opacity" begin="-.83s; t2.end+1s" dur="2s" keyTimes="0; .17; .83; 1" values="0; 1; 1; 0"/></path><animateTransform id="meteoconsPartlyCloudyNightSnow7" additive="sum" attributeName="transform" begin="-.83s; s2.end+1s" dur="2s" type="translate" values="0 -36; 0 92;"/></g><g><path fill="#86c3db" d="m153.2 30.5l-5.8-3.3a13.7 13.7 0 0 0 0-6.4l5.8-3.3a4 4 0 0 0 1.5-5.5a4 4 0 0 0-5.6-1.5l-5.8 3.3a13.6 13.6 0 0 0-2.6-2a13.8 13.8 0 0 0-3-1.2V4a4 4 0 0 0-8.1 0v6.6a14.3 14.3 0 0 0-5.7 3.2l-5.8-3.3a4 4 0 0 0-5.6 1.5a4 4 0 0 0 1.5 5.5l5.8 3.3a13.7 13.7 0 0 0 0 6.4l-5.8 3.3a4 4 0 0 0-1.5 5.5a4 4 0 0 0 3.6 2a4 4 0 0 0 2-.5l5.8-3.3a13.6 13.6 0 0 0 2.6 2a13.8 13.8 0 0 0 3 1.2V44a4 4 0 0 0 8 0v-6.6a14.2 14.2 0 0 0 5.8-3.2l5.8 3.3a4 4 0 0 0 2 .5a4 4 0 0 0 3.5-2a4 4 0 0 0-1.4-5.5Zm-22.6-1.3a6 6 0 0 1-2.3-8.2a6.1 6.1 0 0 1 5.3-3a6.2 6.2 0 0 1 3 .8a6 6 0 0 1 2.2 8.2a6.1 6.1 0 0 1-8.2 2.2Z" opacity="0"><animateTransform additive="sum" attributeName="transform" dur="6s" repeatCount="indefinite" type="rotate" values="0 136 24; 360 136 24"/><animate id="meteoconsPartlyCloudyNightSnow8" attributeName="opacity" begin=".83s; t3.end+1s" dur="2s" keyTimes="0; .17; .83; 1" values="0; 1; 1; 0"/></path><animateTransform id="meteoconsPartlyCloudyNightSnow9" additive="sum" attributeName="transform" begin=".83s; s3.end+1s" dur="2s" type="translate" values="0 -36; 0 92;"/></g></symbol><clipPath id="meteoconsPartlyCloudyNightSnowa"><path fill="none" d="M288 148a83.8 83.8 0 0 0-71.4 40a56 56 0 0 0-84.6 48a56.6 56.6 0 0 0 .8 9A60 60 0 0 0 84 304H0V0h288Z"/></clipPath></defs><use width="435.5" height="371.5" href="#meteoconsPartlyCloudyNightSnow2"/><use width="155.2" height="48" href="#meteoconsPartlyCloudyNightSnow3" transform="translate(178.4 338)"/></svg>