<svg xmlns="http://www.w3.org/2000/svg" viewBox="0 0 512 512"><defs><linearGradient id="meteoconsPartlyCloudyDayHazeFill0" x1="99.5" x2="232.6" y1="30.7" y2="261.4" gradientUnits="userSpaceOnUse"><stop offset="0" stop-color="#f3f7fe"/><stop offset=".5" stop-color="#f3f7fe"/><stop offset="1" stop-color="#deeafb"/></linearGradient><linearGradient id="meteoconsPartlyCloudyDayHazeFill1" x1="17.3" x2="89.3" y1="43.1" y2="167.8" gradientUnits="userSpaceOnUse"><stop offset="0" stop-color="#d4d7dd"/><stop offset=".5" stop-color="#d4d7dd"/><stop offset="1" stop-color="#bec1c6"/></linearGradient><linearGradient id="meteoconsPartlyCloudyDayHazeFill2" x1="107.3" x2="179.3" y1="-8.8" y2="115.9" href="#meteoconsPartlyCloudyDayHazeFill1"/><linearGradient id="meteoconsPartlyCloudyDayHazeFill3" x1="174.8" x2="246.8" y1="-47.8" y2="76.9" href="#meteoconsPartlyCloudyDayHazeFill1"/><linearGradient id="meteoconsPartlyCloudyDayHazeFill4" x2="89.3" y1="-4.9" y2="119.8" href="#meteoconsPartlyCloudyDayHazeFill1"/><linearGradient id="meteoconsPartlyCloudyDayHazeFill5" x1="107.3" x2="179.3" y1="-56.9" y2="67.9" href="#meteoconsPartlyCloudyDayHazeFill1"/><linearGradient id="meteoconsPartlyCloudyDayHazeFill6" x1="174.8" x2="246.8" y1="-95.8" y2="28.9" href="#meteoconsPartlyCloudyDayHazeFill1"/><linearGradient id="meteoconsPartlyCloudyDayHazeFill7" x1="78" x2="118" y1="63.4" y2="132.7" gradientUnits="userSpaceOnUse"><stop offset="0" stop-color="#fbbf24"/><stop offset=".5" stop-color="#fbbf24"/><stop offset="1" stop-color="#f59e0b"/></linearGradient><symbol id="meteoconsPartlyCloudyDayHazeFill8" viewBox="0 0 196 196"><circle cx="98" cy="98" r="40" fill="url(#meteoconsPartlyCloudyDayHazeFill7)" stroke="#f8af18" stroke-miterlimit="10" stroke-width="4"/><path fill="none" stroke="#fbbf24" stroke-linecap="round" stroke-miterlimit="10" stroke-width="12" d="M98 31.4V6m0 184v-25.4M145.1 51l18-17.9M33 163l18-17.9M51 51L33 33m130.1 130.1l-18-18M6 98h25.4M190 98h-25.4"><animateTransform additive="sum" attributeName="transform" dur="6s" repeatCount="indefinite" type="rotate" values="0 98 98; 45 98 98"/></path></symbol><symbol id="meteoconsPartlyCloudyDayHazeFill9" viewBox="0 0 350 222"><path fill="url(#meteoconsPartlyCloudyDayHazeFill0)" stroke="#e6effc" stroke-miterlimit="10" stroke-width="6" d="m291 107l-2.5.1A83.9 83.9 0 0 0 135.6 43A56 56 0 0 0 51 91a56.6 56.6 0 0 0 .8 9A60 60 0 0 0 63 219l4-.2v.2h224a56 56 0 0 0 0-112Z"/></symbol><symbol id="meteoconsPartlyCloudyDayHazeFilla" viewBox="0 0 363 258"><use width="196" height="196" href="#meteoconsPartlyCloudyDayHazeFill8"/><use width="350" height="222" href="#meteoconsPartlyCloudyDayHazeFill9" transform="translate(13 36)"/></symbol><symbol id="meteoconsPartlyCloudyDayHazeFillb" viewBox="0 0 264 72"><g><path fill="none" stroke="url(#meteoconsPartlyCloudyDayHazeFill1)" stroke-linecap="round" stroke-miterlimit="10" stroke-width="24" d="M12 60h30"/><path fill="none" stroke="url(#meteoconsPartlyCloudyDayHazeFill2)" stroke-dasharray="60 60" stroke-linecap="round" stroke-miterlimit="10" stroke-width="24" d="M102 60h90"/><path fill="none" stroke="url(#meteoconsPartlyCloudyDayHazeFill3)" stroke-linecap="round" stroke-miterlimit="10" stroke-width="24" d="M222 60h30"/><animateTransform additive="sum" attributeName="transform" dur="6s" repeatCount="indefinite" type="translate" values="-24 0; 24 0; -24 0"/></g><g><path fill="none" stroke="url(#meteoconsPartlyCloudyDayHazeFill4)" stroke-linecap="round" stroke-miterlimit="10" stroke-width="24" d="M12 12h30"/><path fill="none" stroke="url(#meteoconsPartlyCloudyDayHazeFill5)" stroke-dasharray="60 60" stroke-linecap="round" stroke-miterlimit="10" stroke-width="24" d="M102 12h90"/><path fill="none" stroke="url(#meteoconsPartlyCloudyDayHazeFill6)" stroke-linecap="round" stroke-miterlimit="10" stroke-width="24" d="M222 12h30"/><animateTransform additive="sum" attributeName="transform" dur="6s" repeatCount="indefinite" type="translate" values="24 0; -24 0; 24 0"/></g></symbol></defs><use width="363" height="258" href="#meteoconsPartlyCloudyDayHazeFilla" transform="translate(68 109)"/><use width="264" height="72" href="#meteoconsPartlyCloudyDayHazeFillb" transform="translate(124 402)"/></svg>