<svg xmlns="http://www.w3.org/2000/svg" viewBox="0 0 512 512"><defs><linearGradient id="meteoconsPartlyCloudyNightDrizzleFill0" x1="99.5" x2="232.6" y1="30.7" y2="261.4" gradientUnits="userSpaceOnUse"><stop offset="0" stop-color="#f3f7fe"/><stop offset=".5" stop-color="#f3f7fe"/><stop offset="1" stop-color="#deeafb"/></linearGradient><linearGradient id="meteoconsPartlyCloudyNightDrizzleFill1" x1="34.7" x2="119.2" y1="18.6" y2="165" gradientUnits="userSpaceOnUse"><stop offset="0" stop-color="#86c3db"/><stop offset=".5" stop-color="#86c3db"/><stop offset="1" stop-color="#5eafcf"/></linearGradient><linearGradient id="meteoconsPartlyCloudyNightDrizzleFill2" x1="1301.9" x2="1311.3" y1="-576" y2="-551.3" gradientTransform="rotate(-9 6634.063 6929.524)" gradientUnits="userSpaceOnUse"><stop offset="0" stop-color="#0b65ed"/><stop offset=".5" stop-color="#0a5ad4"/><stop offset="1" stop-color="#0950bc"/></linearGradient><linearGradient id="meteoconsPartlyCloudyNightDrizzleFill3" x1="1357.2" x2="1366.6" y1="-567.2" y2="-542.6" href="#meteoconsPartlyCloudyNightDrizzleFill2"/><linearGradient id="meteoconsPartlyCloudyNightDrizzleFill4" x1="1412.5" x2="1422" y1="-558.5" y2="-533.8" href="#meteoconsPartlyCloudyNightDrizzleFill2"/><symbol id="meteoconsPartlyCloudyNightDrizzleFill5" viewBox="0 0 172 172"><path fill="url(#meteoconsPartlyCloudyNightDrizzleFill1)" stroke="#72b9d5" stroke-linecap="round" stroke-linejoin="round" stroke-width="4" d="M160.6 107.4a84.8 84.8 0 0 1-85.4-84.3A83.3 83.3 0 0 1 78 2A84.7 84.7 0 0 0 2 85.7A84.8 84.8 0 0 0 87.4 170a85.2 85.2 0 0 0 82.6-63.1a88 88 0 0 1-9.4.5Z"><animateTransform additive="sum" attributeName="transform" dur="6s" repeatCount="indefinite" type="rotate" values="-15 86 86; 9 86 86; -15 86 86"/></path></symbol><symbol id="meteoconsPartlyCloudyNightDrizzleFill6" viewBox="0 0 350 222"><path fill="url(#meteoconsPartlyCloudyNightDrizzleFill0)" stroke="#e6effc" stroke-miterlimit="10" stroke-width="6" d="m291 107l-2.5.1A83.9 83.9 0 0 0 135.6 43A56 56 0 0 0 51 91a56.6 56.6 0 0 0 .8 9A60 60 0 0 0 63 219l4-.2v.2h224a56 56 0 0 0 0-112Z"/></symbol><symbol id="meteoconsPartlyCloudyNightDrizzleFill7" viewBox="0 0 351 246"><use width="172" height="172" href="#meteoconsPartlyCloudyNightDrizzleFill5"/><use width="350" height="222" href="#meteoconsPartlyCloudyNightDrizzleFill6" transform="translate(1 24)"/></symbol></defs><use width="351" height="246" href="#meteoconsPartlyCloudyNightDrizzleFill7" transform="translate(80 121)"/><path fill="url(#meteoconsPartlyCloudyNightDrizzleFill2)" stroke="#0a5ad4" stroke-miterlimit="10" d="M200 376a8 8 0 0 1-8-8v-12a8 8 0 0 1 16 0v12a8 8 0 0 1-8 8Z" opacity="0"><animateTransform id="meteoconsPartlyCloudyNightDrizzleFill8" additive="sum" attributeName="transform" begin="0s; x1.end+1s" dur="1s" keyTimes="0; .25; 1" type="translate" values="0 -32; 0 -32; 0 120;"/><animate id="meteoconsPartlyCloudyNightDrizzleFill9" attributeName="opacity" begin="0s; y1.end+1s" dur="1s" keyTimes="0; .25; 1" values="0; 1; 0"/></path><path fill="url(#meteoconsPartlyCloudyNightDrizzleFill3)" stroke="#0a5ad4" stroke-miterlimit="10" d="M256 376a8 8 0 0 1-8-8v-12a8 8 0 0 1 16 0v12a8 8 0 0 1-8 8Z" opacity="0"><animateTransform id="meteoconsPartlyCloudyNightDrizzleFilla" additive="sum" attributeName="transform" begin="1.34s; x2.end+1s" dur="1s" keyTimes="0; .25; 1" type="translate" values="0 -32; 0 -32; 0 120;"/><animate id="meteoconsPartlyCloudyNightDrizzleFillb" attributeName="opacity" begin="1.34s; y2.end+1s" dur="1s" keyTimes="0; .25; 1" values="0; 1; 0"/></path><path fill="url(#meteoconsPartlyCloudyNightDrizzleFill4)" stroke="#0a5ad4" stroke-miterlimit="10" d="M312 376a8 8 0 0 1-8-8v-12a8 8 0 0 1 16 0v12a8 8 0 0 1-8 8Z" opacity="0"><animateTransform id="meteoconsPartlyCloudyNightDrizzleFillc" additive="sum" attributeName="transform" begin=".67s; x3.end+1s" dur="1s" keyTimes="0; .25; 1" type="translate" values="0 -32; 0 -32; 0 120;"/><animate id="meteoconsPartlyCloudyNightDrizzleFilld" attributeName="opacity" begin=".67s; y3.end+1s" dur="1s" keyTimes="0; .25; 1" values="0; 1; 0"/></path></svg>