<svg xmlns="http://www.w3.org/2000/svg" viewBox="0 0 512 512"><defs><symbol id="meteoconsPollenTree0" viewBox="0 0 232 72"><circle cx="116" cy="12" r="12" fill="#f8af18"><animateTransform attributeName="transform" begin="-0.33s" calcMode="spline" dur="3s" keySplines=".42, 0, .58, 1; .42, 0, .58, 1" repeatCount="indefinite" type="translate" values="0 -30; 0 30; 0 -30"/></circle><circle cx="156" cy="52" r="16" fill="#f8af18"><animateTransform attributeName="transform" begin="-1.17s" calcMode="spline" dur="3s" keySplines=".42, 0, .58, 1; .42, 0, .58, 1" repeatCount="indefinite" type="translate" values="0 -30; 0 30; 0 -30"/></circle><circle cx="76" cy="52" r="16" fill="#f8af18"><animateTransform attributeName="transform" begin="-1s" calcMode="spline" dur="3s" keySplines=".42, 0, .58, 1; .42, 0, .58, 1" repeatCount="indefinite" type="translate" values="0 -30; 0 30; 0 -30"/></circle><circle cx="12" cy="60" r="12" fill="#f8af18"><animateTransform attributeName="transform" begin="-.67s" calcMode="spline" dur="3s" keySplines=".42, 0, .58, 1; .42, 0, .58, 1" repeatCount="indefinite" type="translate" values="0 -30; 0 30; 0 -30"/></circle><circle cx="220" cy="60" r="12" fill="#f8af18"><animateTransform attributeName="transform" begin="-1.5s" calcMode="spline" dur="3s" keySplines=".42, 0, .58, 1; .42, 0, .58, 1" repeatCount="indefinite" type="translate" values="0 -30; 0 30; 0 -30"/></circle><circle cx="180" cy="20" r="8" fill="#f8af18"><animateTransform attributeName="transform" begin="-1.33s" calcMode="spline" dur="3s" keySplines=".42, 0, .58, 1; .42, 0, .58, 1" repeatCount="indefinite" type="translate" values="0 -30; 0 30; 0 -30"/></circle><circle cx="52" cy="20" r="8" fill="#f8af18"><animateTransform attributeName="transform" begin="-.83s" calcMode="spline" dur="3s" keySplines=".42, 0, .58, 1; .42, 0, .58, 1" repeatCount="indefinite" type="translate" values="0 -30; 0 30; 0 -30"/></circle></symbol></defs><path fill="#744e2d" d="m265 403.6l-4-127a12 12 0 0 0-12-11.7h-5a12 12 0 0 0-12 11.7l-4 127a12 12 0 0 0 12 12.4h13.1a12 12 0 0 0 12-12.4Z"/><ellipse cx="293.9" cy="274.4" fill="#40c057" rx="42.7" ry="42.5"/><ellipse cx="185.2" cy="255.5" fill="#40c057" rx="42.7" ry="42.5"/><path fill="#40c057" d="M317.6 146.9a57.5 57.5 0 0 0-10.9 1.1a28.4 28.4 0 1 0-41.1 32.8a56.2 56.2 0 0 0-4.9 22.8a56.9 56.9 0 1 0 57-56.7Z"/><path fill="#39ad4e" d="M289.2 184.7a57 57 0 0 0-106.3-28.1c-1 0-1.8-.3-2.8-.3a42.4 42.4 0 0 0-11.8 83.1a28 28 0 0 0-2.4 11.3A28.3 28.3 0 0 0 213 272a42.6 42.6 0 0 0 76.2-26a42 42 0 0 0-10.9-28.1a56.1 56.1 0 0 0 10.9-33.2Z"/><use width="232" height="72" href="#meteoconsPollenTree0" transform="translate(140 90)"/></svg>