<svg xmlns="http://www.w3.org/2000/svg" viewBox="0 0 512 512"><defs><linearGradient id="meteoconsPollenFlowerFill0" x1="111" x2="123" y1="2.6" y2="23.4" gradientUnits="userSpaceOnUse"><stop offset="0" stop-color="#fbbf24"/><stop offset=".5" stop-color="#fbbf24"/><stop offset="1" stop-color="#f59e0b"/></linearGradient><linearGradient id="meteoconsPollenFlowerFill1" x1="149" x2="165" y1="39.1" y2="66.9" href="#meteoconsPollenFlowerFill0"/><linearGradient id="meteoconsPollenFlowerFill2" x1="69" x2="85" y1="39.1" y2="66.9" href="#meteoconsPollenFlowerFill0"/><linearGradient id="meteoconsPollenFlowerFill3" x1="7" x2="19" y1="50.6" y2="71.4" href="#meteoconsPollenFlowerFill0"/><linearGradient id="meteoconsPollenFlowerFill4" x1="215" x2="227" y1="50.6" y2="71.4" href="#meteoconsPollenFlowerFill0"/><linearGradient id="meteoconsPollenFlowerFill5" x1="177" x2="185" y1="14.1" y2="27.9" href="#meteoconsPollenFlowerFill0"/><linearGradient id="meteoconsPollenFlowerFill6" x1="49" x2="57" y1="14.1" y2="27.9" href="#meteoconsPollenFlowerFill0"/><linearGradient id="meteoconsPollenFlowerFill7" x1="205.3" x2="306.6" y1="184.3" y2="359.7" gradientUnits="userSpaceOnUse"><stop offset="0" stop-color="#f783ac"/><stop offset=".5" stop-color="#f783ac"/><stop offset="1" stop-color="#e64980"/></linearGradient><linearGradient id="meteoconsPollenFlowerFill8" x1="205.7" x2="306.3" y1="272" y2="272" href="#meteoconsPollenFlowerFill0"/><symbol id="meteoconsPollenFlowerFill9" viewBox="0 0 234 74"><circle cx="117" cy="13" r="12" fill="url(#meteoconsPollenFlowerFill0)" stroke="#f8af18" stroke-miterlimit="10" stroke-width="2"><animateTransform attributeName="transform" begin="-0.33s" calcMode="spline" dur="3s" keySplines=".42, 0, .58, 1; .42, 0, .58, 1" repeatCount="indefinite" type="translate" values="0 -30; 0 30; 0 -30"/></circle><circle cx="157" cy="53" r="16" fill="url(#meteoconsPollenFlowerFill1)" stroke="#f8af18" stroke-miterlimit="10" stroke-width="2"><animateTransform attributeName="transform" begin="-1.17s" calcMode="spline" dur="3s" keySplines=".42, 0, .58, 1; .42, 0, .58, 1" repeatCount="indefinite" type="translate" values="0 -30; 0 30; 0 -30"/></circle><circle cx="77" cy="53" r="16" fill="url(#meteoconsPollenFlowerFill2)" stroke="#f8af18" stroke-miterlimit="10" stroke-width="2"><animateTransform attributeName="transform" begin="-1s" calcMode="spline" dur="3s" keySplines=".42, 0, .58, 1; .42, 0, .58, 1" repeatCount="indefinite" type="translate" values="0 -30; 0 30; 0 -30"/></circle><circle cx="13" cy="61" r="12" fill="url(#meteoconsPollenFlowerFill3)" stroke="#f8af18" stroke-miterlimit="10" stroke-width="2"><animateTransform attributeName="transform" begin="-.67s" calcMode="spline" dur="3s" keySplines=".42, 0, .58, 1; .42, 0, .58, 1" repeatCount="indefinite" type="translate" values="0 -30; 0 30; 0 -30"/></circle><circle cx="221" cy="61" r="12" fill="url(#meteoconsPollenFlowerFill4)" stroke="#f8af18" stroke-miterlimit="10" stroke-width="2"><animateTransform attributeName="transform" begin="-1.5s" calcMode="spline" dur="3s" keySplines=".42, 0, .58, 1; .42, 0, .58, 1" repeatCount="indefinite" type="translate" values="0 -30; 0 30; 0 -30"/></circle><circle cx="181" cy="21" r="8" fill="url(#meteoconsPollenFlowerFill5)" stroke="#f8af18" stroke-miterlimit="10" stroke-width="2"><animateTransform attributeName="transform" begin="-1.33s" calcMode="spline" dur="3s" keySplines=".42, 0, .58, 1; .42, 0, .58, 1" repeatCount="indefinite" type="translate" values="0 -30; 0 30; 0 -30"/></circle><circle cx="53" cy="21" r="8" fill="url(#meteoconsPollenFlowerFill6)" stroke="#f8af18" stroke-miterlimit="10" stroke-width="2"><animateTransform attributeName="transform" begin="-.83s" calcMode="spline" dur="3s" keySplines=".42, 0, .58, 1; .42, 0, .58, 1" repeatCount="indefinite" type="translate" values="0 -30; 0 30; 0 -30"/></circle></symbol></defs><path fill="url(#meteoconsPollenFlowerFill7)" stroke="#f06595" stroke-miterlimit="10" stroke-width="2" d="M327.5 258.6a74.1 74.1 0 0 0-17.7-5.8a74.3 74.3 0 0 0 10-15.8c13.5-28.5 7.1-59.8-14.2-69.8s-49.6 4.8-63 33.3a74.3 74.3 0 0 0-5.8 17.7a74.5 74.5 0 0 0-15.7-10c-28.5-13.5-59.8-7.1-70 14.2s5 49.6 33.4 63a74.6 74.6 0 0 0 17.7 5.8a74.3 74.3 0 0 0-10 15.8c-13.4 28.5-7 59.7 14.3 69.8s49.5-4.8 63-33.3a74.2 74.2 0 0 0 5.7-17.7a75 75 0 0 0 15.8 10c28.5 13.4 59.8 7 69.9-14.3s-4.9-49.5-33.4-63Zm-72.3 15l-1.8-.7l1-1.7l.7-1.8l1.7 1l1.8.7l-1 1.7l-.7 1.8l-1.7-1Z"/><path fill="url(#meteoconsPollenFlowerFill8)" stroke="#f8af18" stroke-miterlimit="10" stroke-width="2" d="M306.3 276.2c-.2-5.9-32-7.2-32-7.2s29-4 26.6-10.6c-.3-.8-1.4-1.3-3.1-1.4c1.2-1 1.8-2.1 1.5-3c-2.3-6.5-27.3 8.7-27.3 8.7s23.8-21.2 20.1-25.8s-22.4 16.9-22.4 16.9s15.5-26.4 8.9-29.6s-17.3 25.6-17.3 25.6s4.8-28.2-1.1-28s-7.2 32-7.2 32s-4-29-10.6-26.6c-.9.3-1.3 1.4-1.4 3c-1.1-1.2-2.2-1.8-3-1.5c-6.5 2.3 8.7 27.3 8.7 27.3s-21.2-23.8-25.8-20.1s16.9 22.4 16.9 22.4s-26.4-15.5-29.6-8.8s25.6 17.2 25.6 17.2s-28.2-4.7-28 1.2s31.9 7.1 31.9 7.1s-29 4-26.6 10.6c.3.9 1.4 1.3 3.1 1.4c-1.2 1.1-1.8 2.1-1.5 3c2.3 6.5 27.3-8.7 27.3-8.7s-23.8 21.2-20.2 25.8s22.4-17 22.4-17s-15.5 26.5-8.8 29.7s17.3-25.6 17.3-25.6s-4.8 28.2 1.1 28s7.2-32 7.2-32s4 29 10.6 26.6c.8-.3 1.3-1.4 1.4-3c1 1.2 2.1 1.8 3 1.4c6.5-2.3-8.7-27.2-8.7-27.2s21.1 23.8 25.8 20.1s-17-22.4-17-22.4s26.5 15.5 29.6 8.8s-25.5-17.2-25.5-17.2s28.2 4.8 28-1.1Z"/><use width="234" height="74" href="#meteoconsPollenFlowerFill9" transform="translate(139 131)"/></svg>