<svg xmlns="http://www.w3.org/2000/svg" viewBox="0 0 512 512"><defs><linearGradient id="meteoconsRainbowClearFill0" x1="54" x2="125.8" y1="16.9" y2="141.3" gradientUnits="userSpaceOnUse"><stop offset="0" stop-color="#f3f7fe"/><stop offset=".5" stop-color="#f3f7fe"/><stop offset="1" stop-color="#deeafb"/></linearGradient><linearGradient id="meteoconsRainbowClearFill1" x1="78" x2="118" y1="63.4" y2="132.7" gradientUnits="userSpaceOnUse"><stop offset="0" stop-color="#fbbf24"/><stop offset=".5" stop-color="#fbbf24"/><stop offset="1" stop-color="#f59e0b"/></linearGradient><linearGradient id="meteoconsRainbowClearFill2" x1="160.3" x2="278.9" y1="168.9" y2="374.2" gradientUnits="userSpaceOnUse"><stop offset="0" stop-color="#f87171"/><stop offset=".5" stop-color="#f87171"/><stop offset="1" stop-color="#dc2626"/></linearGradient><linearGradient id="meteoconsRainbowClearFill3" x1="171" x2="271.5" y1="190.5" y2="364.6" href="#meteoconsRainbowClearFill1"/><linearGradient id="meteoconsRainbowClearFill4" x1="118" x2="342" y1="256" y2="256" gradientUnits="userSpaceOnUse"><stop offset="0" stop-color="#51cf66"/><stop offset=".5" stop-color="#51cf66"/><stop offset="1" stop-color="#37b24d"/></linearGradient><symbol id="meteoconsRainbowClearFill5" viewBox="0 0 196 196"><circle cx="98" cy="98" r="40" fill="url(#meteoconsRainbowClearFill1)" stroke="#f8af18" stroke-miterlimit="10" stroke-width="4"/><path fill="none" stroke="#fbbf24" stroke-linecap="round" stroke-miterlimit="10" stroke-width="12" d="M98 31.4V6m0 184v-25.4M145.1 51l18-17.9M33 163l18-17.9M51 51L33 33m130.1 130.1l-18-18M6 98h25.4M190 98h-25.4"><animateTransform additive="sum" attributeName="transform" dur="6s" repeatCount="indefinite" type="rotate" values="0 98 98; 45 98 98"/></path></symbol><symbol id="meteoconsRainbowClearFill6" viewBox="0 0 189.5 120.5"><path fill="url(#meteoconsRainbowClearFill0)" stroke="#e6effc" stroke-miterlimit="10" stroke-width="4" d="m157.3 58l-1.4.1a45.8 45.8 0 0 0 1.4-10.8a45.3 45.3 0 0 0-83.8-23.8a30.1 30.1 0 0 0-45.6 26a30.5 30.5 0 0 0 .4 4.9a32.3 32.3 0 0 0 6 64h123a30.2 30.2 0 0 0 0-60.3Z"><animateTransform additive="sum" attributeName="transform" dur="6s" repeatCount="indefinite" type="translate" values="-12 0; 12 0; -12 0"/></path></symbol><clipPath id="meteoconsRainbowClearFill7"><path fill="none" d="M238 59.1H36V268h52.4l67.4-82.6l82.2-19.2V59.1z"/></clipPath></defs><g clip-path="url(#meteoconsRainbowClearFill7)"><use width="196" height="196" href="#meteoconsRainbowClearFill5" transform="translate(48 78)"/></g><path fill="none" stroke="url(#meteoconsRainbowClearFill2)" stroke-miterlimit="10" stroke-width="24" d="M82 310c0-79.5 66.3-144 148-144s148 64.5 148 144"/><path fill="none" stroke="url(#meteoconsRainbowClearFill3)" stroke-miterlimit="10" stroke-width="24" d="M106 310c0-66.3 55.5-120 124-120s124 53.7 124 120"/><path fill="none" stroke="url(#meteoconsRainbowClearFill4)" stroke-miterlimit="10" stroke-width="24" d="M130 310c0-53 44.8-96 100-96s100 43 100 96"/><use width="189.5" height="120.5" href="#meteoconsRainbowClearFill6" transform="translate(239.94 223.59)"/></svg>