<svg xmlns="http://www.w3.org/2000/svg" viewBox="0 0 512 512"><defs><linearGradient id="meteoconsRainbowFill0" x1="54" x2="125.8" y1="16.9" y2="141.3" gradientUnits="userSpaceOnUse"><stop offset="0" stop-color="#f3f7fe"/><stop offset=".5" stop-color="#f3f7fe"/><stop offset="1" stop-color="#deeafb"/></linearGradient><linearGradient id="meteoconsRainbowFill1" x1="160.3" x2="278.9" y1="168.9" y2="374.2" gradientUnits="userSpaceOnUse"><stop offset="0" stop-color="#f87171"/><stop offset=".5" stop-color="#f87171"/><stop offset="1" stop-color="#dc2626"/></linearGradient><linearGradient id="meteoconsRainbowFill2" x1="171" x2="271.5" y1="190.5" y2="364.6" gradientUnits="userSpaceOnUse"><stop offset="0" stop-color="#fbbf24"/><stop offset=".5" stop-color="#fbbf24"/><stop offset="1" stop-color="#f59e0b"/></linearGradient><linearGradient id="meteoconsRainbowFill3" x1="118" x2="342" y1="256" y2="256" gradientUnits="userSpaceOnUse"><stop offset="0" stop-color="#51cf66"/><stop offset=".5" stop-color="#51cf66"/><stop offset="1" stop-color="#37b24d"/></linearGradient><symbol id="meteoconsRainbowFill4" viewBox="0 0 189.5 120.5"><path fill="url(#meteoconsRainbowFill0)" stroke="#e6effc" stroke-miterlimit="10" stroke-width="4" d="m157.3 58l-1.4.1a45.8 45.8 0 0 0 1.4-10.8a45.3 45.3 0 0 0-83.8-23.8a30.1 30.1 0 0 0-45.6 26a30.5 30.5 0 0 0 .4 4.9a32.3 32.3 0 0 0 6 64h123a30.2 30.2 0 0 0 0-60.3Z"><animateTransform additive="sum" attributeName="transform" dur="6s" repeatCount="indefinite" type="translate" values="-12 0; 12 0; -12 0"/></path></symbol></defs><path fill="none" stroke="url(#meteoconsRainbowFill1)" stroke-miterlimit="10" stroke-width="24" d="M82 310c0-79.5 66.3-144 148-144s148 64.5 148 144"/><path fill="none" stroke="url(#meteoconsRainbowFill2)" stroke-miterlimit="10" stroke-width="24" d="M106 310c0-66.3 55.5-120 124-120s124 53.7 124 120"/><path fill="none" stroke="url(#meteoconsRainbowFill3)" stroke-miterlimit="10" stroke-width="24" d="M130 310c0-53 44.8-96 100-96s100 43 100 96"/><use width="189.5" height="120.5" href="#meteoconsRainbowFill4" transform="translate(239.94 223.59)"/></svg>