<svg xmlns="http://www.w3.org/2000/svg" viewBox="0 0 512 512"><defs><linearGradient id="meteoconsSnowmanFill0" x1="214" x2="298" y1="257.2" y2="402.8" gradientUnits="userSpaceOnUse"><stop offset="0" stop-color="#f3f7fe"/><stop offset=".5" stop-color="#f3f7fe"/><stop offset="1" stop-color="#deeafb"/></linearGradient><linearGradient id="meteoconsSnowmanFill1" x1="317.5" x2="332.5" y1="284" y2="310" href="#meteoconsSnowmanFill0"/><linearGradient id="meteoconsSnowmanFill2" x1="179.5" x2="194.5" y1="284" y2="310" href="#meteoconsSnowmanFill0"/><linearGradient id="meteoconsSnowmanFill3" x1="226" x2="286" y1="150" y2="254" href="#meteoconsSnowmanFill0"/><linearGradient id="meteoconsSnowmanFill4" x1="241.3" x2="270.8" y1="229.5" y2="280.5" gradientUnits="userSpaceOnUse"><stop offset="0" stop-color="#f87171"/><stop offset=".5" stop-color="#f87171"/><stop offset="1" stop-color="#dc2626"/></linearGradient><linearGradient id="meteoconsSnowmanFill5" x1="397.9" x2="443.7" y1="606.3" y2="685.5" gradientTransform="rotate(-15 -1550.768 1090.217)" gradientUnits="userSpaceOnUse"><stop offset="0" stop-color="#495057"/><stop offset=".5" stop-color="#495057"/><stop offset="1" stop-color="#212529"/></linearGradient><linearGradient id="meteoconsSnowmanFill6" x1="252" x2="260" y1="198.2" y2="212.1" gradientUnits="userSpaceOnUse"><stop offset="0" stop-color="#ffc078"/><stop offset=".5" stop-color="#ffc078"/><stop offset="1" stop-color="#ff922b"/></linearGradient></defs><circle cx="256" cy="330" r="84" fill="url(#meteoconsSnowmanFill0)" stroke="#e6effc" stroke-miterlimit="10" stroke-width="4"/><circle cx="325" cy="297" r="15" fill="url(#meteoconsSnowmanFill1)" stroke="#e6effc" stroke-miterlimit="10" stroke-width="4"/><circle cx="187" cy="297" r="15" fill="url(#meteoconsSnowmanFill2)" stroke="#e6effc" stroke-miterlimit="10" stroke-width="4"/><circle cx="256" cy="202" r="60" fill="url(#meteoconsSnowmanFill3)" stroke="#e6effc" stroke-miterlimit="10" stroke-width="4"/><path fill="#374151" d="M259 231a3 3 0 1 1-3-3a3 3 0 0 1 3 3Zm-12-5a3 3 0 1 0 3 3a3 3 0 0 0-3-3Zm-8-6a3 3 0 1 0 3 3a3 3 0 0 0-3-3Zm26 6a3 3 0 1 0 3 3a3 3 0 0 0-3-3Zm8-6a3 3 0 1 0 3 3a3 3 0 0 0-3-3Zm7-34a8 8 0 1 1-8-8a8 8 0 0 1 8 8Zm-40-8a8 8 0 1 0 8 8a8 8 0 0 0-8-8Z"/><path fill="url(#meteoconsSnowmanFill4)" stroke="#ef4444" stroke-miterlimit="10" stroke-width="2" d="M280 264h-65.2c-3.7 0-6.8-2.4-6.8-5.3v-7.4c0-3 3.3-5.5 7.3-5.3h81.4c4-.2 7.3 2.3 7.3 5.3v7.3c0 3-3 5.4-6.8 5.4Z"/><path fill="url(#meteoconsSnowmanFill5)" stroke="#343a40" stroke-miterlimit="10" stroke-width="4" d="m290 133.4l-24.1 6.5a.3.3 0 0 1-.3-.2l-9.3-34.5a4 4 0 0 0-5-2.9l-38.5 10.4a4 4 0 0 0-2.9 5l9.3 34.4a.3.3 0 0 1-.2.3l-24.2 6.5a6.7 6.7 0 0 0-4.7 8.2l2.7 10.2a6.7 6.7 0 0 0 8.3 4.7l95.2-25.4a6.7 6.7 0 0 0 4.7-8.3l-2.7-10.2a6.7 6.7 0 0 0-8.3-4.7Z"/><path fill="none" stroke="#ef4444" stroke-linecap="square" stroke-miterlimit="10" stroke-width="4" d="m222.1 147.4l38.6-10.3"/><circle cx="256" cy="205.2" r="8" fill="url(#meteoconsSnowmanFill6)" stroke="#ffa94d" stroke-miterlimit="10" stroke-width="2"/><path fill="#374151" d="M264 324a8 8 0 1 1-8-8a8 8 0 0 1 8 8Zm-8 16a8 8 0 1 0 8 8a8 8 0 0 0-8-8Zm0-48a8 8 0 1 0 8 8a8 8 0 0 0-8-8Z"/></svg>