<svg xmlns="http://www.w3.org/2000/svg" viewBox="0 0 512 512"><defs><linearGradient id="meteoconsSnowFill0" x1="99.5" x2="232.6" y1="30.7" y2="261.4" gradientUnits="userSpaceOnUse"><stop offset="0" stop-color="#f3f7fe"/><stop offset=".5" stop-color="#f3f7fe"/><stop offset="1" stop-color="#deeafb"/></linearGradient><linearGradient id="meteoconsSnowFill1" x1="11.4" x2="32.8" y1="5.9" y2="43.1" gradientUnits="userSpaceOnUse"><stop offset="0" stop-color="#86c3db"/><stop offset=".5" stop-color="#86c3db"/><stop offset="1" stop-color="#5eafcf"/></linearGradient><linearGradient id="meteoconsSnowFill2" x1="67.4" x2="88.8" y1="5.9" y2="43.1" href="#meteoconsSnowFill1"/><linearGradient id="meteoconsSnowFill3" x1="123.4" x2="144.8" y1="5.9" y2="43.1" href="#meteoconsSnowFill1"/><symbol id="meteoconsSnowFill4" viewBox="0 0 350 222"><path fill="url(#meteoconsSnowFill0)" stroke="#e6effc" stroke-miterlimit="10" stroke-width="6" d="m291 107l-2.5.1A83.9 83.9 0 0 0 135.6 43A56 56 0 0 0 51 91a56.6 56.6 0 0 0 .8 9A60 60 0 0 0 63 219l4-.2v.2h224a56 56 0 0 0 0-112Z"/></symbol><symbol id="meteoconsSnowFill5" viewBox="0 0 156.2 49"><g><path fill="url(#meteoconsSnowFill1)" stroke="#86c3db" stroke-miterlimit="10" d="m41.7 31l-5.8-3.3a13.7 13.7 0 0 0 0-6.5l5.8-3.2a4 4 0 0 0 1.5-5.5a4 4 0 0 0-5.6-1.5l-5.8 3.3a13.6 13.6 0 0 0-2.6-2a13.8 13.8 0 0 0-3-1.3V4.5a4 4 0 0 0-8.1 0v6.6a14.3 14.3 0 0 0-5.7 3.2L6.6 11A4 4 0 0 0 1 12.5A4 4 0 0 0 2.5 18l5.8 3.3a13.7 13.7 0 0 0 0 6.5L2.5 31A4 4 0 0 0 1 36.5a4 4 0 0 0 3.5 2a4 4 0 0 0 2-.5l5.8-3.3a13.6 13.6 0 0 0 2.6 2a13.8 13.8 0 0 0 3 1.2v6.6a4 4 0 0 0 8.2 0v-6.6a14.2 14.2 0 0 0 5.6-3.2l6 3.3a4 4 0 0 0 2 .5a4 4 0 0 0 3.4-2a4 4 0 0 0-1.4-5.5ZM19 29.7a6 6 0 0 1-2.3-8.2a6.1 6.1 0 0 1 5.3-3a6.2 6.2 0 0 1 3 .8a6 6 0 0 1 2.2 8.2a6.1 6.1 0 0 1-8.2 2.2Z" opacity="0"><animateTransform additive="sum" attributeName="transform" dur="6s" repeatCount="indefinite" type="rotate" values="0 24 24; 360 24 24"/><animate id="meteoconsSnowFill6" attributeName="opacity" begin="0s; t1.end+1s" dur="2s" keyTimes="0; .17; .83; 1" values="0; 1; 1; 0"/></path><animateTransform id="meteoconsSnowFill7" additive="sum" attributeName="transform" begin="0s; s1.end+1s" dur="2s" type="translate" values="0 -36; 0 92;"/></g><g><path fill="url(#meteoconsSnowFill2)" stroke="#86c3db" stroke-miterlimit="10" d="m97.7 31l-5.8-3.3a13.7 13.7 0 0 0 0-6.5l5.8-3.2a4 4 0 0 0 1.5-5.5a4 4 0 0 0-5.6-1.5l-5.8 3.3a13.6 13.6 0 0 0-2.6-2a13.8 13.8 0 0 0-3-1.3V4.5a4 4 0 0 0-8.1 0v6.6a14.3 14.3 0 0 0-5.7 3.2L62.6 11a4 4 0 0 0-5.6 1.5a4 4 0 0 0 1.5 5.5l5.8 3.3a13.7 13.7 0 0 0 0 6.5L58.5 31a4 4 0 0 0-1.5 5.5a4 4 0 0 0 3.5 2a4 4 0 0 0 2-.5l5.8-3.3a13.6 13.6 0 0 0 2.7 2a13.8 13.8 0 0 0 3 1.2v6.6a4 4 0 0 0 8 0v-6.6a14.2 14.2 0 0 0 5.7-3.2l6 3.3a4 4 0 0 0 2 .5a4 4 0 0 0 3.4-2a4 4 0 0 0-1.4-5.5ZM75 29.7a6 6 0 0 1-2.3-8.2a6.1 6.1 0 0 1 5.3-3a6.2 6.2 0 0 1 3 .8a6 6 0 0 1 2.2 8.2a6.1 6.1 0 0 1-8.2 2.2Z" opacity="0"><animateTransform additive="sum" attributeName="transform" dur="6s" repeatCount="indefinite" type="rotate" values="0 80 24; 360 80 24"/><animate id="meteoconsSnowFill8" attributeName="opacity" begin="-.83s; t2.end+1s" dur="2s" keyTimes="0; .17; .83; 1" values="0; 1; 1; 0"/></path><animateTransform id="meteoconsSnowFill9" additive="sum" attributeName="transform" begin="-.83s; s2.end+1s" dur="2s" type="translate" values="0 -36; 0 92;"/></g><g><path fill="url(#meteoconsSnowFill3)" stroke="#86c3db" stroke-miterlimit="10" d="m153.7 31l-5.8-3.3a13.7 13.7 0 0 0 0-6.5l5.8-3.2a4 4 0 0 0 1.5-5.5a4 4 0 0 0-5.6-1.5l-5.8 3.3a13.6 13.6 0 0 0-2.6-2a13.8 13.8 0 0 0-3-1.3V4.5a4 4 0 0 0-8.1 0v6.6a14.3 14.3 0 0 0-5.7 3.2l-5.8-3.3a4 4 0 0 0-5.6 1.5a4 4 0 0 0 1.5 5.5l5.8 3.3a13.7 13.7 0 0 0 0 6.5l-5.8 3.2a4 4 0 0 0-1.5 5.5a4 4 0 0 0 3.5 2a4 4 0 0 0 2-.5l5.8-3.3a13.6 13.6 0 0 0 2.7 2a13.8 13.8 0 0 0 3 1.2v6.6a4 4 0 0 0 8 0v-6.6a14.2 14.2 0 0 0 5.7-3.2l5.8 3.3a4 4 0 0 0 2 .5a4 4 0 0 0 3.5-2a4 4 0 0 0-1.3-5.5ZM131 29.7a6 6 0 0 1-2.3-8.2a6.1 6.1 0 0 1 5.3-3a6.2 6.2 0 0 1 3 .8a6 6 0 0 1 2.2 8.2a6.1 6.1 0 0 1-8.2 2.2Z" opacity="0"><animateTransform additive="sum" attributeName="transform" dur="6s" repeatCount="indefinite" type="rotate" values="0 136 24; 360 136 24"/><animate id="meteoconsSnowFilla" attributeName="opacity" begin=".83s; t3.end+1s" dur="2s" keyTimes="0; .17; .83; 1" values="0; 1; 1; 0"/></path><animateTransform id="meteoconsSnowFillb" additive="sum" attributeName="transform" begin=".83s; s3.end+1s" dur="2s" type="translate" values="0 -36; 0 92;"/></g></symbol></defs><use width="350" height="222" href="#meteoconsSnowFill4" transform="translate(81 145)"/><use width="156.2" height="49" href="#meteoconsSnowFill5" transform="translate(177.9 337.5)"/></svg>