<svg xmlns="http://www.w3.org/2000/svg" viewBox="0 0 512 512"><defs><symbol id="meteoconsSolarEclipse0" viewBox="0 0 375 375"><circle cx="187.5" cy="187.5" r="84" fill="none" stroke="#fbbf24" stroke-miterlimit="10" stroke-width="15"/><path fill="none" stroke="#fbbf24" stroke-linecap="round" stroke-miterlimit="10" stroke-width="15" d="M187.5 57.2V7.5m0 360v-49.7m92.2-222.5l35-35M60.3 314.7l35.1-35.1m0-184.4l-35-35m254.5 254.5l-35.1-35.1M57.2 187.5H7.5m360 0h-49.7"><animateTransform additive="sum" attributeName="transform" dur="6s" repeatCount="indefinite" type="rotate" values="0 187.5 187.5; 45 187.5 187.5"/></path></symbol><symbol id="meteoconsSolarEclipse1" viewBox="0 0 279 279"><path fill="none" stroke="#72b9d5" stroke-linecap="round" stroke-linejoin="round" stroke-width="15" d="M256.8 173.1A133.3 133.3 0 0 1 122.4 40.7A130.5 130.5 0 0 1 127 7.5A133 133 0 0 0 7.5 139.1c0 73.1 60 132.4 134.2 132.4c62.5 0 114.8-42.2 129.8-99.2a135.6 135.6 0 0 1-14.8.8Z"/></symbol><clipPath id="meteoconsSolarEclipse2"><path fill="none" d="m238 139l6-73h224v226h-80l-55-6l-82-70l-13-77z"/></clipPath></defs><g clip-path="url(#meteoconsSolarEclipse2)"><use width="375" height="375" href="#meteoconsSolarEclipse0" transform="translate(74.5 76.5)"/></g><use width="279" height="279" href="#meteoconsSolarEclipse1" transform="translate(116.5 116.5)"/></svg>