<svg xmlns="http://www.w3.org/2000/svg" viewBox="0 0 512 512"><defs><linearGradient id="meteoconsSolarEclipseFill0" x1="54.3" x2="187.2" y1="29" y2="259.1" gradientUnits="userSpaceOnUse"><stop offset="0" stop-color="#86c3db"/><stop offset=".5" stop-color="#86c3db"/><stop offset="1" stop-color="#5eafcf"/></linearGradient><linearGradient id="meteoconsSolarEclipseFill1" x1="150" x2="234" y1="119.2" y2="264.8" gradientUnits="userSpaceOnUse"><stop offset="0" stop-color="#fbbf24"/><stop offset=".5" stop-color="#fbbf24"/><stop offset="1" stop-color="#f59e0b"/></linearGradient><symbol id="meteoconsSolarEclipseFill2" viewBox="0 0 384 384"><circle cx="192" cy="192" r="84" fill="url(#meteoconsSolarEclipseFill1)" stroke="#f8af18" stroke-miterlimit="10" stroke-width="6"/><path fill="none" stroke="#fbbf24" stroke-linecap="round" stroke-miterlimit="10" stroke-width="24" d="M192 61.7V12m0 360v-49.7m92.2-222.5l35-35M64.8 319.2l35.1-35.1m0-184.4l-35-35m254.5 254.5l-35.1-35.1M61.7 192H12m360 0h-49.7"><animateTransform additive="sum" attributeName="transform" dur="6s" repeatCount="indefinite" type="rotate" values="0 192 192; 45 192 192"/></path></symbol><symbol id="meteoconsSolarEclipseFill3" viewBox="0 0 270 270"><path fill="url(#meteoconsSolarEclipseFill0)" stroke="#72b9d5" stroke-linecap="round" stroke-linejoin="round" stroke-width="6" d="M252.3 168.6A133.4 133.4 0 0 1 118 36.2A130.5 130.5 0 0 1 122.5 3A133 133 0 0 0 3 134.6C3 207.7 63 267 137.2 267c62.5 0 114.8-42.2 129.8-99.2a135.6 135.6 0 0 1-14.8.8Z"/></symbol><clipPath id="meteoconsSolarEclipseFill4"><path fill="none" d="M244 138V66h224v240h-72l-72-8l-80-80v-80z"/></clipPath></defs><g clip-path="url(#meteoconsSolarEclipseFill4)"><use width="384" height="384" href="#meteoconsSolarEclipseFill2" transform="translate(70 72)"/></g><use width="270" height="270" href="#meteoconsSolarEclipseFill3" transform="translate(121 121)"/></svg>