<svg xmlns="http://www.w3.org/2000/svg" viewBox="0 0 512 512"><defs><symbol id="meteoconsThermometerMoon0" viewBox="0 0 178 178"><path fill="none" stroke="#72b9d5" stroke-linecap="round" stroke-linejoin="round" stroke-width="10" d="M163.6 110.4a84.8 84.8 0 0 1-85.4-84.3A83.3 83.3 0 0 1 81 5A84.7 84.7 0 0 0 5 88.7A84.8 84.8 0 0 0 90.4 173a85.2 85.2 0 0 0 82.6-63.1a88 88 0 0 1-9.4.5Z"><animateTransform additive="sum" attributeName="transform" dur="6s" repeatCount="indefinite" type="rotate" values="-15 86 86; 9 86 86; -15 86 86"/></path></symbol><symbol id="meteoconsThermometerMoon1" viewBox="0 0 72 168"><circle cx="36" cy="132" r="36" fill="#ef4444"/><path fill="none" stroke="#ef4444" stroke-linecap="round" stroke-miterlimit="10" stroke-width="24" d="M36 12v120"><animateTransform attributeName="transform" calcMode="spline" dur="1s" keySplines=".42, 0, .58, 1; .42, 0, .58, 1" repeatCount="indefinite" type="translate" values="0 0; 0 18; 0 0"/></path></symbol><symbol id="meteoconsThermometerMoon2" viewBox="0 0 118 278"><path fill="none" stroke="#cbd5e1" stroke-linecap="round" stroke-linejoin="round" stroke-width="6" d="M115 218.2c0 31.4-25 56.8-56 56.8S3 249.6 3 218.2a57 57 0 0 1 24-46.6V35.5a32 32 0 1 1 64 0v136a57 57 0 0 1 24 46.7ZM63 83h28M63 51h28m-28 64h28"/></symbol><symbol id="meteoconsThermometerMoon3" viewBox="0 0 118 278"><use width="72" height="168" href="#meteoconsThermometerMoon1" transform="translate(23 87)"/><use width="118" height="278" href="#meteoconsThermometerMoon2"/></symbol><clipPath id="meteoconsThermometerMoon4"><path fill="none" d="M256 392c31 0 56-25.4 56-56.8a57 57 0 0 0-24-46.6V152.5a32.2 32.2 0 0 0-32-32.5V79.7h167.2V392Zm4-192h28m-28-32h28m-28 64h28"/></clipPath></defs><g clip-path="url(#meteoconsThermometerMoon4)"><use width="178" height="178" href="#meteoconsThermometerMoon0" transform="translate(225 117)"/></g><use width="118" height="278" href="#meteoconsThermometerMoon3" transform="translate(197 117)"/></svg>