<svg xmlns="http://www.w3.org/2000/svg" viewBox="0 0 512 512"><defs><symbol id="meteoconsThermometerRaindrop0" viewBox="0 0 175 260.9"><path fill="none" stroke="#2885c7" stroke-miterlimit="10" stroke-width="15" d="M87.5 13.4c-48.7 72-80 117-80 160.7s35.8 79.3 80 79.3s80-35.5 80-79.3s-31.3-88.8-80-160.7Z"/></symbol><symbol id="meteoconsThermometerRaindrop1" viewBox="0 0 72 168"><circle cx="36" cy="132" r="36" fill="#ef4444"/><path fill="none" stroke="#ef4444" stroke-linecap="round" stroke-miterlimit="10" stroke-width="24" d="M36 12v120"><animateTransform attributeName="transform" calcMode="spline" dur="1s" keySplines=".42, 0, .58, 1; .42, 0, .58, 1" repeatCount="indefinite" type="translate" values="0 0; 0 18; 0 0"/></path></symbol><symbol id="meteoconsThermometerRaindrop2" viewBox="0 0 118 278"><path fill="none" stroke="#cbd5e1" stroke-linecap="round" stroke-linejoin="round" stroke-width="6" d="M115 218.2c0 31.4-25 56.8-56 56.8S3 249.6 3 218.2a57 57 0 0 1 24-46.6V35.5a32 32 0 1 1 64 0v136a57 57 0 0 1 24 46.7ZM63 83h28M63 51h28m-28 64h28"/></symbol><symbol id="meteoconsThermometerRaindrop3" viewBox="0 0 118 278"><use width="72" height="168" href="#meteoconsThermometerRaindrop1" transform="translate(23 87)"/><use width="118" height="278" href="#meteoconsThermometerRaindrop2"/></symbol><clipPath id="meteoconsThermometerRaindrop4"><path fill="none" d="M334 392c-31 0-56-25.4-56-56.8a57 57 0 0 1 24-46.6V152.5a32.2 32.2 0 0 1 32-32.5H167.3v272Zm4-192h28m-28-32h28m-28 64h28"/></clipPath></defs><g clip-path="url(#meteoconsThermometerRaindrop4)"><use width="175" height="260.9" href="#meteoconsThermometerRaindrop0" transform="translate(168.43 123.18)"/></g><use width="118" height="278" href="#meteoconsThermometerRaindrop3" transform="translate(275 117)"/></svg>