<svg xmlns="http://www.w3.org/2000/svg" viewBox="0 0 512 512"><defs><linearGradient id="meteoconsThunderstormsNightExtremeSnowFill0" x1="52.7" x2="133.4" y1="9.6" y2="149.3" gradientUnits="userSpaceOnUse"><stop offset="0" stop-color="#9ca3af"/><stop offset=".5" stop-color="#9ca3af"/><stop offset="1" stop-color="#6b7280"/></linearGradient><linearGradient id="meteoconsThunderstormsNightExtremeSnowFill1" x1="99.5" x2="232.6" y1="30.7" y2="261.4" gradientUnits="userSpaceOnUse"><stop offset="0" stop-color="#6b7280"/><stop offset=".5" stop-color="#6b7280"/><stop offset="1" stop-color="#4b5563"/></linearGradient><linearGradient id="meteoconsThunderstormsNightExtremeSnowFill2" x1="8.7" x2="80.9" y1="17.1" y2="142.1" gradientUnits="userSpaceOnUse"><stop offset="0" stop-color="#f7b23b"/><stop offset=".5" stop-color="#f7b23b"/><stop offset="1" stop-color="#f59e0b"/></linearGradient><linearGradient id="meteoconsThunderstormsNightExtremeSnowFill3" x1="34.7" x2="119.2" y1="18.6" y2="165" gradientUnits="userSpaceOnUse"><stop offset="0" stop-color="#86c3db"/><stop offset=".5" stop-color="#86c3db"/><stop offset="1" stop-color="#5eafcf"/></linearGradient><linearGradient id="meteoconsThunderstormsNightExtremeSnowFill4" x1="11.4" x2="32.8" y1="5.9" y2="43.1" href="#meteoconsThunderstormsNightExtremeSnowFill3"/><linearGradient id="meteoconsThunderstormsNightExtremeSnowFill5" x1="67.4" x2="88.8" y1="5.9" y2="43.1" href="#meteoconsThunderstormsNightExtremeSnowFill3"/><linearGradient id="meteoconsThunderstormsNightExtremeSnowFill6" x1="123.4" x2="144.8" y1="5.9" y2="43.1" href="#meteoconsThunderstormsNightExtremeSnowFill3"/><symbol id="meteoconsThunderstormsNightExtremeSnowFill7" viewBox="0 0 172 172"><path fill="url(#meteoconsThunderstormsNightExtremeSnowFill3)" stroke="#72b9d5" stroke-linecap="round" stroke-linejoin="round" stroke-width="4" d="M160.6 107.4a84.8 84.8 0 0 1-85.4-84.3A83.3 83.3 0 0 1 78 2A84.7 84.7 0 0 0 2 85.7A84.8 84.8 0 0 0 87.4 170a85.2 85.2 0 0 0 82.6-63.1a88 88 0 0 1-9.4.5Z"><animateTransform additive="sum" attributeName="transform" dur="6s" repeatCount="indefinite" type="rotate" values="-15 86 86; 9 86 86; -15 86 86"/></path></symbol><symbol id="meteoconsThunderstormsNightExtremeSnowFill8" viewBox="0 0 200.3 126.1"><path fill="url(#meteoconsThunderstormsNightExtremeSnowFill0)" stroke="#848b98" stroke-miterlimit="10" d="M.5 93.2a32.4 32.4 0 0 0 32.4 32.4h129.8v-.1l2.3.1a34.8 34.8 0 0 0 6.5-68.9a32.4 32.4 0 0 0-48.5-33a48.6 48.6 0 0 0-88.6 37.1h-1.5A32.4 32.4 0 0 0 .5 93.1Z"/></symbol><symbol id="meteoconsThunderstormsNightExtremeSnowFill9" viewBox="0 0 350 222"><path fill="url(#meteoconsThunderstormsNightExtremeSnowFill1)" stroke="#5b6472" stroke-miterlimit="10" stroke-width="6" d="m291 107l-2.5.1A83.9 83.9 0 0 0 135.6 43A56 56 0 0 0 51 91a56.6 56.6 0 0 0 .8 9A60 60 0 0 0 63 219l4-.2v.2h224a56 56 0 0 0 0-112Z"/></symbol><symbol id="meteoconsThunderstormsNightExtremeSnowFilla" viewBox="0 0 398 222"><use width="200.3" height="126.1" href="#meteoconsThunderstormsNightExtremeSnowFill8" transform="translate(198 27)"><animateTransform additive="sum" attributeName="transform" dur="6s" repeatCount="indefinite" type="translate" values="-9 0; 9 0; -9 0"/></use><use width="350" height="222" href="#meteoconsThunderstormsNightExtremeSnowFill9"><animateTransform additive="sum" attributeName="transform" dur="6s" repeatCount="indefinite" type="translate" values="-18 0; 18 0; -18 0"/></use></symbol><symbol id="meteoconsThunderstormsNightExtremeSnowFillb" viewBox="0 0 398.8 246"><use width="172" height="172" href="#meteoconsThunderstormsNightExtremeSnowFill7"/><use width="398" height="222" href="#meteoconsThunderstormsNightExtremeSnowFilla" transform="translate(.84 24)"/></symbol><symbol id="meteoconsThunderstormsNightExtremeSnowFillc" viewBox="0 0 156.2 49"><g><path fill="url(#meteoconsThunderstormsNightExtremeSnowFill4)" stroke="#86c3db" stroke-miterlimit="10" d="m41.7 31l-5.8-3.3a13.7 13.7 0 0 0 0-6.5l5.8-3.2a4 4 0 0 0 1.5-5.5a4 4 0 0 0-5.6-1.5l-5.8 3.3a13.6 13.6 0 0 0-2.6-2a13.8 13.8 0 0 0-3-1.3V4.5a4 4 0 0 0-8.1 0v6.6a14.3 14.3 0 0 0-5.7 3.2L6.6 11A4 4 0 0 0 1 12.5A4 4 0 0 0 2.5 18l5.8 3.3a13.7 13.7 0 0 0 0 6.5L2.5 31A4 4 0 0 0 1 36.5a4 4 0 0 0 3.5 2a4 4 0 0 0 2-.5l5.8-3.3a13.6 13.6 0 0 0 2.6 2a13.8 13.8 0 0 0 3 1.2v6.6a4 4 0 0 0 8.2 0v-6.6a14.2 14.2 0 0 0 5.6-3.2l6 3.3a4 4 0 0 0 2 .5a4 4 0 0 0 3.4-2a4 4 0 0 0-1.4-5.5ZM19 29.7a6 6 0 0 1-2.3-8.2a6.1 6.1 0 0 1 5.3-3a6.2 6.2 0 0 1 3 .8a6 6 0 0 1 2.2 8.2a6.1 6.1 0 0 1-8.2 2.2Z" opacity="0"><animateTransform additive="sum" attributeName="transform" dur="6s" repeatCount="indefinite" type="rotate" values="0 24 24; 360 24 24"/><animate id="meteoconsThunderstormsNightExtremeSnowFilld" attributeName="opacity" begin="0s; t1.end+1s" dur="2s" keyTimes="0; .17; .83; 1" values="0; 1; 1; 0"/></path><animateTransform id="meteoconsThunderstormsNightExtremeSnowFille" additive="sum" attributeName="transform" begin="0s; s1.end+1s" dur="2s" type="translate" values="0 -36; 0 92;"/></g><g><path fill="url(#meteoconsThunderstormsNightExtremeSnowFill5)" stroke="#86c3db" stroke-miterlimit="10" d="m97.7 31l-5.8-3.3a13.7 13.7 0 0 0 0-6.5l5.8-3.2a4 4 0 0 0 1.5-5.5a4 4 0 0 0-5.6-1.5l-5.8 3.3a13.6 13.6 0 0 0-2.6-2a13.8 13.8 0 0 0-3-1.3V4.5a4 4 0 0 0-8.1 0v6.6a14.3 14.3 0 0 0-5.7 3.2L62.6 11a4 4 0 0 0-5.6 1.5a4 4 0 0 0 1.5 5.5l5.8 3.3a13.7 13.7 0 0 0 0 6.5L58.5 31a4 4 0 0 0-1.5 5.5a4 4 0 0 0 3.5 2a4 4 0 0 0 2-.5l5.8-3.3a13.6 13.6 0 0 0 2.7 2a13.8 13.8 0 0 0 3 1.2v6.6a4 4 0 0 0 8 0v-6.6a14.2 14.2 0 0 0 5.7-3.2l6 3.3a4 4 0 0 0 2 .5a4 4 0 0 0 3.4-2a4 4 0 0 0-1.4-5.5ZM75 29.7a6 6 0 0 1-2.3-8.2a6.1 6.1 0 0 1 5.3-3a6.2 6.2 0 0 1 3 .8a6 6 0 0 1 2.2 8.2a6.1 6.1 0 0 1-8.2 2.2Z" opacity="0"><animateTransform additive="sum" attributeName="transform" dur="6s" repeatCount="indefinite" type="rotate" values="0 80 24; 360 80 24"/><animate id="meteoconsThunderstormsNightExtremeSnowFillf" attributeName="opacity" begin="-.83s; t2.end+1s" dur="2s" keyTimes="0; .17; .83; 1" values="0; 1; 1; 0"/></path><animateTransform id="meteoconsThunderstormsNightExtremeSnowFillg" additive="sum" attributeName="transform" begin="-.83s; s2.end+1s" dur="2s" type="translate" values="0 -36; 0 92;"/></g><g><path fill="url(#meteoconsThunderstormsNightExtremeSnowFill6)" stroke="#86c3db" stroke-miterlimit="10" d="m153.7 31l-5.8-3.3a13.7 13.7 0 0 0 0-6.5l5.8-3.2a4 4 0 0 0 1.5-5.5a4 4 0 0 0-5.6-1.5l-5.8 3.3a13.6 13.6 0 0 0-2.6-2a13.8 13.8 0 0 0-3-1.3V4.5a4 4 0 0 0-8.1 0v6.6a14.3 14.3 0 0 0-5.7 3.2l-5.8-3.3a4 4 0 0 0-5.6 1.5a4 4 0 0 0 1.5 5.5l5.8 3.3a13.7 13.7 0 0 0 0 6.5l-5.8 3.2a4 4 0 0 0-1.5 5.5a4 4 0 0 0 3.5 2a4 4 0 0 0 2-.5l5.8-3.3a13.6 13.6 0 0 0 2.7 2a13.8 13.8 0 0 0 3 1.2v6.6a4 4 0 0 0 8 0v-6.6a14.2 14.2 0 0 0 5.7-3.2l5.8 3.3a4 4 0 0 0 2 .5a4 4 0 0 0 3.5-2a4 4 0 0 0-1.3-5.5ZM131 29.7a6 6 0 0 1-2.3-8.2a6.1 6.1 0 0 1 5.3-3a6.2 6.2 0 0 1 3 .8a6 6 0 0 1 2.2 8.2a6.1 6.1 0 0 1-8.2 2.2Z" opacity="0"><animateTransform additive="sum" attributeName="transform" dur="6s" repeatCount="indefinite" type="rotate" values="0 136 24; 360 136 24"/><animate id="meteoconsThunderstormsNightExtremeSnowFillh" attributeName="opacity" begin=".83s; t3.end+1s" dur="2s" keyTimes="0; .17; .83; 1" values="0; 1; 1; 0"/></path><animateTransform id="meteoconsThunderstormsNightExtremeSnowFilli" additive="sum" attributeName="transform" begin=".83s; s3.end+1s" dur="2s" type="translate" values="0 -36; 0 92;"/></g></symbol><symbol id="meteoconsThunderstormsNightExtremeSnowFillj" viewBox="0 0 102.7 186.8"><path fill="url(#meteoconsThunderstormsNightExtremeSnowFill2)" stroke="#f6a823" stroke-miterlimit="10" stroke-width="4" d="m34.8 2l-32 96h32l-16 80l80-112h-48l32-64h-48z"><animate id="meteoconsThunderstormsNightExtremeSnowFillk" attributeName="opacity" begin="0s; x1.end+.67s" dur="1.33s" keyTimes="0; .38; .5; .63; .75; .86; .94; 1" values="1; 1; 0; 1; 0; 1; 0; 1"/></path></symbol></defs><use width="398.8" height="246" href="#meteoconsThunderstormsNightExtremeSnowFillb" transform="translate(68 121)"/><use width="156.2" height="49" href="#meteoconsThunderstormsNightExtremeSnowFillc" transform="translate(177.9 337.5)"/><use width="102.7" height="186.7" href="#meteoconsThunderstormsNightExtremeSnowFillj" transform="translate(205.23 291)"/></svg>