<svg xmlns="http://www.w3.org/2000/svg" viewBox="0 0 512 512"><defs><symbol id="meteoconsThunderstormsDayFill0" viewBox="0 0 196 196"><circle cx="98" cy="98" r="40" fill="url(#meteoconsThunderstormsDayFill7)" stroke="#f8af18" stroke-miterlimit="10" stroke-width="4"/><path fill="none" stroke="#fbbf24" stroke-linecap="round" stroke-miterlimit="10" stroke-width="12" d="M98 31.4V6m0 184v-25.4M145.1 51l18-17.9M33 163l18-17.9M51 51L33 33m130.1 130.1l-18-18M6 98h25.4M190 98h-25.4"><animateTransform additive="sum" attributeName="transform" dur="6s" repeatCount="indefinite" type="rotate" values="0 98 98; 45 98 98"/></path></symbol><symbol id="meteoconsThunderstormsDayFill1" viewBox="0 0 350 222"><path fill="url(#meteoconsThunderstormsDayFill5)" stroke="#e6effc" stroke-miterlimit="10" stroke-width="6" d="m291 107l-2.5.1A83.9 83.9 0 0 0 135.6 43A56 56 0 0 0 51 91a56.6 56.6 0 0 0 .8 9A60 60 0 0 0 63 219l4-.2v.2h224a56 56 0 0 0 0-112Z"/></symbol><symbol id="meteoconsThunderstormsDayFill2" viewBox="0 0 363 258"><use width="196" height="196" href="#meteoconsThunderstormsDayFill0"/><use width="350" height="222" href="#meteoconsThunderstormsDayFill1" transform="translate(13 36)"/></symbol><symbol id="meteoconsThunderstormsDayFill3" viewBox="0 0 102.7 186.8"><path fill="url(#meteoconsThunderstormsDayFill6)" stroke="#f6a823" stroke-miterlimit="10" stroke-width="4" d="m34.8 2l-32 96h32l-16 80l80-112h-48l32-64h-48z"><animate id="meteoconsThunderstormsDayFill4" attributeName="opacity" begin="0s; x1.end+.67s" dur="1.33s" keyTimes="0; .38; .5; .63; .75; .86; .94; 1" values="1; 1; 0; 1; 0; 1; 0; 1"/></path></symbol><linearGradient id="meteoconsThunderstormsDayFill5" x1="99.5" x2="232.6" y1="30.7" y2="261.4" gradientUnits="userSpaceOnUse"><stop offset="0" stop-color="#f3f7fe"/><stop offset=".5" stop-color="#f3f7fe"/><stop offset="1" stop-color="#deeafb"/></linearGradient><linearGradient id="meteoconsThunderstormsDayFill6" x1="8.7" x2="80.9" y1="17.1" y2="142.1" gradientUnits="userSpaceOnUse"><stop offset="0" stop-color="#f7b23b"/><stop offset=".5" stop-color="#f7b23b"/><stop offset="1" stop-color="#f59e0b"/></linearGradient><linearGradient id="meteoconsThunderstormsDayFill7" x1="78" x2="118" y1="63.4" y2="132.7" gradientUnits="userSpaceOnUse"><stop offset="0" stop-color="#fbbf24"/><stop offset=".5" stop-color="#fbbf24"/><stop offset="1" stop-color="#f59e0b"/></linearGradient></defs><use width="363" height="258" href="#meteoconsThunderstormsDayFill2" transform="translate(68 109)"/><use width="102.7" height="186.7" href="#meteoconsThunderstormsDayFill3" transform="translate(205.23 291)"/></svg>