<svg xmlns="http://www.w3.org/2000/svg" viewBox="0 0 512 512"><defs><symbol id="meteoconsThunderstormsNightOvercastFill0" viewBox="0 0 172 172"><path fill="url(#meteoconsThunderstormsNightOvercastFilla)" stroke="#72b9d5" stroke-linecap="round" stroke-linejoin="round" stroke-width="4" d="M160.6 107.4a84.8 84.8 0 0 1-85.4-84.3A83.3 83.3 0 0 1 78 2A84.7 84.7 0 0 0 2 85.7A84.8 84.8 0 0 0 87.4 170a85.2 85.2 0 0 0 82.6-63.1a88 88 0 0 1-9.4.5Z"><animateTransform additive="sum" attributeName="transform" dur="6s" repeatCount="indefinite" type="rotate" values="-15 86 86; 9 86 86; -15 86 86"/></path></symbol><symbol id="meteoconsThunderstormsNightOvercastFill1" viewBox="0 0 200.3 126.1"><path fill="url(#meteoconsThunderstormsNightOvercastFill8)" stroke="#848b98" stroke-miterlimit="10" d="M.5 93.2a32.4 32.4 0 0 0 32.4 32.4h129.8v-.1l2.3.1a34.8 34.8 0 0 0 6.5-68.9a32.4 32.4 0 0 0-48.5-33a48.6 48.6 0 0 0-88.6 37.1h-1.5A32.4 32.4 0 0 0 .5 93.1Z"/></symbol><symbol id="meteoconsThunderstormsNightOvercastFill2" viewBox="0 0 350 222"><path fill="url(#meteoconsThunderstormsNightOvercastFill7)" stroke="#e6effc" stroke-miterlimit="10" stroke-width="6" d="m291 107l-2.5.1A83.9 83.9 0 0 0 135.6 43A56 56 0 0 0 51 91a56.6 56.6 0 0 0 .8 9A60 60 0 0 0 63 219l4-.2v.2h224a56 56 0 0 0 0-112Z"/></symbol><symbol id="meteoconsThunderstormsNightOvercastFill3" viewBox="0 0 398 222"><use width="200.3" height="126.1" href="#meteoconsThunderstormsNightOvercastFill1" transform="translate(198 27)"><animateTransform additive="sum" attributeName="transform" dur="6s" repeatCount="indefinite" type="translate" values="-9 0; 9 0; -9 0"/></use><use width="350" height="222" href="#meteoconsThunderstormsNightOvercastFill2"><animateTransform additive="sum" attributeName="transform" dur="6s" repeatCount="indefinite" type="translate" values="-18 0; 18 0; -18 0"/></use></symbol><symbol id="meteoconsThunderstormsNightOvercastFill4" viewBox="0 0 398.8 246"><use width="172" height="172" href="#meteoconsThunderstormsNightOvercastFill0"/><use width="398" height="222" href="#meteoconsThunderstormsNightOvercastFill3" transform="translate(.84 24)"/></symbol><symbol id="meteoconsThunderstormsNightOvercastFill5" viewBox="0 0 102.7 186.8"><path fill="url(#meteoconsThunderstormsNightOvercastFill9)" stroke="#f6a823" stroke-miterlimit="10" stroke-width="4" d="m34.8 2l-32 96h32l-16 80l80-112h-48l32-64h-48z"><animate id="meteoconsThunderstormsNightOvercastFill6" attributeName="opacity" begin="0s; x1.end+.67s" dur="1.33s" keyTimes="0; .38; .5; .63; .75; .86; .94; 1" values="1; 1; 0; 1; 0; 1; 0; 1"/></path></symbol><linearGradient id="meteoconsThunderstormsNightOvercastFill7" x1="99.5" x2="232.6" y1="30.7" y2="261.4" gradientUnits="userSpaceOnUse"><stop offset="0" stop-color="#f3f7fe"/><stop offset=".5" stop-color="#f3f7fe"/><stop offset="1" stop-color="#deeafb"/></linearGradient><linearGradient id="meteoconsThunderstormsNightOvercastFill8" x1="52.7" x2="133.4" y1="9.6" y2="149.3" gradientUnits="userSpaceOnUse"><stop offset="0" stop-color="#9ca3af"/><stop offset=".5" stop-color="#9ca3af"/><stop offset="1" stop-color="#6b7280"/></linearGradient><linearGradient id="meteoconsThunderstormsNightOvercastFill9" x1="8.7" x2="80.9" y1="17.1" y2="142.1" gradientUnits="userSpaceOnUse"><stop offset="0" stop-color="#f7b23b"/><stop offset=".5" stop-color="#f7b23b"/><stop offset="1" stop-color="#f59e0b"/></linearGradient><linearGradient id="meteoconsThunderstormsNightOvercastFilla" x1="34.7" x2="119.2" y1="18.6" y2="165" gradientUnits="userSpaceOnUse"><stop offset="0" stop-color="#86c3db"/><stop offset=".5" stop-color="#86c3db"/><stop offset="1" stop-color="#5eafcf"/></linearGradient></defs><use width="398.8" height="246" href="#meteoconsThunderstormsNightOvercastFill4" transform="translate(68 121)"/><use width="102.7" height="186.7" href="#meteoconsThunderstormsNightOvercastFill5" transform="translate(205.23 291)"/></svg>