<svg xmlns="http://www.w3.org/2000/svg" viewBox="0 0 512 512"><defs><symbol id="meteoconsThunderstormsOvercastFill0" viewBox="0 0 200.3 126.1"><path fill="url(#meteoconsThunderstormsOvercastFill6)" stroke="#848b98" stroke-miterlimit="10" d="M.5 93.2a32.4 32.4 0 0 0 32.4 32.4h129.8v-.1l2.3.1a34.8 34.8 0 0 0 6.5-68.9a32.4 32.4 0 0 0-48.5-33a48.6 48.6 0 0 0-88.6 37.1h-1.5A32.4 32.4 0 0 0 .5 93.1Z"/></symbol><symbol id="meteoconsThunderstormsOvercastFill1" viewBox="0 0 350 222"><path fill="url(#meteoconsThunderstormsOvercastFill5)" stroke="#e6effc" stroke-miterlimit="10" stroke-width="6" d="m291 107l-2.5.1A83.9 83.9 0 0 0 135.6 43A56 56 0 0 0 51 91a56.6 56.6 0 0 0 .8 9A60 60 0 0 0 63 219l4-.2v.2h224a56 56 0 0 0 0-112Z"/></symbol><symbol id="meteoconsThunderstormsOvercastFill2" viewBox="0 0 398 222"><use width="200.3" height="126.1" href="#meteoconsThunderstormsOvercastFill0" transform="translate(198 27)"><animateTransform additive="sum" attributeName="transform" dur="6s" repeatCount="indefinite" type="translate" values="-9 0; 9 0; -9 0"/></use><use width="350" height="222" href="#meteoconsThunderstormsOvercastFill1"><animateTransform additive="sum" attributeName="transform" dur="6s" repeatCount="indefinite" type="translate" values="-18 0; 18 0; -18 0"/></use></symbol><symbol id="meteoconsThunderstormsOvercastFill3" viewBox="0 0 102.7 186.8"><path fill="url(#meteoconsThunderstormsOvercastFill7)" stroke="#f6a823" stroke-miterlimit="10" stroke-width="4" d="m34.8 2l-32 96h32l-16 80l80-112h-48l32-64h-48z"><animate id="meteoconsThunderstormsOvercastFill4" attributeName="opacity" begin="0s; x1.end+.67s" dur="1.33s" keyTimes="0; .38; .5; .63; .75; .86; .94; 1" values="1; 1; 0; 1; 0; 1; 0; 1"/></path></symbol><linearGradient id="meteoconsThunderstormsOvercastFill5" x1="99.5" x2="232.6" y1="30.7" y2="261.4" gradientUnits="userSpaceOnUse"><stop offset="0" stop-color="#f3f7fe"/><stop offset=".5" stop-color="#f3f7fe"/><stop offset="1" stop-color="#deeafb"/></linearGradient><linearGradient id="meteoconsThunderstormsOvercastFill6" x1="52.7" x2="133.4" y1="9.6" y2="149.3" gradientUnits="userSpaceOnUse"><stop offset="0" stop-color="#9ca3af"/><stop offset=".5" stop-color="#9ca3af"/><stop offset="1" stop-color="#6b7280"/></linearGradient><linearGradient id="meteoconsThunderstormsOvercastFill7" x1="8.7" x2="80.9" y1="17.1" y2="142.1" gradientUnits="userSpaceOnUse"><stop offset="0" stop-color="#f7b23b"/><stop offset=".5" stop-color="#f7b23b"/><stop offset="1" stop-color="#f59e0b"/></linearGradient></defs><use width="398" height="222" href="#meteoconsThunderstormsOvercastFill2" transform="translate(68.84 145)"/><use width="102.7" height="186.7" href="#meteoconsThunderstormsOvercastFill3" transform="translate(205.23 291)"/></svg>