<svg xmlns="http://www.w3.org/2000/svg" viewBox="0 0 512 512"><defs><symbol id="meteoconsTimeLateAfternoon0" viewBox="0 0 291.6 290.6"><ellipse cx="145.8" cy="145.3" fill="none" stroke="#ff922b" stroke-miterlimit="10" stroke-width="12" rx="64.5" ry="64.3"/><path fill="none" stroke="#ff922b" stroke-linecap="round" stroke-miterlimit="10" stroke-width="15" d="M145.8 45.5v-38m0 275.6v-38m70.8-170.3l27-27M48 242.9l27-27m0-141l-27-27m195.6 195l-27-27m-171-70.5h-38m276.6 0H246"><animateTransform additive="sum" attributeName="transform" dur="6s" repeatCount="indefinite" type="rotate" values="0 145.78 145.78; 45 145.78 145.78"/></path></symbol></defs><path fill="#374251" d="M185.3 438.4h-13.5v-32h-12.7v-9h2.2q5.5 0 8.8-2.4c2-1.5 3.3-4 4-7.3l.1-.5h11.1Zm32 1.3q-8.8 0-14.4-4a16.1 16.1 0 0 1-6.6-11.5l12.9-1a7.2 7.2 0 0 0 2.7 4.5a8.8 8.8 0 0 0 5.3 1.5a8.4 8.4 0 0 0 6.2-2.2a8.4 8.4 0 0 0 0-11.5a8.5 8.5 0 0 0-6.2-2.2a9.2 9.2 0 0 0-7.1 3l-12.1-1l4.7-28.2h32.2v10.7h-22.5l-1.7 8.8l.3.2a17.1 17.1 0 0 1 10.3-3q7.8 0 12.5 4.6t4.7 12.5q0 8.6-5.6 13.6t-15.6 5.2Zm49-16.4h-20.6v-9.9h20.6Zm31.1 15.1H284v-32h-12.7v-9h2.2q5.5 0 8.7-2.4c2-1.5 3.4-4 4-7.3l.2-.5h11Zm48.3-3.1q-6 4.4-16 4.4t-16-4.4a14.2 14.2 0 0 1-6-12a12.2 12.2 0 0 1 2.7-8a13.2 13.2 0 0 1 7.3-4.4v-.2a11 11 0 0 1-5.5-4.1a11.4 11.4 0 0 1-2.1-6.8a12 12 0 0 1 5.1-10.2q5.2-3.7 14.4-3.7t14.5 3.7a11.9 11.9 0 0 1 5.2 10.2a11.5 11.5 0 0 1-2 6.8a10.6 10.6 0 0 1-5.7 4.1v.3a13.6 13.6 0 0 1 7.4 4.4a12.2 12.2 0 0 1 2.6 8a14.2 14.2 0 0 1-6 11.9Zm-16-5.3a10.7 10.7 0 0 0 6.7-1.9a7 7 0 0 0 0-10.6a10.6 10.6 0 0 0-6.7-1.9a10.9 10.9 0 0 0-6.9 2a6.9 6.9 0 0 0 0 10.5a10.9 10.9 0 0 0 6.9 1.9Zm0-22.6a9.3 9.3 0 0 0 5.9-1.7a5.5 5.5 0 0 0 2-4.6a5.2 5.2 0 0 0-2-4.4a9.8 9.8 0 0 0-6-1.6q-8 0-8 6a5.5 5.5 0 0 0 2.1 4.6a9.5 9.5 0 0 0 6 1.7Z"/><use width="291.6" height="290.6" href="#meteoconsTimeLateAfternoon0" transform="translate(110.33 72.62)"/></svg>