<svg xmlns="http://www.w3.org/2000/svg" viewBox="0 0 512 512"><defs><symbol id="meteoconsWindBeaufort00" viewBox="0 0 342 234"><path fill="none" stroke="#e2e8f0" stroke-linecap="round" stroke-miterlimit="10" stroke-width="18" d="M264.2 21.3A40 40 0 1 1 293 89H9m139.2 123.7A40 40 0 1 0 177 145H9"/></symbol></defs><use width="342" height="234" href="#meteoconsWindBeaufort00" transform="translate(85 139)"/><path fill="#374251" d="M406 334.2q-8.2 9.8-22 9.8t-21.8-9.8q-8.1-9.7-8.1-26.4q0-16.5 8-26.1q8-9.7 22-9.7q13.7 0 21.8 9.7t8 26.1q.1 16.6-8 26.4Zm-22-4.2q12.6 0 12.6-22T384 286q-12.6 0-12.6 22t12.7 22Z"/></svg>