<svg xmlns="http://www.w3.org/2000/svg" viewBox="0 0 512 512"><defs><symbol id="meteoconsWindBeaufort80" viewBox="0 0 342 234"><path fill="none" stroke="#e2e8f0" stroke-dasharray="148" stroke-linecap="round" stroke-miterlimit="10" stroke-width="18" d="M264.2 21.3A40 40 0 1 1 293 89H9"><animate attributeName="stroke-dashoffset" dur="6s" repeatCount="indefinite" values="0; 3552"/></path><path fill="none" stroke="#e2e8f0" stroke-dasharray="110" stroke-linecap="round" stroke-miterlimit="10" stroke-width="18" d="M148.2 212.7A40 40 0 1 0 177 145H9"><animate attributeName="stroke-dashoffset" dur="6s" repeatCount="indefinite" values="0; 1980"/></path></symbol></defs><use width="342" height="234" href="#meteoconsWindBeaufort80" transform="translate(85 139)"/><path fill="#374251" d="M405.4 338.1q-7.9 5.9-21.4 5.9t-21.4-5.9a19 19 0 0 1-7.9-16a16.2 16.2 0 0 1 3.5-10.7a17.7 17.7 0 0 1 9.9-5.9v-.2a14.8 14.8 0 0 1-7.5-5.6a15.3 15.3 0 0 1-2.7-9a16 16 0 0 1 6.8-13.7q7-5 19.3-5t19.3 5a16 16 0 0 1 7 13.7a15.4 15.4 0 0 1-2.8 9.1a14.3 14.3 0 0 1-7.4 5.5v.3a18.1 18.1 0 0 1 9.8 5.9a16.2 16.2 0 0 1 3.5 10.6a19 19 0 0 1-8 16Zm-21.3-7q5.6 0 9-2.5a8.5 8.5 0 0 0 3.2-7.1a8.5 8.5 0 0 0-3.2-7.1c-2.2-1.7-5.2-2.5-9-2.5s-7 .8-9.2 2.5a8.5 8.5 0 0 0-3.2 7a8.4 8.4 0 0 0 3.3 7.2a15 15 0 0 0 9 2.5Zm0-30.3q5 0 7.8-2.3a7.4 7.4 0 0 0 2.9-6.1a7 7 0 0 0-2.8-6a13 13 0 0 0-8-2q-10.7 0-10.7 8a7.4 7.4 0 0 0 2.8 6.2q2.8 2.1 8 2.1Z"/></svg>