<svg xmlns="http://www.w3.org/2000/svg" viewBox="0 0 512 512"><defs><linearGradient id="meteoconsWindBeaufort11Fill0" x1="138.5" x2="224.2" y1="5.1" y2="153.5" gradientUnits="userSpaceOnUse"><stop offset="0" stop-color="#d4d7dd"/><stop offset=".5" stop-color="#d4d7dd"/><stop offset="1" stop-color="#bec1c6"/></linearGradient><linearGradient id="meteoconsWindBeaufort11Fill1" x1="77.7" x2="169" y1="96.2" y2="254.4" href="#meteoconsWindBeaufort11Fill0"/><symbol id="meteoconsWindBeaufort11Fill2" viewBox="0 0 348 240"><path fill="none" stroke="url(#meteoconsWindBeaufort11Fill0)" stroke-dasharray="148" stroke-linecap="round" stroke-miterlimit="10" stroke-width="24" d="M267.2 24.3A40 40 0 1 1 296 92H12"><animate attributeName="stroke-dashoffset" dur="6s" repeatCount="indefinite" values="0; 4440"/></path><path fill="none" stroke="url(#meteoconsWindBeaufort11Fill1)" stroke-dasharray="110" stroke-linecap="round" stroke-miterlimit="10" stroke-width="24" d="M151.2 215.7A40 40 0 1 0 180 148H12"><animate attributeName="stroke-dashoffset" dur="6s" repeatCount="indefinite" values="0; 2640"/></path></symbol></defs><use width="348" height="240" href="#meteoconsWindBeaufort11Fill2" transform="translate(82 136)"/><path fill="#374251" d="M379 344h-18.9v-45h-17.8v-12.6h3q7.8 0 12.3-3.4q4.3-3.1 5.6-10.2l.2-.8H379Zm46.7 0h-19v-45H389v-12.6h3q7.8 0 12.3-3.4q4.3-3.1 5.6-10.2l.2-.8h15.6Z"/></svg>