<svg xmlns="http://www.w3.org/2000/svg" viewBox="0 0 512 512"><defs><linearGradient id="meteoconsWindBeaufort9Fill0" x1="138.5" x2="224.2" y1="5.1" y2="153.5" gradientUnits="userSpaceOnUse"><stop offset="0" stop-color="#d4d7dd"/><stop offset=".5" stop-color="#d4d7dd"/><stop offset="1" stop-color="#bec1c6"/></linearGradient><linearGradient id="meteoconsWindBeaufort9Fill1" x1="77.7" x2="169" y1="96.2" y2="254.4" href="#meteoconsWindBeaufort9Fill0"/><symbol id="meteoconsWindBeaufort9Fill2" viewBox="0 0 348 240"><path fill="none" stroke="url(#meteoconsWindBeaufort9Fill0)" stroke-dasharray="148" stroke-linecap="round" stroke-miterlimit="10" stroke-width="24" d="M267.2 24.3A40 40 0 1 1 296 92H12"><animate attributeName="stroke-dashoffset" dur="6s" repeatCount="indefinite" values="0; 3848"/></path><path fill="none" stroke="url(#meteoconsWindBeaufort9Fill1)" stroke-dasharray="110" stroke-linecap="round" stroke-miterlimit="10" stroke-width="24" d="M151.2 215.7A40 40 0 1 0 180 148H12"><animate attributeName="stroke-dashoffset" dur="6s" repeatCount="indefinite" values="0; 2200"/></path></symbol></defs><use width="348" height="240" href="#meteoconsWindBeaufort9Fill2" transform="translate(82 136)"/><path fill="#374251" d="M403.4 279.7q9.7 9 9.7 27.6q0 17.5-7.7 27.1t-22.3 9.6q-10.1 0-16.8-4.6a21.9 21.9 0 0 1-9-12.8l16.6-1.1q2.1 5.5 9.3 5.5q5.9 0 9-4t3.8-13q-6 7.1-16.6 7.1q-10.9 0-17.6-6.4t-6.9-17.3q0-11.2 7.8-18.4t20-7q12.7 0 20.7 7.7Zm-20 28.5a11 11 0 0 0 8.2-3a12.2 12.2 0 0 0 3.3-8.3a11.6 11.6 0 0 0-2.7-7.3a11.2 11.2 0 0 0-9-3.7c-3.5 0-6.2 1-8.2 3.1a11.3 11.3 0 0 0-2.9 8a10.9 10.9 0 0 0 3.1 8.2a11.3 11.3 0 0 0 8.3 3Z"/></svg>