<svg xmlns="http://www.w3.org/2000/svg" viewBox="0 0 512 512"><defs><linearGradient id="meteoconsWindSnowFill0" x1="138.5" x2="224.2" y1="5.1" y2="153.5" gradientUnits="userSpaceOnUse"><stop offset="0" stop-color="#d4d7dd"/><stop offset=".5" stop-color="#d4d7dd"/><stop offset="1" stop-color="#bec1c6"/></linearGradient><linearGradient id="meteoconsWindSnowFill1" x1="77.7" x2="169" y1="96.2" y2="254.4" href="#meteoconsWindSnowFill0"/><linearGradient id="meteoconsWindSnowFill2" x1="219.1" x2="240.9" y1="155.2" y2="192.8" gradientUnits="userSpaceOnUse"><stop offset="0" stop-color="#86c3db"/><stop offset=".5" stop-color="#86c3db"/><stop offset="1" stop-color="#5eafcf"/></linearGradient><linearGradient id="meteoconsWindSnowFill3" x1="363.1" x2="384.9" y1="257.2" y2="294.8" href="#meteoconsWindSnowFill2"/><linearGradient id="meteoconsWindSnowFill4" x1="133.1" x2="154.9" y1="315.2" y2="352.8" href="#meteoconsWindSnowFill2"/><symbol id="meteoconsWindSnowFill5" viewBox="0 0 348 240"><path fill="none" stroke="url(#meteoconsWindSnowFill0)" stroke-dasharray="148" stroke-linecap="round" stroke-miterlimit="10" stroke-width="24" d="M267.2 24.3A40 40 0 1 1 296 92H12"><animate attributeName="stroke-dashoffset" dur="6s" repeatCount="indefinite" values="0; 2960"/></path><path fill="none" stroke="url(#meteoconsWindSnowFill1)" stroke-dasharray="110" stroke-linecap="round" stroke-miterlimit="10" stroke-width="24" d="M151.2 215.7A40 40 0 1 0 180 148H12"><animate attributeName="stroke-dashoffset" dur="6s" repeatCount="indefinite" values="0; 1540"/></path></symbol></defs><use width="348" height="240" href="#meteoconsWindSnowFill5" transform="translate(82 136)"/><path fill="url(#meteoconsWindSnowFill2)" stroke="#86c3db" stroke-miterlimit="10" d="m249.6 180.7l-5.8-3.4a14.3 14.3 0 0 0 0-6.6l5.8-3.4a4.1 4.1 0 0 0 1.4-5.5a4 4 0 0 0-5.5-1.5l-5.8 3.3a14.2 14.2 0 0 0-2.6-2a14.6 14.6 0 0 0-3-1.3v-6.7a4 4 0 1 0-8.1 0v6.7a14.2 14.2 0 0 0-5.7 3.3l-5.8-3.3a4 4 0 0 0-5.5 1.5a4.1 4.1 0 0 0 1.5 5.5l5.8 3.4a14.3 14.3 0 0 0 0 6.6l-5.8 3.4a4.1 4.1 0 0 0-1.5 5.5a4 4 0 0 0 5.5 1.5l5.8-3.3a14.2 14.2 0 0 0 2.6 2a13.8 13.8 0 0 0 3 1.3v6.7a4 4 0 1 0 8.1 0v-6.7a14.1 14.1 0 0 0 5.7-3.3l5.8 3.3a4 4 0 0 0 5.5-1.5a4.1 4.1 0 0 0-1.4-5.5Zm-22.6-1.4a6.2 6.2 0 0 1-2.2-8.4a6 6 0 0 1 5.2-3a6 6 0 0 1 3 .8a6.2 6.2 0 0 1 2.3 8.4a6 6 0 0 1-8.3 2.2Z" opacity="0"><animateTransform id="meteoconsWindSnowFill6" additive="sum" attributeName="transform" begin=".5s; x1.end+1.33s" dur="1.67s" type="translate" values="-30 0; 30 0"/><animate attributeName="opacity" begin=".5s; x1.end+1.33s" dur="1.67s" keyTimes="0; .2; .8; 1" values="0; 1; 1; 0"/></path><path fill="url(#meteoconsWindSnowFill3)" stroke="#86c3db" stroke-miterlimit="10" d="m393.6 282.7l-5.8-3.4a14.3 14.3 0 0 0 0-6.6l5.8-3.4a4.1 4.1 0 0 0 1.4-5.5a4 4 0 0 0-5.5-1.5l-5.8 3.3a14.2 14.2 0 0 0-2.6-2a14.6 14.6 0 0 0-3-1.3v-6.7a4 4 0 1 0-8.1 0v6.7a14.2 14.2 0 0 0-5.7 3.3l-5.8-3.3a4 4 0 0 0-5.5 1.5a4.1 4.1 0 0 0 1.5 5.5l5.8 3.4a14.3 14.3 0 0 0 0 6.6l-5.8 3.4a4.1 4.1 0 0 0-1.5 5.5a4 4 0 0 0 5.5 1.5l5.8-3.3a14.2 14.2 0 0 0 2.7 2a13.8 13.8 0 0 0 3 1.3v6.7a4 4 0 1 0 8 0v-6.7a14.1 14.1 0 0 0 5.7-3.3l5.8 3.3a4 4 0 0 0 5.5-1.5a4.1 4.1 0 0 0-1.4-5.5Zm-22.6-1.4a6.2 6.2 0 0 1-2.2-8.4a6 6 0 0 1 5.2-3a6 6 0 0 1 3 .8a6.2 6.2 0 0 1 2.3 8.4a6 6 0 0 1-8.3 2.2Z" opacity="0"><animateTransform id="meteoconsWindSnowFill7" additive="sum" attributeName="transform" begin="1s; x2.end+1.33s" dur="1.67s" type="translate" values="-30 0; 30 0"/><animate attributeName="opacity" begin="1s; x2.end+1.33s" dur="1.67s" keyTimes="0; .2; .8; 1" values="0; 1; 1; 0"/></path><path fill="url(#meteoconsWindSnowFill4)" stroke="#86c3db" stroke-miterlimit="10" d="m163.6 340.7l-5.8-3.4a14.3 14.3 0 0 0 0-6.6l5.8-3.4a4.1 4.1 0 0 0 1.4-5.5a4 4 0 0 0-5.5-1.5l-5.8 3.3a14.2 14.2 0 0 0-2.6-2a14.6 14.6 0 0 0-3-1.3v-6.7a4 4 0 1 0-8.1 0v6.7a14.2 14.2 0 0 0-5.7 3.3l-5.8-3.3a4 4 0 0 0-5.5 1.5a4.1 4.1 0 0 0 1.5 5.5l5.8 3.4a14.3 14.3 0 0 0 0 6.6l-5.8 3.4a4.1 4.1 0 0 0-1.5 5.5a4 4 0 0 0 5.5 1.5l5.8-3.3a14.2 14.2 0 0 0 2.6 2a13.8 13.8 0 0 0 3 1.3v6.7a4 4 0 1 0 8.1 0v-6.7a14.1 14.1 0 0 0 5.7-3.3l5.8 3.3a4 4 0 0 0 5.5-1.5a4.1 4.1 0 0 0-1.4-5.5Zm-22.6-1.4a6.2 6.2 0 0 1-2.2-8.4a6 6 0 0 1 5.2-3a6 6 0 0 1 3 .8a6.2 6.2 0 0 1 2.3 8.4a6 6 0 0 1-8.3 2.2Z" opacity="0"><animateTransform id="meteoconsWindSnowFill8" additive="sum" attributeName="transform" begin="0s; x3.end+1.33s" dur="1.67s" type="translate" values="-30 0; 30 0"/><animate attributeName="opacity" begin="0s; x3.end+1.33s" dur="1.67s" keyTimes="0; .2; .8; 1" values="0; 1; 1; 0"/></path></svg>