<svg xmlns="http://www.w3.org/2000/svg" viewBox="0 0 512 512"><defs><symbol id="meteoconsWindBeaufort110" viewBox="0 0 342 234"><path fill="none" stroke="#e2e8f0" stroke-dasharray="148" stroke-linecap="round" stroke-miterlimit="10" stroke-width="18" d="M264.2 21.3A40 40 0 1 1 293 89H9"><animate attributeName="stroke-dashoffset" dur="6s" repeatCount="indefinite" values="0; 4440"/></path><path fill="none" stroke="#e2e8f0" stroke-dasharray="110" stroke-linecap="round" stroke-miterlimit="10" stroke-width="18" d="M148.2 212.7A40 40 0 1 0 177 145H9"><animate attributeName="stroke-dashoffset" dur="6s" repeatCount="indefinite" values="0; 2640"/></path></symbol></defs><use width="342" height="234" href="#meteoconsWindBeaufort110" transform="translate(85 139)"/><path fill="#374251" d="M379 344h-18.9v-45h-17.8v-12.6h3q7.8 0 12.3-3.4q4.3-3.1 5.6-10.2l.2-.8H379Zm46.7 0h-19v-45H389v-12.6h3q7.8 0 12.3-3.4q4.3-3.1 5.6-10.2l.2-.8h15.6Z"/></svg>