<svg fill="none" height="24" viewBox="0 0 24 24" width="24" xmlns="http://www.w3.org/2000/svg"><g stroke="#141b34" stroke-width="1.5"><circle cx="16.5" cy="7.5" r="1.5"/><path d="m2 14.1354c.66663-.0899 1.3406-.1343 2.01569-.1327 2.85594-.0561 5.64192.7702 7.86081 2.3315 2.058 1.4479 3.504 3.4407 4.1235 5.6658" stroke-linejoin="round"/><path d="m13.5 17.5c1-1 1.6772-1.2232 2.5-1.5" stroke-linecap="round" stroke-linejoin="round"/><path d="m20 20.2132c-1.3988 1.2869-3.6365 1.2869-8 1.2869-4.47834 0-6.71751 0-8.10876-1.3912-1.39124-1.3913-1.39124-3.6304-1.39124-8.1088 0-4.36357 0-6.60128 1.28701-8.0001"/><g stroke-linecap="round" stroke-linejoin="round"><path d="m20.0002 16c.5425 0 1.0478.2945 1.3965.5638.1033-1.1945.1033-2.6813.1033-4.5638 0-4.47834 0-6.71751-1.3912-8.10876-1.3913-1.39124-3.6305-1.39124-8.1088-1.39124-2.40914 0-4.17028 0-5.5.21659"/><path d="m2 2 20 20"/></g></g></svg>