<svg xmlns="http://www.w3.org/2000/svg" viewBox="0 0 256 256"><path fill="currentColor" d="m234.8 150.4l-14.9-19.8c.1-1.8 0-3.7 0-5.1l14.9-19.9a7.8 7.8 0 0 0 1.3-6.9a114.8 114.8 0 0 0-10.9-26.4a8.2 8.2 0 0 0-5.8-4l-24.5-3.5l-3.7-3.7l-3.5-24.5a8.2 8.2 0 0 0-4-5.8a114.8 114.8 0 0 0-26.4-10.9a7.8 7.8 0 0 0-6.9 1.3L130.6 36h-5.2l-19.8-14.8a7.8 7.8 0 0 0-6.9-1.3a114.8 114.8 0 0 0-26.4 10.9a8.2 8.2 0 0 0-4 5.8l-3.5 24.5l-3.7 3.7l-24.5 3.5a8.2 8.2 0 0 0-5.8 4a114.8 114.8 0 0 0-10.9 26.4a7.8 7.8 0 0 0 1.3 6.9l14.9 19.8v5.1l-14.9 19.9a7.8 7.8 0 0 0-1.3 6.9a114.8 114.8 0 0 0 10.9 26.4a8.2 8.2 0 0 0 5.8 4l24.5 3.5l3.7 3.7l3.5 24.5a8.2 8.2 0 0 0 4 5.8a114.8 114.8 0 0 0 26.4 10.9a7.6 7.6 0 0 0 2.1.3a7.7 7.7 0 0 0 4.8-1.6l19.8-14.8h5.2l19.8 14.8a7.8 7.8 0 0 0 6.9 1.3a114.8 114.8 0 0 0 26.4-10.9a8.2 8.2 0 0 0 4-5.8l3.5-24.6c1.2-1.2 2.6-2.5 3.6-3.6l24.6-3.5a8.2 8.2 0 0 0 5.8-4a114.8 114.8 0 0 0 10.9-26.4a7.8 7.8 0 0 0-1.3-6.9ZM128 172a44 44 0 1 1 44-44a44 44 0 0 1-44 44Z"></path></svg>